<svg width="129" height="50" viewBox="0 0 129 50" fill="none" xmlns="http://www.w3.org/2000/svg">
<path d="M5.15829 14.3005C8.41414 14.3005 10.2174 12.1505 10.2174 9.30049C10.2174 5.95049 8.41414 4.65049 6.21018 4.65049C5.1082 4.65049 4.35685 5.10049 3.95613 5.45049C4.05631 4.10049 5.00802 3.35049 6.51072 3.35049H7.56261C8.31396 3.35049 9.1154 3.25049 9.6163 3.00049V0.000488281C9.06531 0.200488 8.31396 0.250488 7.51252 0.250488H6.51072C2.50352 0.250488 0.149293 2.35049 0.149293 8.35049C0.199383 12.0505 2.00262 14.3005 5.15829 14.3005ZM32.3071 4.50049V7.25049H34.6112V14.0505H38.3179V7.25049H42.9261C44.2285 7.25049 44.7795 7.35049 44.7795 7.95049V8.30049H43.5272C40.9726 8.30049 39.6202 9.45049 39.6202 11.4505C39.6202 13.3005 40.8724 14.3005 42.5254 14.3005C43.8778 14.3005 44.6793 13.7005 45.08 13.3005C45.2804 13.9505 45.9315 14.3005 46.9834 14.3005C48.1856 14.3005 49.4879 14.0505 49.4879 14.0505V11.8005H49.3877C48.5863 11.8005 48.2858 11.7505 48.2858 11.1505V8.25049C48.2858 5.25049 46.8331 4.50049 43.8278 4.50049H32.3071ZM65.3163 14.3005C66.8691 14.3005 67.7708 13.8505 67.7708 13.8505V11.4505C67.7708 11.4505 67.1697 11.7005 66.2681 11.7005C65.0659 11.7005 64.3145 10.9005 64.3145 9.15049C64.3145 7.60049 65.0158 6.85049 66.2681 6.85049C67.2699 6.85049 67.7708 7.15049 67.7708 7.15049V4.60049C67.7708 4.60049 67.0194 4.25049 65.4165 4.25049C62.4612 4.25049 60.4075 6.30049 60.4075 9.30049C60.4075 12.6005 62.6115 14.3005 65.3163 14.3005ZM92.9159 6.95049H93.5671V8.85049H92.9159C92.2147 8.85049 91.864 8.50049 91.864 7.90049C91.864 7.25049 92.2648 6.95049 92.9159 6.95049ZM16.0779 11.4005C15.6271 11.4005 15.3266 11.1505 15.3266 11.1505V7.70049C15.3266 7.70049 15.6772 7.40049 16.2282 7.40049C17.0797 7.40049 17.4303 8.35049 17.4303 9.35049C17.4303 10.6005 16.9294 11.4005 16.0779 11.4005ZM5.25847 11.5505C4.35685 11.5505 4.05631 10.7505 4.05631 9.45049C4.05631 8.15049 4.35685 7.35049 5.25847 7.35049C6.05991 7.35049 6.41054 8.10049 6.41054 9.45049C6.41054 10.7505 6.11 11.5505 5.25847 11.5505ZM25.8955 14.0505L28.1496 9.65049V14.0505H31.706V4.50049H28.0995L25.8454 9.05049V4.50049H22.2891V14.0505H25.8955ZM83.5491 11.3505C83.5491 11.3505 83.2486 11.9005 82.5974 11.9005C82.1466 11.9005 81.846 11.6005 81.846 11.0005C81.846 10.5005 82.1967 10.1005 82.7477 10.1005H83.5491V11.3505ZM44.7795 11.3005C44.7795 11.3005 44.4789 11.8505 43.8278 11.8505C43.3769 11.8505 43.0764 11.6005 43.0764 11.0505C43.0764 10.5505 43.427 10.2005 43.978 10.2005H44.7795V11.3005ZM72.4792 10.5005H72.7297L74.3826 14.0505H78.3898L75.8853 9.00049L78.5902 4.50049H74.6832L72.7297 7.85049H72.4792V4.50049H68.7726V14.0505H72.4792V10.5005ZM50.1892 14.0505H53.8958V10.5505H55.6991V14.0505H59.5059V4.50049H55.6991V7.85049H53.8958V4.50049H50.1892V14.0505ZM93.517 11.1505V14.0505H97.3238V4.50049H92.4651C89.9606 4.50049 88.3076 5.80049 88.3076 7.90049C88.3076 9.00049 88.8586 10.1005 89.9606 10.5505C89.61 11.3005 89.0089 11.7505 88.2576 11.7505C87.7567 11.7505 87.1055 11.6005 87.1055 11.1005V8.30049C87.1055 5.30049 85.6529 4.25049 82.6475 4.25049C80.694 4.25049 79.1913 4.70049 79.1913 4.70049V7.25049C79.1913 7.25049 80.4435 6.80049 81.7459 6.80049C83.0482 6.80049 83.5992 7.35049 83.5992 8.00049V8.25049H82.3469C79.7924 8.25049 78.4399 9.50049 78.4399 11.5005C78.4399 13.3505 79.6922 14.3505 81.3451 14.3505C82.6475 14.3505 83.499 13.8005 84.2504 12.9505C84.7012 13.8505 85.9033 14.4005 87.8568 14.4005C90.7621 14.4005 92.3148 13.2005 93.1163 11.2505H93.517V11.1505ZM11.6199 17.9005H15.3266V13.6505C15.6772 13.9505 16.2783 14.3005 17.23 14.3005C19.7345 14.3005 21.2873 11.9505 21.2873 9.10049C21.2873 6.65049 20.2855 4.20049 17.781 4.20049C16.3284 4.20049 15.5269 4.85049 14.9258 5.60049C14.6754 4.30049 13.7237 4.20049 13.0725 4.20049C11.8203 4.20049 10.3676 4.45049 10.3676 4.45049V6.80049H10.6682C11.3194 6.80049 11.5698 6.85049 11.5698 7.35049V17.9005H11.6199ZM102.383 30.9505C105.288 30.9505 107.192 29.0505 107.192 25.9505C107.192 22.9005 105.338 20.8005 102.383 20.8005C99.4276 20.8005 97.5743 22.8505 97.5743 25.9005C97.5242 29.0505 99.3775 30.9505 102.383 30.9505ZM86.6046 30.7505V21.2005H82.948V28.1005H81.4954V21.2005H77.7887V28.1005H76.3361V22.8005C76.3361 21.3005 75.7852 20.9005 74.2825 20.9005C72.8799 20.9005 71.4774 21.2005 71.4774 21.2005V23.4505H71.778C72.4291 23.4505 72.6796 23.5505 72.6796 24.1005V30.7505H86.6046ZM125.474 31.0005C126.677 31.0005 128.029 30.7505 128.029 30.7505V28.4505H127.929C127.127 28.4505 126.827 28.4005 126.827 27.8505V24.8505C126.827 21.7505 125.424 20.9505 122.319 20.9505C120.365 20.9505 118.863 21.4505 118.863 21.4505V24.1505C118.863 24.1505 120.115 23.7005 121.417 23.7005C122.719 23.7005 123.17 24.0505 123.17 24.6005V24.8005H122.018C119.464 24.8005 118.061 26.1005 118.061 28.1505C118.061 30.0505 119.313 31.0005 120.916 31.0005C122.369 31.0005 123.17 30.3505 123.521 30.0005C123.771 30.6505 124.372 31.0005 125.474 31.0005ZM0.600103 30.8505H5.35865C8.36405 30.8505 9.91684 29.7505 9.91684 27.8505C9.91684 26.7505 9.26567 25.9505 8.16369 25.6005C9.01522 25.1505 9.41594 24.3505 9.41594 23.5005C9.41594 22.0505 8.21378 21.0505 5.80946 21.0505H0.600103V30.8505ZM19.4339 30.7505H23.1406V21.2005H19.4339V30.7505ZM10.8685 30.7505H15.4267C17.8811 30.7505 19.0833 29.1005 19.0833 27.1005C19.0833 25.2505 17.8811 23.8005 15.4267 23.8005H14.5251V21.2005H10.8185V30.7505H10.8685ZM32.257 30.7505H46.2321V21.2005H42.5254V28.1005H41.0728V21.2005H37.3661V28.1005H35.9135V21.2005H32.3071V30.7505H32.257ZM4.40694 24.8505V23.2505H4.95793C5.65919 23.2505 6.00982 23.6005 6.00982 24.0005C6.00982 24.5005 5.65919 24.8505 4.95793 24.8505H4.40694ZM102.383 28.4505C101.682 28.4505 101.181 27.7505 101.181 26.0005C101.181 24.3005 101.682 23.4505 102.383 23.4505C103.134 23.4505 103.535 24.2505 103.535 26.0005C103.535 27.7505 103.034 28.4505 102.383 28.4505ZM28.8508 31.0005C30.4036 31.0005 31.3053 30.5505 31.3053 30.5505V28.1505C31.3053 28.1505 30.6541 28.4005 29.7525 28.4005C28.5503 28.4005 27.799 27.5505 27.799 25.8505C27.799 24.2505 28.5503 23.4505 29.7525 23.4505C30.6541 23.4505 31.2552 23.8005 31.2552 23.8005V21.3005C31.2552 21.3005 30.5038 20.9005 28.951 20.9005C25.9456 20.9005 23.9921 22.9505 23.9921 25.9505C23.9921 29.2505 26.0959 31.0005 28.8508 31.0005ZM61.5596 23.6005H62.2108V25.5005H61.5596C60.8583 25.5005 60.5077 25.1505 60.5077 24.5505C60.5077 23.9005 60.9084 23.6005 61.5596 23.6005ZM107.242 30.8005C107.242 30.8005 107.743 31.0005 108.544 31.0005C111.349 31.0005 111.95 28.6005 112.1 23.9505H113.303V30.7505H117.109V21.2005H108.895C108.794 27.0505 108.644 28.3005 107.442 28.3005C107.392 28.3005 107.242 28.3005 107.242 28.3005V30.8005ZM14.5251 28.3505V26.1505H14.8257C15.3766 26.1505 15.7273 26.6005 15.7273 27.2505C15.7273 27.9505 15.4267 28.4005 14.8257 28.4005H14.5251V28.3505ZM52.2429 28.0005C52.2429 28.0005 51.9423 28.5505 51.2912 28.5505C50.8403 28.5505 50.5398 28.2505 50.5398 27.6505C50.5398 27.1505 50.8904 26.7505 51.4414 26.7505H52.2429V28.0005ZM122.319 28.4005C121.868 28.4005 121.617 28.1505 121.617 27.6005C121.617 27.1505 121.868 26.8005 122.519 26.8005H123.22V27.9005C123.22 27.9505 122.97 28.4005 122.319 28.4005ZM4.40694 28.7005V27.0005H5.00802C5.75937 27.0005 6.21018 27.2505 6.21018 27.8505C6.21018 28.4005 5.75937 28.7505 5.00802 28.7505H4.40694V28.7005ZM91.8139 27.1505H92.0143L93.7674 30.7005H97.6745L95.17 25.6005L97.8748 21.1505H94.0179L92.0143 24.5505H91.8139V21.1505H88.0572V30.7005H91.8139V27.1505ZM62.2108 27.8505V29.2005C62.2108 30.7505 63.4129 31.0005 64.4648 31.0005C65.667 31.0005 67.1697 30.7505 67.1697 30.7505V28.5005H67.0695C66.2681 28.5005 65.9675 28.4505 65.9675 27.8505V21.1505H61.1088C58.6043 21.1505 56.9513 22.4505 56.9513 24.5505C56.9513 25.6505 57.5023 26.7505 58.6043 27.2005C58.2537 27.9505 57.6526 28.4005 56.9012 28.4005C56.4003 28.4005 55.7492 28.2505 55.7492 27.7505V24.9505C55.7492 21.9505 54.2966 20.9005 51.2912 20.9005C49.3376 20.9005 47.8349 21.3505 47.8349 21.3505V23.9005C47.8349 23.9005 49.0872 23.4505 50.3895 23.4505C51.6919 23.4505 52.2429 24.0005 52.2429 24.6505V24.9005H50.9906C48.436 24.9005 47.0836 26.1505 47.0836 28.1505C47.0836 30.0005 48.3358 31.0005 49.9888 31.0005C51.2912 31.0005 52.1427 30.4505 52.894 29.6005C53.3448 30.5005 54.4969 31.0505 56.4003 31.0505C59.3556 31.0505 60.9585 29.8505 61.76 27.9005H62.2108V27.8505ZM46.2321 34.7505C45.0299 34.7505 45.08 33.4505 45.08 33.4505H42.275C42.275 36.2005 44.529 37.0505 46.2822 37.0505C48.0353 37.0505 50.2894 36.2005 50.2894 33.4505H47.4843C47.4342 33.4505 47.4843 34.7505 46.2321 34.7505ZM38.2177 47.7505C39.4198 47.7505 40.7222 47.5005 40.7222 47.5005V45.2505H40.622C39.8206 45.2505 39.52 45.2005 39.52 44.6005V41.7005C39.52 38.7005 38.0674 37.6505 35.062 37.6505C33.1085 37.6505 31.6058 38.1005 31.6058 38.1005V40.6505C31.6058 40.6505 32.858 40.2005 34.1604 40.2005C35.4627 40.2005 36.0137 40.7505 36.0137 41.4005V41.6505H34.7615C32.2069 41.6505 30.8544 42.9005 30.8544 44.9005C30.8544 46.7505 32.1067 47.7505 33.7597 47.7505C35.1121 47.7505 35.9135 47.1505 36.3143 46.7505C36.5146 47.4005 37.1658 47.7505 38.2177 47.7505ZM69.7243 47.7505C70.9264 47.7505 72.2288 47.5005 72.2288 47.5005V45.2505H72.1286C71.3271 45.2505 71.0266 45.2005 71.0266 44.6005V41.7005C71.0266 38.7005 69.574 37.6505 66.5686 37.6505C64.6151 37.6505 63.1124 38.1005 63.1124 38.1005V40.6505C63.1124 40.6505 64.3646 40.2005 65.667 40.2005C66.9693 40.2005 67.5203 40.7505 67.5203 41.4005V41.6505H66.2681C63.7135 41.6505 62.361 42.9005 62.361 44.9005C62.361 46.7505 63.6133 47.7505 65.2663 47.7505C66.6187 47.7505 67.4201 47.1505 67.8208 46.7505C68.0212 47.4005 68.6724 47.7505 69.7243 47.7505ZM4.95793 40.6505H6.36045V44.9005H4.15649C4.55721 43.7505 4.90784 42.4005 4.95793 40.6505ZM15.577 47.5005L17.8311 43.1005V47.5005H21.3874V37.9005H17.781L15.5269 42.4505V37.9005H11.9705V47.5005H15.577ZM45.08 47.5005L47.334 43.1005V47.5005H50.8904V37.9005H47.284L45.0299 42.4505V37.9005H41.4735V47.5005H45.08ZM66.5686 45.3505C66.1178 45.3505 65.8172 45.0505 65.8172 44.4505C65.8172 43.9505 66.1679 43.5505 66.7189 43.5505H67.5203V44.8005C67.5704 44.8005 67.2198 45.3505 66.5686 45.3505ZM35.062 45.3505C34.6112 45.3505 34.3107 45.0505 34.3107 44.4505C34.3107 43.9505 34.6613 43.5505 35.2123 43.5505H36.0137V44.8005C36.0137 44.8005 35.7132 45.3505 35.062 45.3505ZM52.1427 47.5005H55.9495V43.8005H57.7528V47.5005H61.4594V37.9005H57.7528V41.1005H55.9495V37.9005H52.1427V47.5005ZM25.1943 47.8005C28.2999 47.8005 30.3535 46.7005 30.3535 44.6505C30.3535 43.4505 29.7525 42.8005 28.7507 42.5005C29.4519 42.0505 29.9528 41.2505 29.9528 40.3505C29.9528 38.6505 28.6505 37.7505 25.7954 37.7505C24.0923 37.7505 22.6898 38.1005 22.6898 38.1005V40.6505C22.6898 40.6505 23.7918 40.2505 25.044 40.2505C25.7453 40.2505 26.2462 40.4005 26.2462 40.8505C26.2462 41.3005 25.8955 41.5505 25.3445 41.5505H23.7417V43.9505H24.8436C25.7954 43.9505 26.5467 44.1005 26.5467 44.6005C26.5467 45.1005 25.7453 45.3005 24.8436 45.3005C23.4912 45.3005 22.4894 44.9005 22.4894 44.9005V47.3505C22.4894 47.3505 23.4411 47.8005 25.1943 47.8005ZM3.55541 47.5005H7.56261V50.0005H11.1691V44.9005H10.0671V37.9005H1.80226C1.70208 41.3505 1.35145 43.4005 0.800463 44.8505H-0.000976562V50.0005H3.55541V47.5005Z" fill="#212121"/>
</svg>
