<svg width="63" height="64" viewBox="0 0 63 64" fill="none" xmlns="http://www.w3.org/2000/svg">
<path d="M42.3973 21.4034C41.342 20.5621 40.0755 20.5621 39.2312 20.7724C39.6534 20.1414 40.9198 19.7207 41.342 19.5103C41.553 19.7207 42.3973 20.5621 42.3973 21.4034ZM45.3523 18.0379C44.7191 14.6724 36.9094 16.9862 33.1101 15.5138C33.1101 16.5655 34.3766 18.0379 35.643 18.669C33.5323 20.5621 31.6326 24.1379 31.2105 28.5552C30.7883 24.1379 28.8887 20.3517 26.7779 18.669C28.0444 18.0379 29.3108 16.5655 29.3108 15.5138C25.3004 16.9862 17.4908 14.6724 16.8575 18.0379C16.6465 18.669 17.0686 19.7207 17.4908 20.1414C17.4908 19.931 17.9129 19.0897 18.9683 19.0897C24.4561 18.2483 29.0997 26.6621 24.8783 30.0276V30.2379H37.3316C37.3316 30.2379 37.5427 30.2379 37.3316 30.0276C33.1101 26.6621 37.7537 18.2483 43.2416 19.0897C44.297 19.3 44.7191 19.931 44.7191 20.1414C45.1413 19.7207 45.5634 18.669 45.3523 18.0379ZM46.6188 10.4655C46.6188 10.2552 49.7849 10.0448 49.7849 12.1483C49.7849 13.4103 47.8852 14.0414 47.8852 15.5138C47.8852 16.1448 48.5184 16.5655 48.7295 16.5655C48.3074 14.2517 50.207 15.5138 50.8402 15.9345C49.7849 12.9897 52.3177 12.9897 51.8956 11.5172C51.6845 10.4655 49.5738 10.8862 48.7295 10.2552C47.6741 9.41379 45.9856 6.04828 44.9302 9.41379C47.0409 11.3069 45.7745 14.0414 43.2416 14.0414V14.4621C46.1966 14.4621 47.252 12.1483 46.6188 10.4655ZM11.1586 15.9345C11.7918 15.5138 13.6914 14.2517 13.2693 16.5655C13.4804 16.5655 14.1136 16.1448 14.1136 15.5138C14.1136 14.0414 12.2139 13.4103 12.2139 12.1483C12.2139 10.0448 15.38 10.0448 15.38 10.4655C14.7468 12.1483 15.8022 14.4621 18.9683 14.6724V14.2517C16.4354 14.0414 15.169 11.3069 17.2797 9.41379C16.2243 6.04828 14.5357 9.41379 13.2693 10.4655C12.425 10.8862 10.3143 10.4655 10.1032 11.5172C9.89214 12.9897 12.2139 12.9897 11.1586 15.9345ZM19.8126 21.4034C20.8679 20.5621 22.1344 20.5621 22.9786 20.7724C22.5565 20.1414 21.2901 19.7207 20.8679 19.5103C20.6568 19.7207 19.8126 20.5621 19.8126 21.4034ZM32.4769 2.8931L30.9994 1L29.5219 2.8931L30.9994 4.78621L32.4769 2.8931ZM40.9198 8.15172L39.8645 6.88966L38.8091 8.15172L39.8645 9.41379L40.9198 8.15172ZM49.5738 45.3828L48.3074 43.9103L47.0409 45.3828L48.3074 46.6448L49.5738 45.3828ZM23.1897 8.15172L22.1344 6.88966L21.079 8.15172L22.1344 9.41379L23.1897 8.15172ZM20.2347 14.4621H24.2451C27.6222 14.4621 29.0997 12.3586 29.5219 10.6759H32.8991C33.3212 12.3586 34.7987 14.4621 38.1759 14.4621H42.1863C42.1863 14.4621 42.8195 13.6207 43.0305 12.9897C43.6638 11.3069 42.8195 10.4655 41.7641 10.4655L40.2866 11.7276L38.8091 10.4655C37.7537 10.4655 36.9094 11.3069 37.5427 12.9897C37.5427 13.2 37.7537 13.4103 37.9648 13.831C36.4873 13.6207 34.7987 12.7793 34.3766 10.6759C34.3766 10.6759 35.4319 8.9931 35.643 8.36207C36.2762 6.04828 35.0098 5.2069 33.3212 5.2069L30.9994 7.73103L28.8887 5.2069C27.2001 5.2069 25.9337 6.25862 26.989 8.57241C26.989 9.20345 28.0444 10.6759 28.0444 10.6759C27.6222 12.7793 25.9337 13.6207 24.4562 13.831C24.6672 13.6207 24.8783 13.2 24.8783 12.9897C25.5115 11.3069 24.6672 10.4655 23.6119 10.4655L22.1344 11.7276L20.6568 10.6759C19.6015 10.6759 18.7572 11.5172 19.3904 13.2C19.6015 13.6207 20.2347 14.4621 20.2347 14.4621ZM60.9717 26.6621C60.1274 27.0828 55.6949 29.1862 49.9959 28.3448C49.9959 28.1345 50.207 27.7138 50.207 27.5035C54.0063 27.0828 57.1724 26.4517 59.0721 25.4C61.3939 24.1379 62.2382 21.1931 61.1828 18.8793H60.9717C60.3385 19.5103 56.5392 23.7172 50.207 25.1897C50.207 24.769 50.207 24.5586 50.207 24.1379C53.162 22.4552 56.117 20.5621 57.5946 18.669C59.7053 15.9345 59.4942 12.569 57.5946 10.8862C56.9613 11.9379 51.0513 21.4034 44.5081 25.6103C44.5081 25.6103 44.297 25.6103 44.297 25.8207C44.0859 26.031 44.0859 26.2414 44.297 26.2414C45.1413 26.8724 45.5634 27.9241 45.5634 28.9759C45.5634 30.869 44.0859 32.3414 42.3973 32.5517C41.553 32.7621 40.0755 32.7621 38.8091 32.3414H38.598V38.0207C38.598 38.0207 38.8091 38.231 38.8091 38.0207C39.6534 35.9172 41.9752 35.4966 43.0305 35.4966C43.4527 37.8103 44.0859 39.7034 44.9302 40.5448C46.4077 42.2276 48.7295 42.2276 49.5738 40.9655C48.9406 40.5448 45.5634 38.6517 44.9302 35.2862C45.1413 35.2862 45.3523 35.0759 45.7745 34.8655C46.8299 36.7586 48.5184 38.231 49.7849 38.8621C51.8956 39.9138 53.7953 39.2828 54.8506 37.8103V37.6C53.5842 37.3897 49.3627 36.3379 47.6741 33.6035C47.8852 33.3931 48.0963 33.1828 48.3074 32.9724C50.207 34.4448 52.7399 35.4966 54.4285 35.7069C56.5392 35.9172 59.0721 35.2862 59.0721 32.7621C58.2278 32.7621 53.162 32.9724 49.5738 30.869C49.7849 30.6586 49.7849 30.4483 49.9959 30.2379C49.9959 30.2379 55.4838 31.5 58.0167 31.0793C59.9164 31.0793 61.3939 29.1862 60.9717 26.6621ZM12.8472 30.6586C13.0582 30.869 13.0582 31.0793 13.2693 31.2897C9.68106 33.3931 4.61532 33.1828 3.77103 33.1828C3.77103 35.7069 6.3039 36.3379 8.41463 36.1276C10.3143 35.9172 12.8472 34.6552 14.5357 33.3931C14.7468 33.6034 14.9579 33.8138 15.169 34.0241C13.4804 36.7586 9.46999 38.0207 7.99248 38.0207C7.99248 38.0207 7.99248 38.0207 7.99248 38.231C8.83677 39.7035 10.7364 40.1241 13.0582 39.2828C14.3247 38.6517 16.0132 37.1793 17.0686 35.2862C17.2797 35.4966 17.4908 35.4966 17.9129 35.7069C17.2797 39.0724 13.9025 41.1759 13.2693 41.3862C14.3247 42.4379 16.6465 42.4379 17.9129 40.9655C18.7572 39.9138 19.3904 38.0207 19.8126 35.9172C20.8679 35.9172 23.1897 36.3379 24.034 38.4414H24.2451V32.7621C24.2451 32.7621 24.2451 32.7621 24.034 32.7621C22.7676 33.1828 21.2901 33.1828 20.4458 32.9724C18.5461 32.5517 17.2797 31.0793 17.2797 29.3966C17.2797 28.3448 17.7018 27.5034 18.5461 26.6621C18.7572 26.4517 18.7572 26.2414 18.5461 26.2414C18.5461 26.2414 18.335 26.2414 18.335 26.031C11.7918 21.8241 5.88176 12.3586 5.24854 11.3069C5.24854 11.3069 5.24854 11.3069 5.03746 11.3069C3.13781 12.9897 2.92674 16.5655 5.03746 19.0897C6.51497 20.7724 9.25892 22.8759 12.425 24.5586C12.425 24.769 12.425 25.1897 12.425 25.6103C6.3039 24.3483 2.29352 20.1414 1.6603 19.3H1.44923C0.393866 21.6138 1.23816 24.5586 3.55996 25.8207C5.45961 26.8724 8.6257 27.5035 12.425 27.9241C12.425 28.1345 12.425 28.5552 12.6361 28.7655C6.93712 29.6069 2.50459 27.5034 1.6603 27.0828H1.44923C1.23816 29.3966 2.71567 31.2897 5.24854 31.7103C7.35926 31.9207 12.8472 30.6586 12.8472 30.6586ZM48.3074 48.3276L46.4077 46.8552C45.5634 47.2759 45.1413 48.1172 44.7191 48.9586C43.4527 49.169 40.2866 48.3276 40.4977 47.9069C44.0859 42.8586 41.342 39.9138 37.9648 40.1241V43.4897C37.9648 44.5414 37.1205 45.3828 35.8541 45.3828H33.5323C31.8437 45.3828 30.7883 47.0655 30.7883 47.0655C30.7883 47.0655 29.733 45.3828 28.0444 45.3828H25.7226C24.4561 45.3828 23.6119 44.5414 23.6119 43.4897V40.1241C20.2347 39.9138 17.7018 42.8586 21.079 47.9069C21.2901 48.3276 18.124 49.169 16.4354 48.9586C16.0132 48.5379 15.38 48.3276 14.7468 48.3276C14.5357 48.3276 14.1136 48.3276 13.9025 48.5379C13.9025 48.5379 7.78141 42.6483 7.57034 42.6483V42.4379C8.6257 41.5966 8.20355 40.9655 7.78141 40.9655C8.20355 40.5448 8.20355 38.4414 6.09283 38.0207C6.09283 38.4414 6.09283 39.2828 6.09283 39.2828C6.09283 39.2828 4.40425 38.4414 3.55996 39.0724C2.71567 39.9138 3.77103 41.5966 3.77103 41.5966C3.77103 41.5966 2.92674 41.5966 2.50459 41.5966C3.13781 43.7 5.24854 43.4897 5.67068 43.069C5.67068 43.4897 6.3039 43.9103 6.93712 43.4897L7.14819 43.2793L13.2693 48.9586C13.0582 49.3793 12.8472 49.8 13.0582 50.431C13.2693 51.4828 13.9025 52.1138 14.7468 52.3241C15.38 52.5345 16.0132 52.3241 16.4354 52.1138L18.124 53.5862C18.335 53.7966 18.5461 53.7966 18.7572 53.7966C19.1793 53.7966 19.3904 53.3759 19.3904 53.1655C19.3904 52.9552 19.3904 52.9552 19.1793 52.7448L17.4908 51.2724C18.7572 50.431 21.2901 49.8 23.1897 49.8C23.6119 49.8 23.6119 49.5897 23.6119 49.169C22.7676 47.0655 24.6672 45.3828 26.7779 46.6448C27.6222 47.2759 28.6776 48.3276 29.3108 50.2207C25.9337 51.0621 21.7122 53.1655 20.8679 55.6897C20.4458 56.531 21.7122 58.0035 22.9786 58.2138C23.6119 54.6379 27.6222 51.9035 29.5219 51.4828C29.5219 51.6931 29.5219 51.6931 29.733 51.9035C27.4112 52.9552 25.3004 55.0586 24.6672 57.7931C24.4561 59.0552 25.7226 60.1069 26.7779 60.3172H26.989C27.2001 56.9517 28.6776 54.2172 29.944 52.9552C29.944 53.1655 29.944 53.3759 29.944 53.7966C29.944 53.7966 28.6776 57.5828 28.6776 60.3172C28.6776 61.5793 30.5773 62.4207 30.7883 62.631C31.2105 62.4207 33.1101 61.5793 33.1101 60.3172C33.1101 57.5828 31.8437 53.7966 31.8437 53.7966C31.8437 53.5862 31.8437 53.3759 31.8437 52.9552C33.1101 54.2172 34.5876 57.1621 34.7987 60.3172C34.7987 60.3172 34.7987 60.3172 35.0098 60.3172C36.0651 60.1069 37.5427 58.8448 37.1205 57.7931C36.4873 55.269 34.3766 52.9552 32.0548 51.9035C32.0548 51.6931 32.0548 51.6931 32.2658 51.4828C34.3766 51.9035 38.1759 54.6379 38.8091 58.2138C40.0755 58.0035 41.1309 56.7414 40.9198 55.6897C40.0755 53.1655 35.8541 51.0621 32.4769 50.2207C33.1101 48.3276 34.1655 47.2759 35.0098 46.6448C37.1205 45.3828 39.0202 46.8552 38.1759 49.169C37.9648 49.3793 38.1759 49.8 38.598 49.8C40.9198 49.8 43.6638 50.6414 44.9302 51.6931C45.5634 52.7448 47.0409 53.3759 48.5184 53.3759C50.207 53.1655 51.6845 51.9035 51.6845 50.431C51.8956 48.9586 51.0513 47.9069 49.9959 47.0655L48.3074 48.3276ZM33.7433 38.231C34.3766 38.0207 35.643 38.231 35.4319 39.2828C35.4319 39.4931 35.643 39.4931 35.8541 39.2828C36.0651 37.8103 35.0098 37.3897 33.9544 37.6C33.7433 37.1793 33.7433 36.5483 33.5323 36.1276C33.5323 35.7069 33.3212 35.0759 33.7433 35.0759C33.9544 35.0759 33.9544 35.7069 33.9544 35.9172C33.9544 36.1276 33.9544 36.3379 34.1655 36.3379C34.3766 36.3379 34.3766 36.1276 34.5876 36.1276C35.2209 35.4966 35.4319 34.4448 34.5876 33.8138C33.9544 33.3931 32.4769 33.6035 32.0548 34.2345C32.0548 34.0241 31.6326 33.6034 31.6326 33.3931C31.4215 33.1828 31.4215 33.1828 31.6326 32.9724C31.6326 32.9724 32.0548 32.5517 32.0548 32.3414C32.0548 32.131 31.8437 31.9207 31.4215 31.9207C30.9994 31.9207 30.7883 32.131 30.7883 32.5517C30.7883 32.7621 30.7883 32.7621 30.7883 32.9724C30.5773 32.9724 29.944 32.9724 29.733 32.9724L33.7433 43.9103C34.7987 43.2793 35.643 42.4379 35.643 41.5966C35.643 40.7552 34.3766 40.9655 33.9544 41.5966C33.7433 40.5448 33.5323 39.7034 33.3212 38.6517C33.3212 38.4414 33.5323 38.4414 33.7433 38.231ZM28.0444 30.869L28.8887 33.1828C28.2555 33.3931 26.989 33.8138 26.989 34.6552C26.989 35.4966 28.6776 36.1276 29.5219 36.1276C29.5219 36.3379 29.5219 36.5483 29.733 36.7586C29.3108 36.7586 28.6776 36.969 28.4665 37.1793C28.0444 36.7586 27.2001 36.5483 26.7779 36.7586C26.3558 36.969 26.3558 37.6 26.7779 38.0207C26.989 38.4414 27.2001 38.8621 26.7779 39.2828C27.8333 39.2828 27.4112 37.8103 27.8333 37.8103C27.8333 38.0207 27.8333 38.4414 28.0444 38.8621C28.0444 39.0724 28.0444 39.2828 28.0444 39.4931C27.6222 40.1241 27.2001 41.3862 27.2001 42.6483C26.7779 42.6483 26.5669 42.6483 26.7779 42.0172C26.7779 41.8069 26.7779 41.5966 26.5669 42.0172C26.3558 42.2276 26.3558 42.6483 26.3558 42.8586C26.3558 43.9103 27.6222 44.1207 28.0444 43.9103C29.5219 45.3828 32.2658 44.9621 33.1101 44.5414L28.2555 31.0793C28.2555 30.6586 28.0444 30.6586 28.0444 30.869ZM27.8333 42.0172C27.8333 41.3862 28.4665 40.5448 29.5219 39.4931C29.3108 40.1241 29.5219 41.1759 29.944 41.5966C29.0997 41.5966 28.2555 41.8069 27.8333 42.0172Z" stroke="#870AB7" stroke-miterlimit="10"/>
</svg>
