<svg width="348" height="349" viewBox="0 0 348 349" fill="none" xmlns="http://www.w3.org/2000/svg">
<g opacity="0.2">
<g clip-path="url(#clip0)">
<path d="M137.573 311.717C61.7601 291.402 16.8433 213.604 37.0713 138.112C57.2994 62.6199 135.184 17.3819 210.997 37.6961C286.81 58.0102 331.727 135.808 311.413 211.622C291.099 287.435 213.066 331.945 137.573 311.717ZM209.276 44.1209C136.996 24.7536 62.8635 67.5539 43.4962 139.834C24.215 211.792 66.9292 286.246 139.209 305.613C211.489 324.98 285.621 282.18 304.988 209.9C324.034 137.534 281.234 63.4021 209.276 44.1209Z" fill="white"/>
<path d="M142.652 292.763C77.44 275.29 38.9588 208.168 56.3463 143.277C73.8199 78.0643 140.942 39.5831 205.833 56.9707C270.724 74.3582 309.526 141.566 292.139 206.457C274.751 271.348 207.544 310.151 142.652 292.763ZM205.23 59.2194C141.624 42.1761 75.7243 79.9518 58.595 143.879C41.5518 207.485 79.3275 273.385 143.255 290.515C207.182 307.644 272.761 269.782 289.89 205.855C307.019 141.927 268.836 76.2626 205.23 59.2194Z" fill="white"/>
<path d="M91.6094 195.42L237.133 234.413" stroke="white" stroke-width="0.5" stroke-miterlimit="10"/>
<path d="M113.043 115.43L258.566 154.423" stroke="white" stroke-width="0.5" stroke-miterlimit="10"/>
<path d="M120.844 131.293L112.839 161.168L106.093 159.361L112.634 134.946L106.531 133.311L107.994 127.85L120.844 131.293V131.293Z" fill="white"/>
<path d="M124.425 162.896C122.842 161.094 121.666 159.058 121.391 156.23C121.029 153.723 121.162 150.659 122.022 147.447C122.883 144.234 124.3 141.515 125.867 139.525C127.433 137.534 129.556 136.037 131.827 135.269C134.099 134.5 136.52 134.46 139.09 135.149C141.66 135.838 143.736 137.083 145.32 138.884C146.903 140.685 148.079 142.722 148.354 145.55C148.715 148.057 148.583 151.121 147.722 154.333C146.861 157.545 145.444 160.264 143.878 162.255C142.311 164.245 140.189 165.742 137.917 166.511C135.645 167.279 133.224 167.319 130.654 166.631C128.084 165.942 126.008 164.697 124.425 162.896ZM137.069 159.397C138.463 158.049 139.708 155.973 140.655 152.439C141.601 148.906 141.561 146.485 141.028 144.62C140.495 142.756 139.061 141.683 137.455 141.253C135.527 140.736 134.07 141.034 132.676 142.382C131.282 143.73 130.037 145.807 129.09 149.341C128.143 152.874 128.183 155.295 128.716 157.159C129.25 159.024 130.684 160.097 132.29 160.527C134.217 161.044 135.674 160.745 137.069 159.397Z" fill="white"/>
<path d="M195.693 151.349L187.688 181.224L180.942 179.417L187.398 155.323L177.118 152.569L175.161 158.586C174.042 162.763 172.453 166.124 171.443 168.608C170.112 171.006 168.953 172.761 167.237 174.023C165.522 175.285 163.744 175.497 161.174 174.808C160.21 174.55 159.246 174.292 157.726 173.54L159.597 167.844C159.918 167.93 160.153 168.337 160.796 168.509C162.402 168.94 163.945 168.32 165.104 166.565C166.263 164.81 167.445 161.683 168.799 157.915L172.391 145.793L195.521 151.991L195.693 151.349Z" fill="white"/>
<path d="M219.669 183.94L218.205 189.401L195.076 183.204L203.081 153.328L225.568 159.353L224.105 164.815L208.364 160.597L206.642 167.022L220.456 170.723L218.992 176.184L205.179 172.483L203.285 179.55L219.669 183.94V183.94Z" fill="white"/>
<path d="M252.931 172.883L243.294 170.301L236.838 194.394L230.092 192.586L236.548 168.493L226.911 165.911L228.46 160.128L254.481 167.101L252.931 172.883Z" fill="white"/>
<path d="M113.485 175.458L105.133 173.22L101.345 187.355L97.4905 186.322L102.139 168.975L114.346 172.246L113.485 175.458Z" fill="white"/>
<path d="M121.654 188.665L113.623 186.513L111.07 189.616L106.894 188.497L119.252 173.216L123.107 174.249L126.168 193.662L122.314 192.629L121.654 188.665ZM121.23 185.108L120.146 177.587L115.769 183.645L121.23 185.108Z" fill="white"/>
<path d="M144.371 180.98C145.163 181.88 145.954 182.781 146.338 183.917C146.723 185.053 146.786 186.103 146.441 187.388C146.097 188.673 145.518 189.55 144.617 190.342C143.716 191.133 142.58 191.518 141.444 191.902C140.309 192.286 138.702 191.856 137.417 191.511L133.884 190.565L132.593 195.383L128.738 194.35L133.386 177.003L140.774 178.983C142.294 179.735 143.579 180.079 144.371 180.98ZM141.02 188.345C141.835 187.875 142.328 187.318 142.586 186.355C142.845 185.391 142.696 184.662 142.225 183.848C141.755 183.033 140.791 182.775 139.506 182.431L136.294 181.57L134.658 187.673L137.871 188.534C139.242 188.557 140.292 188.494 141.02 188.345Z" fill="white"/>
<path d="M157.954 198.391L149.923 196.239L147.37 199.343L143.194 198.224L155.552 182.942L159.407 183.975L162.468 203.388L158.292 202.269L157.954 198.391ZM157.53 194.835L156.446 187.314L152.069 193.371L157.53 194.835Z" fill="white"/>
<path d="M185.34 191.269L180.691 208.616L176.837 207.583L178.73 200.515L171.02 198.45L169.127 205.517L165.272 204.484L169.92 187.137L173.775 188.17L171.967 194.916L179.677 196.982L181.485 190.236L185.34 191.269Z" fill="white"/>
<path d="M202.149 199.216L196.688 197.752L192.9 211.887L189.045 210.854L192.833 196.719L187.05 195.17L187.911 191.957L203.01 196.003L202.149 199.216Z" fill="white"/>
<path d="M205.257 196.605L209.112 197.638L206.185 208.561L217.55 199.555L221.405 200.588L216.757 217.935L212.902 216.902L215.915 205.659L204.55 214.664L200.695 213.631L205.257 196.605Z" fill="white"/>
<path d="M225.497 202.029L229.673 203.148L226.746 214.07L238.111 205.064L241.966 206.097L237.318 223.444L233.463 222.412L236.476 211.168L225.111 220.174L221.256 219.141L225.818 202.115L225.497 202.029Z" fill="white"/>
<path d="M88.9718 126.884L88.1341 128.726L92.2872 131.216L91.4495 133.057L81.2158 127.561L82.3748 125.805L86.5279 128.295L87.6868 126.54L84.9509 121.331L86.1959 119.254L88.9949 125.513L96.4296 124.751L95.1846 126.827L88.9718 126.884Z" fill="white"/>
<path d="M99.1618 115.842L95.8571 120.466L97.2681 122.91L96.1091 124.665L89.7596 113.667L90.9186 111.912L103.298 114.541L101.818 116.21L99.1618 115.842ZM97.5555 115.412L92.0083 114.27L94.8303 119.158L97.5555 115.412Z" fill="white"/>
<path d="M101.772 99.6707L110.267 107.8L108.787 109.469L105.448 106.509C105.19 107.473 104.525 108.672 103.71 109.142C102.723 110.255 101.587 110.639 100.451 111.023C99.4016 111.086 98.4378 110.828 97.325 109.841L94.543 107.374L96.0232 105.705L98.484 108.086C99.0404 108.579 99.6829 108.752 100.325 108.924C101.054 108.775 101.461 108.54 102.276 108.069C102.855 107.192 103.349 106.635 103.607 105.671L100.378 101.019L101.772 99.6707Z" fill="white"/>
<path d="M117.841 98.8117L118.867 100.12L112.241 105.575L104.968 96.7397L111.594 91.2847L112.621 92.5928L107.796 96.4646L109.614 98.6733L114.032 95.0367L115.059 96.3447L110.641 99.9814L112.695 102.597L117.841 98.8117Z" fill="white"/>
<path d="M122.385 97.2748C121.335 97.3378 120.371 97.0796 119.408 96.8214C118.444 96.5631 117.652 95.6624 117.182 94.8478C116.39 93.9471 116.327 92.8973 116.264 91.8475C116.201 90.7977 116.46 89.8339 117.039 88.9563C117.619 88.0786 118.198 87.201 119.42 86.4955C120.235 86.0251 121.049 85.5548 121.778 85.4057C122.506 85.2566 123.556 85.1936 124.113 85.687L123.596 87.6145C122.311 87.2702 121.261 87.3332 120.361 88.1247C119.546 88.5951 119.053 89.1515 118.881 89.794C118.387 90.3504 118.536 91.0789 118.364 91.7214C118.513 92.45 118.662 93.1786 119.219 93.672C119.689 94.4866 120.245 94.98 120.888 95.1521C121.53 95.3243 122.173 95.4965 122.815 95.6686C123.544 95.5195 124.272 95.3704 125.087 94.9001C126.309 94.1946 126.889 93.3169 126.912 91.9459L128.839 92.4624C128.667 93.1048 128.409 94.0686 127.915 94.625C127.422 95.1814 126.842 96.059 126.028 96.5294C124.571 96.8276 123.435 97.2118 122.385 97.2748Z" fill="white"/>
<path d="M134.123 80.4502L130.544 82.2455L134.753 90.9483L132.803 91.8029L128.593 83.1001L125.013 84.8953L124.073 83.266L132.775 79.0561L134.123 80.4502Z" fill="white"/>
<path d="M146.784 80.7439C147.34 81.2373 147.575 81.6446 147.724 82.3732C148.109 83.509 147.937 84.1515 147.357 85.0292C146.778 85.9068 145.963 86.3772 144.42 86.9966L139.876 88.5336L135.948 77.496L140.898 75.7238C142.034 75.3396 143.084 75.2766 144.048 75.5348C145.012 75.793 145.568 76.2864 145.631 77.3362C145.78 78.0648 146.015 78.4721 145.843 79.1146C145.671 79.7571 145.585 80.0783 145.091 80.6347C145.82 80.4856 146.463 80.6578 146.784 80.7439ZM139.67 81.5923L142.349 80.5886C143.078 80.4395 143.485 80.2044 143.657 79.5619C143.743 79.2406 143.916 78.5981 143.68 78.1908C143.445 77.7835 143.21 77.3762 142.889 77.2901C142.568 77.204 141.925 77.0319 141.111 77.5022L138.431 78.5059L139.67 81.5923ZM145.86 82.9065C145.476 81.7706 144.512 81.5124 142.969 82.1318L139.882 83.3706L141.035 86.7783L144.208 85.2182C145.665 84.92 146.244 84.0424 145.86 82.9065Z" fill="white"/>
<path d="M153.186 83.8363C152.222 83.5781 151.344 82.9986 150.553 82.0979C149.761 81.1972 149.291 80.3826 149.228 79.3328C149.165 78.2829 149.102 77.2331 149.36 76.2694C149.618 75.3057 150.198 74.428 151.098 73.6365C151.999 72.8449 152.814 72.3745 154.185 72.3976C155.556 72.4207 156.284 72.2716 157.569 72.6159C158.533 72.8741 159.411 73.4536 160.202 74.3543C160.994 75.255 161.464 76.0697 161.527 77.1195C161.911 78.2554 161.653 79.2191 161.395 80.1828C161.137 81.1465 160.557 82.0242 159.657 82.8158C158.756 83.6074 157.941 84.0777 156.57 84.0546C155.199 84.0316 154.149 84.0946 153.186 83.8363ZM157.987 81.3356C158.481 80.7792 158.974 80.2228 159.146 79.5803C159.318 78.9378 159.491 78.2953 159.342 77.5667C159.192 76.8382 159.043 76.1096 158.487 75.6162C157.931 75.1228 157.374 74.6294 156.732 74.4573C156.089 74.2851 155.447 74.113 154.718 74.2621C153.99 74.4111 153.261 74.5602 152.768 75.1166C152.274 75.6731 151.781 76.2295 151.609 76.8719C151.436 77.5144 151.264 78.1569 151.413 78.8855C151.563 79.614 151.712 80.3426 152.268 80.836C152.824 81.3294 153.381 81.8228 154.023 81.995C154.666 82.1671 155.308 82.3393 156.037 82.1902C156.765 82.0411 157.58 81.5707 157.987 81.3356Z" fill="white"/>
<path d="M176.937 72.2964L171.045 72.4393L171.205 82.1228L169.105 82.2488L168.819 70.4657L176.81 70.1968L176.937 72.2964Z" fill="white"/>
<path d="M184.232 79.7601L178.512 79.2606L177.095 81.9796L174.76 81.6983L180.836 70.587L182.85 70.7822L187.163 82.9557L184.828 82.6744L184.232 79.7601ZM183.612 78.2169L181.926 72.9448L179.264 77.7404L183.612 78.2169Z" fill="white"/>
<path d="M198.529 73.9505C199.085 74.4439 199.641 74.9373 199.791 75.6659C199.94 76.3945 200.089 77.123 199.83 78.0868C199.572 79.0505 199.4 79.693 198.907 80.2494C198.413 80.8058 197.685 80.9549 196.87 81.4252C196.142 81.5743 195.092 81.6373 194.128 81.3791L191.558 80.6905L191.019 83.989L189.091 83.4725L191.461 72.0568L196.045 72.9407C197.095 72.8777 197.651 73.3711 198.529 73.9505ZM196.83 79.0044C197.237 78.7692 197.731 78.2128 197.903 77.5703C198.075 76.9278 197.926 76.1992 197.691 75.7919C197.135 75.2985 196.578 74.8051 195.528 74.8681L192.958 74.1795L192.075 78.763L194.644 79.4516C195.373 79.3025 196.102 79.1534 196.83 79.0044Z" fill="white"/>
<path d="M207.854 85.4013L202.158 83.5306L200.184 85.7563L197.936 85.1537L206.645 75.7809L208.572 76.2973L209.65 88.9811L207.401 88.3785L207.854 85.4013ZM207.642 83.6229L207.092 77.9665L203.552 82.1827L207.642 83.6229Z" fill="white"/>
<path d="M225.789 84.0093L220.614 94.329L218.773 93.4913L221.028 88.9309L215.59 86.0965L213.335 90.657L211.493 89.8192L216.669 79.4995L218.51 80.3372L216.341 84.5764L221.779 87.4108L223.948 83.1716L225.789 84.0093Z" fill="white"/>
<path d="M235.568 92.4828L232.379 90.2509L226.756 98.385L225.001 97.226L230.623 89.092L227.434 86.8602L228.507 85.4261L236.641 91.0487L235.568 92.4828Z" fill="white"/>
<path d="M238.952 92.7009L240.622 94.1811L235.194 100.302L245.394 98.2144L246.742 99.6085L239.255 108.276L237.586 106.796L243.013 100.675L232.813 102.762L231.379 101.69L238.952 92.7009Z" fill="white"/>
<path d="M254.25 108.851C254.399 109.579 254.548 110.308 254.376 110.95C254.204 111.593 253.711 112.149 253.131 113.027C252.638 113.583 251.823 114.054 251.181 113.882C250.452 114.031 249.81 113.859 248.846 113.6C248.203 113.428 247.326 112.849 246.855 112.034L244.951 110.147L242.335 112.2L241.073 110.485L249.994 102.89L253.161 106.493C253.631 107.308 254.101 108.122 254.25 108.851ZM250.005 111.845C250.647 112.017 251.055 111.782 251.869 111.312C252.363 110.755 252.856 110.199 252.707 109.47C252.558 108.742 252.409 108.013 251.852 107.52L250.269 105.718L246.666 108.885L248.25 110.686C248.72 111.501 249.362 111.673 250.005 111.845Z" fill="white"/>
<path d="M250.337 120.886C250.274 119.836 250.533 118.873 250.791 117.909C251.37 117.031 251.95 116.154 252.851 115.362C253.751 114.57 254.801 114.507 255.851 114.444C256.901 114.381 257.864 114.64 258.742 115.219C259.62 115.799 260.497 116.378 261.203 117.6C261.994 118.501 262.379 119.637 262.442 120.686C262.505 121.736 262.247 122.7 261.988 123.664C261.409 124.541 260.829 125.419 259.929 126.211C259.028 127.002 257.978 127.065 256.928 127.128C255.878 127.191 254.915 126.933 254.037 126.353C253.159 125.774 252.282 125.195 251.576 123.973C250.785 123.072 250.4 121.936 250.337 120.886ZM254.554 124.426C255.196 124.598 255.839 124.77 256.481 124.942C257.21 124.793 257.938 124.644 258.432 124.088C259.246 123.618 259.74 123.061 259.912 122.419C260.084 121.776 260.256 121.134 260.428 120.491C260.279 119.763 260.13 119.034 259.574 118.541C259.103 117.726 258.547 117.233 257.904 117.06C257.262 116.888 256.619 116.716 255.977 116.544C255.248 116.693 254.52 116.842 254.026 117.399C253.212 117.869 252.718 118.425 252.546 119.068C252.374 119.71 252.202 120.353 252.03 120.995C251.858 121.638 252.328 122.452 252.884 122.946C253.441 123.439 253.911 124.254 254.554 124.426Z" fill="white"/>
<path d="M264.5 137.42C264.327 138.063 263.92 138.298 263.105 138.768C262.291 139.239 261.241 139.302 260.363 138.722C259.486 138.143 258.694 137.242 258.31 136.106L255.895 130.983L266.549 125.919L268.728 130.634C269.434 131.856 269.497 132.906 269.238 133.87C268.98 134.833 268.487 135.39 267.672 135.86C267.265 136.095 266.536 136.244 266.215 136.158C265.572 135.986 265.251 135.9 264.695 135.407C264.844 136.135 264.672 136.778 264.5 137.42ZM262.337 136.497C263.473 136.112 263.41 135.062 262.79 133.519L261.552 130.433L258.379 131.993L259.618 135.079C260.559 136.709 261.115 137.202 262.337 136.497ZM263.009 130.135L264.334 132.9C264.483 133.628 265.039 134.122 265.36 134.208C265.682 134.294 266.324 134.466 266.731 134.231C267.139 133.996 267.546 133.761 267.718 133.118C267.804 132.797 267.655 132.068 267.42 131.661L266.095 128.896L263.009 130.135Z" fill="white"/>
<path d="M266.007 148.498L264.407 142.904L261.43 142.451L260.575 140.5L273.299 141.844L273.832 143.708L264.332 152.18L263.563 149.909L266.007 148.498ZM267.315 147.471L271.412 143.748L266.013 143.335L267.315 147.471Z" fill="white"/>
<path d="M277.795 162.33L266.224 164.394L265.776 162.208L270.79 161.486L270.005 155.422L264.991 156.145L264.544 153.959L276.115 151.895L276.562 154.08L271.869 154.889L273.062 160.717L277.755 159.909L277.795 162.33Z" fill="white"/>
<path d="M267.353 169.173C267.933 168.295 268.512 167.417 269.327 166.947C270.141 166.477 271.277 166.092 272.327 166.029C273.377 165.966 274.341 166.224 275.54 166.89C276.417 167.47 277.295 168.049 277.679 169.185C278.15 170 278.534 171.135 278.511 172.506C278.488 173.878 278.229 174.841 277.65 175.719C277.07 176.597 276.491 177.474 275.676 177.945C274.862 178.415 273.726 178.799 272.676 178.862C271.626 178.925 270.662 178.667 269.464 178.001C268.265 177.336 267.708 176.842 267.324 175.707C266.94 174.571 266.469 173.756 266.493 172.385C266.429 171.335 266.774 170.05 267.353 169.173ZM269.039 174.445C269.596 174.938 269.831 175.345 270.387 175.839C271.03 176.011 271.672 176.183 272.636 176.441C273.6 176.699 274.093 176.143 274.822 175.994C275.636 175.524 276.044 175.289 276.216 174.646C276.388 174.004 276.56 173.361 276.732 172.719C276.583 171.99 276.434 171.261 276.285 170.533C275.729 170.039 275.493 169.632 274.937 169.139C274.295 168.967 273.652 168.794 272.688 168.536C271.96 168.685 271.231 168.834 270.503 168.983C269.688 169.454 269.281 169.689 269.109 170.331C268.936 170.974 268.764 171.616 268.592 172.259C268.655 173.309 268.804 174.037 269.039 174.445Z" fill="white"/>
<path d="M86.3002 228.084L93.1386 224.407L85.6408 224.119L85.1705 223.305L88.9056 217.075L82.0672 220.752L81.1265 219.122L91.2235 213.565L92.1641 215.194L87.6774 222.944L96.5462 223.254L97.4869 224.883L87.39 230.441L86.3002 228.084Z" fill="white"/>
<path d="M96.4406 239.064L95.1325 240.091L89.7637 233.143L99.2412 226.042L104.289 232.904L102.981 233.93L99.1951 228.784L96.579 230.838L99.8944 235.169L98.5863 236.196L95.2709 231.865L92.6549 233.918L96.4406 239.064Z" fill="white"/>
<path d="M105.551 234.619L111.735 241.096L110.34 242.444L105.505 237.361L103.617 239.265L106.078 241.646C107.191 242.633 107.575 243.769 107.724 244.498C107.787 245.547 107.615 246.19 106.714 246.981C105.814 247.773 104.999 248.243 104.035 247.985C103.072 247.727 102.194 247.147 101.081 246.161L97.5936 242.472L105.551 234.619ZM101.982 245.369C102.538 245.862 103.095 246.356 103.737 246.528C104.38 246.7 104.787 246.465 105.28 245.909C106.181 245.117 106.118 244.067 104.77 242.673L102.631 240.378L99.9284 242.753L101.982 245.369Z" fill="white"/>
<path d="M114.31 255.903L113.237 257.337L106.388 252.059L113.64 242.984L120.168 248.176L119.095 249.61L114.322 245.577L112.349 247.803L116.565 251.343L115.492 252.777L111.276 249.237L109.216 251.784L114.31 255.903Z" fill="white"/>
<path d="M130.464 254.722L124.325 264.784L122.57 263.625L127.55 255.319L123.718 252.915L122.066 255.226C120.993 256.66 120.413 257.538 119.513 258.33C118.933 259.207 118.119 259.678 117.39 259.827C116.661 259.976 116.019 259.804 115.376 259.632C115.055 259.546 114.82 259.138 114.499 259.052L115.572 257.618C115.572 257.618 115.893 257.704 115.807 258.025C116.363 258.519 117.092 258.37 117.585 257.813C118.4 257.343 119.065 256.144 120.052 255.031L122.863 250.964L130.464 254.722Z" fill="white"/>
<path d="M138.701 263.816C139.171 264.63 139.234 265.68 138.569 266.879C137.903 268.078 137.324 268.955 136.274 269.018C135.138 269.403 134.174 269.145 132.654 268.393L128.008 266.459L132.948 255.732L134.789 256.57L133.114 260.253L136.154 261.756C137.439 262.1 138.231 263.001 138.701 263.816ZM135.333 267.389C136.062 267.24 136.234 266.598 136.727 266.041C137.393 264.842 136.688 263.62 135.167 262.869L132.684 261.859L130.922 265.863L133.406 266.873C133.962 267.366 134.605 267.538 135.333 267.389Z" fill="white"/>
<path d="M157.488 264.374L154.796 275.703L152.548 275.101L153.839 270.282L148.056 268.733L146.765 273.551L144.838 273.035L147.529 261.705L149.457 262.222L148.252 266.719L154.034 268.268L155.239 263.771L157.488 264.374Z" fill="white"/>
<path d="M166.837 274.454L161.118 273.954L159.701 276.673L157.366 276.392L163.763 265.367L165.777 265.562L169.768 277.649L167.433 277.368L166.837 274.454ZM166.304 272.589L164.618 267.317L161.955 272.113L166.304 272.589Z" fill="white"/>
<path d="M184.793 271.69C185.35 272.183 185.585 272.591 185.413 273.233C185.562 273.962 185.39 274.604 184.896 275.161C184.403 275.717 183.909 276.274 183.181 276.423C182.452 276.572 181.638 277.042 180.588 277.105C179.859 277.254 178.896 276.996 178.253 276.824C177.611 276.652 176.647 276.393 176.09 275.9L176.521 274.294C177.163 274.466 177.72 274.959 178.362 275.131C179.005 275.304 179.647 275.476 180.376 275.327C181.104 275.178 181.833 275.029 182.648 274.558C183.141 274.002 183.548 273.767 183.399 273.038C183.485 272.717 183.25 272.309 182.694 271.816C182.372 271.73 181.73 271.558 181.001 271.707L178.173 271.982L177.961 270.204L180.382 270.164C181.11 270.015 181.432 270.101 181.925 269.544C182.419 268.988 182.419 268.988 182.591 268.345C182.356 267.938 182.12 267.531 181.478 267.359C180.835 267.186 180.193 267.014 179.464 267.163C179.057 267.399 178.414 267.226 178.007 267.462C177.6 267.697 176.871 267.846 176.464 268.081L175.523 266.452C176.017 265.895 176.745 265.746 177.474 265.597C178.202 265.448 178.931 265.299 179.338 265.064C180.067 264.915 181.031 265.173 181.673 265.345C182.316 265.517 182.872 266.011 183.428 266.504C183.985 266.997 184.22 267.405 184.369 268.133C184.518 268.862 184.432 269.183 183.939 269.74C183.445 270.296 183.359 270.617 182.631 270.766C183.594 271.025 184.237 271.197 184.793 271.69Z" fill="white"/>
<path d="M195.998 272.282L190.255 273.154L189.481 276.045L187.295 276.492L190.245 264.199L192.43 263.752L199.916 274.365L197.73 274.812L195.998 272.282ZM195.057 270.653L191.828 266L190.686 271.547L195.057 270.653Z" fill="white"/>
<path d="M204.872 267.429L202.922 268.284L204.459 272.828L202.508 273.682L198.901 262.731L200.851 261.876L202.388 266.42L204.66 265.651L206.21 259.869L208.481 259.1L206.352 265.76L212.089 270.052L209.817 270.82L204.872 267.429Z" fill="white"/>
<path d="M219.701 263.484L214.578 265.899L214.853 268.727L212.903 269.581L212.554 256.749L214.505 255.894L224.371 264.047L222.42 264.901L219.701 263.484ZM218.267 262.411L214.051 258.871L214.28 264.441L218.267 262.411Z" fill="white"/>
<path d="M230.339 254.628C230.982 254.8 231.538 255.293 231.773 255.701C232.33 256.194 232.157 256.837 232.307 257.565C232.134 258.208 231.962 258.85 231.469 259.406C230.975 259.963 230.482 260.519 229.667 260.99C228.853 261.46 228.445 261.695 227.631 262.165C226.902 262.315 226.174 262.464 225.124 262.527L224.504 260.983C225.147 261.156 225.875 261.007 226.283 260.771C227.011 260.622 227.419 260.387 227.912 259.831C228.727 259.36 229.22 258.804 229.392 258.161C229.564 257.519 229.737 256.876 229.501 256.469C229.266 256.062 228.945 255.976 228.303 255.804C227.66 255.631 227.253 255.867 226.759 256.423L224.551 258.241L223.524 256.933L225.647 255.436C226.054 255.201 226.547 254.645 226.633 254.323C226.719 254.002 226.805 253.681 226.57 253.274C226.335 252.866 225.693 252.694 225.371 252.608C224.729 252.436 224.235 252.992 223.507 253.141C223.1 253.377 222.606 253.933 222.199 254.168C221.706 254.725 221.619 255.046 221.126 255.602L219.692 254.529C219.864 253.887 220.358 253.33 220.851 252.774C221.344 252.218 221.752 251.982 222.566 251.512C223.381 251.042 224.109 250.893 224.838 250.744C225.567 250.595 226.295 250.445 226.938 250.618C227.58 250.79 228.137 251.283 228.372 251.69C228.607 252.098 228.756 252.826 228.67 253.148C228.498 253.79 228.412 254.111 228.24 254.754C228.968 254.605 229.697 254.456 230.339 254.628Z" fill="white"/>
<path d="M193.351 103.551L194.223 109.293L199.512 111.399L194.624 114.221L194.124 119.941L189.994 116.08L184.487 117.358L186.593 112.069L183.771 107.181L189.404 108.002L193.351 103.551Z" fill="white"/>
<path d="M159.265 230.763L160.137 236.506L165.426 238.612L160.538 241.434L160.038 247.153L155.908 243.292L150.401 244.571L152.507 239.282L149.685 234.394L155.318 235.215L159.265 230.763Z" fill="white"/>
</g>
</g>
<defs>
<clipPath id="clip0">
<rect x="73.8262" y="0.941223" width="283.687" height="283.687" transform="rotate(15 73.8262 0.941223)" fill="white"/>
</clipPath>
</defs>
</svg>
