<svg width="70" height="70" viewBox="0 0 70 70" fill="none" xmlns="http://www.w3.org/2000/svg">
<path d="M0 0V70H70V0H0ZM16.8889 65.7361C16.3472 66.1667 15.5972 66.375 14.6528 66.375C13.6944 66.375 12.9167 66.2222 12.3056 65.9306V64.625C12.6944 64.8056 13.0972 64.9445 13.5278 65.0556C13.9583 65.1528 14.3611 65.2083 14.7361 65.2083C15.2778 65.2083 15.6806 65.1111 15.9444 64.9028C16.2083 64.6944 16.3333 64.4167 16.3333 64.0694C16.3333 63.75 16.2083 63.4861 15.9722 63.2639C15.7361 63.0417 15.2361 62.7917 14.5 62.4861C13.7361 62.1806 13.1944 61.8195 12.875 61.4167C12.5556 61.0139 12.4028 60.5417 12.4028 59.9722C12.4028 59.2639 12.6528 58.7222 13.1528 58.3056C13.6528 57.9028 14.3194 57.6944 15.1667 57.6944C15.9722 57.6944 16.7778 57.875 17.5694 58.2222L17.125 59.3472C16.375 59.0278 15.7083 58.875 15.125 58.875C14.6806 58.875 14.3472 58.9722 14.1111 59.1667C13.875 59.3611 13.7639 59.6111 13.7639 59.9306C13.7639 60.1528 13.8056 60.3333 13.9028 60.4861C14 60.6389 14.1528 60.7917 14.3611 60.9306C14.5694 61.0695 14.9583 61.25 15.5 61.4722C16.125 61.7361 16.5694 61.9722 16.8611 62.1944C17.1528 62.4167 17.3611 62.6667 17.5 62.9445C17.6389 63.2222 17.7083 63.5556 17.7083 63.9306C17.7083 64.7222 17.4306 65.3194 16.8889 65.7361ZM24.2222 59H20.8333V61.2917H24.0139V62.4444H20.8333V65.0972H24.2222V66.2639H19.4583V57.8333H24.2222V59ZM30.9167 66.2639L28.9028 62.9028H27.5417V66.2639H26.1667V57.8333H28.5417C29.625 57.8333 30.4306 58.0417 30.9583 58.4444C31.4861 58.8472 31.7361 59.4722 31.7361 60.2917C31.7361 61.3472 31.1944 62.0833 30.0972 62.5278L32.4722 66.2639H30.9167ZM37.1111 66.2639H35.6528L32.7083 57.8333H34.125L35.8889 63.0694C35.9861 63.3194 36.0833 63.6389 36.1806 64.0417C36.2778 64.4306 36.3472 64.7222 36.3889 64.9167C36.4444 64.625 36.5139 64.2917 36.625 63.9028C36.7222 63.5139 36.8194 63.2361 36.875 63.0556L38.6389 57.8333H40.0694L37.1111 66.2639ZM42.6667 66.2639H41.2917V57.8333H42.6667V66.2639ZM46.6944 64.4167C47.125 64.9444 47.7639 65.2083 48.5833 65.2083C48.9444 65.2083 49.2917 65.1667 49.625 65.0972C49.9583 65.0278 50.3056 64.9306 50.6667 64.8195V66C50 66.25 49.25 66.375 48.4167 66.375C47.1806 66.375 46.2361 66 45.5694 65.25C44.9028 64.5 44.5833 63.4306 44.5833 62.0417C44.5833 61.1667 44.75 60.4028 45.0694 59.7361C45.3889 59.0833 45.8611 58.5695 46.4583 58.2222C47.0694 57.875 47.7778 57.6944 48.5972 57.6944C49.4583 57.6944 50.25 57.875 50.9861 58.2361L50.4861 59.3889C50.2083 59.25 49.9028 59.1389 49.5833 59.0278C49.2639 58.9306 48.9306 58.875 48.5833 58.875C47.7917 58.875 47.1667 59.1528 46.7222 59.7222C46.2639 60.2778 46.0417 61.0556 46.0417 62.0417C46.0417 63.0972 46.2639 63.875 46.6944 64.4167ZM57.375 59H53.9861V61.2917H57.1667V62.4444H53.9861V65.0972H57.375V66.2639H52.6111V57.8333H57.375V59ZM69.6667 55.7361H0.305556V0.333333H69.6667V55.7361ZM27.1528 14.25C27.5833 14.25 27.9722 14.2222 28.3056 14.1528C28.6389 14.0833 28.9722 13.9722 29.3056 13.8194V12.7222C28.9306 12.8889 28.5833 13 28.2639 13.0833C27.9444 13.1528 27.5833 13.1944 27.2083 13.1944C26.6389 13.1944 26.1944 13.0278 25.875 12.6944C25.5556 12.3611 25.3889 11.8889 25.375 11.2639H29.625V10.5278C29.625 9.63889 29.375 8.93056 28.8889 8.41667C28.4028 7.90278 27.7361 7.65278 26.8889 7.65278C25.9861 7.65278 25.2639 7.94444 24.75 8.54167C24.2361 9.13889 23.9722 9.95833 23.9722 11C23.9722 12.0139 24.25 12.8056 24.8056 13.3889C25.375 13.9583 26.1528 14.25 27.1528 14.25ZM25.8611 9.08333C26.125 8.80556 26.4722 8.68056 26.9028 8.68056C27.3333 8.68056 27.6667 8.81944 27.9167 9.08333C28.1667 9.36111 28.2917 9.75 28.2917 10.2778H25.4028C25.4444 9.75 25.6111 9.34722 25.8611 9.08333ZM30.3194 60.3472C30.3194 60.8194 30.1806 61.1667 29.8889 61.4028C29.5972 61.6389 29.1389 61.7639 28.5 61.7639H27.5417V59.0139H28.4583C29.0833 59.0139 29.5556 59.1111 29.8611 59.3194C30.1667 59.5278 30.3194 59.8611 30.3194 60.3472ZM12.7222 28.4028H8.73611V16.4306H11.375V19.3056L19.3611 21.6111V28.4167H15.375V24.6528H12.7222V28.4028ZM33.5556 22.2917C33.0972 22.6528 32.75 23.125 32.5139 23.6667C32.3333 24.0972 32.2361 24.5694 32.2361 25.0417C32.2361 25.5 32.3194 25.9722 32.5 26.4028C32.6806 26.8333 32.9306 27.2222 33.2639 27.5556C33.5833 27.875 33.9722 28.125 34.3889 28.3056C35.2778 28.6806 36.2778 28.6806 37.1667 28.3056C37.5833 28.125 37.9722 27.875 38.2917 27.5556C38.625 27.2222 38.875 26.8333 39.0556 26.4028C39.2361 25.9722 39.3194 25.5139 39.3194 25.0417C39.3194 24.5694 39.2361 24.0972 39.0417 23.6667C38.8611 23.25 38.6111 22.875 38.2917 22.5417C37.875 22.125 37.375 21.8194 36.8194 21.6528C36.2639 21.4861 35.6806 21.4444 35.0972 21.5556C34.5417 21.6667 34 21.9167 33.5556 22.2917ZM36.6111 23.0694C36.8472 23.1667 37.0556 23.3194 37.2361 23.5C37.4167 23.6944 37.5417 23.9167 37.625 24.1667C37.8194 24.7222 37.8194 25.3333 37.625 25.8889C37.5417 26.1389 37.4028 26.3611 37.2361 26.5556C37.0556 26.7361 36.8472 26.8889 36.6111 26.9861C36.0833 27.1944 35.4861 27.1944 34.9583 26.9861C34.7222 26.8889 34.5139 26.7361 34.3333 26.5556C34.1528 26.3611 34.0278 26.1389 33.9444 25.8889C33.75 25.3333 33.75 24.7222 33.9444 24.1667C34.0278 23.9167 34.1667 23.6944 34.3333 23.5C34.5139 23.3194 34.7222 23.1667 34.9583 23.0694C35.4861 22.8611 36.0833 22.8611 36.6111 23.0694ZM21.9583 13.4861C22.4861 13.0556 22.75 12.4583 22.75 11.7083C22.75 11.1528 22.6111 10.7083 22.3333 10.375C22.0556 10.0417 21.625 9.83333 21.0278 9.70833V9.65278C21.5 9.56944 21.875 9.36111 22.125 9.04167C22.375 8.70833 22.5 8.30556 22.5 7.81944C22.5 7.08333 22.2361 6.55556 21.7222 6.22222C21.2083 5.88889 20.3611 5.70833 19.2083 5.70833H16.7083V14.1389H19.75C20.6944 14.1389 21.4306 13.9167 21.9583 13.4861ZM18.0833 6.86111H19.2778C19.9028 6.86111 20.3611 6.94444 20.6389 7.125C20.9306 7.30556 21.0694 7.58333 21.0694 7.98611C21.0694 8.43056 20.9306 8.73611 20.6667 8.91667C20.4028 9.09722 19.9861 9.19444 19.4028 9.19444H18.0833V6.86111ZM18.0833 12.9722V10.3056H19.4722C20.0833 10.3056 20.5417 10.4167 20.8333 10.625C21.1389 10.8333 21.2778 11.1667 21.2778 11.5972C21.2778 12.0694 21.125 12.4167 20.8333 12.6389C20.5417 12.8611 20.0972 12.9722 19.5278 12.9722H18.0833ZM40.9167 25.5V21.6667H42.3889V25.3472C42.3889 25.5556 42.4167 25.7639 42.4722 25.9722C42.5278 26.1806 42.625 26.375 42.75 26.5417C42.8889 26.7222 43.0556 26.8611 43.25 26.9583C43.4861 27.0694 43.75 27.125 44.0139 27.125C44.2778 27.125 44.5417 27.0694 44.7778 26.9583C44.9722 26.8611 45.1389 26.7083 45.2778 26.5417C45.4028 26.375 45.5 26.1806 45.5556 25.9722C45.6111 25.7639 45.6389 25.5556 45.6389 25.3472V21.6806H47.1111V25.4861C47.1111 26.4583 46.7917 27.75 45.2361 28.3333C44.4444 28.625 43.5833 28.625 42.7917 28.3333C41.5556 27.875 40.9167 26.9306 40.9167 25.5ZM37.0417 8.77778H36.1667V8.18056L37.0972 7.68056L37.5556 6.33333H38.3889V7.75H40.2083V8.77778H38.3889V12.1944C38.3889 12.5278 38.4722 12.7639 38.6389 12.9167C38.8056 13.0694 39.0139 13.1528 39.2778 13.1528C39.6111 13.1528 39.9444 13.0972 40.2639 13V14.0139C40.1111 14.0833 39.9167 14.1389 39.6806 14.1806C39.4444 14.2222 39.1944 14.25 38.9444 14.25C37.6667 14.25 37.0139 13.5694 37.0139 12.2222V8.77778H37.0417ZM31.1528 10.4722C30.8889 10.1944 30.7639 9.81944 30.7639 9.36111C30.7639 8.81944 30.9861 8.38889 31.4306 8.08333C31.875 7.77778 32.4722 7.625 33.2222 7.625C33.9722 7.625 34.6806 7.77778 35.3472 8.08333L34.9028 9.09722C34.2083 8.81944 33.6389 8.66667 33.1667 8.66667C32.4583 8.66667 32.0972 8.875 32.0972 9.27778C32.0972 9.47222 32.1944 9.65278 32.375 9.79167C32.5556 9.93056 32.9722 10.125 33.5972 10.3611C34.125 10.5694 34.5 10.75 34.75 10.9167C34.9861 11.0833 35.1667 11.2778 35.2778 11.5C35.3889 11.7222 35.4444 11.9861 35.4444 12.2917C35.4444 12.9167 35.2222 13.3889 34.7639 13.7222C34.3056 14.0556 33.6667 14.2222 32.8194 14.2222C31.9722 14.2222 31.2917 14.0972 30.7778 13.8333V12.6667C31.5278 13.0139 32.2222 13.1806 32.875 13.1806C33.7083 13.1806 34.125 12.9306 34.125 12.4306C34.125 12.2639 34.0833 12.1389 33.9861 12.0278C33.8889 11.9167 33.7361 11.8056 33.5278 11.6944C33.3194 11.5833 33.0278 11.4444 32.6389 11.3056C31.9028 11.0417 31.4028 10.7639 31.1528 10.4722ZM45.6667 13.8472C46.125 14.1111 46.6528 14.25 47.25 14.25C48.2083 14.25 48.9444 13.9583 49.4861 13.375C50.0139 12.7917 50.2917 11.9722 50.2917 10.9306C50.2917 9.93056 50.0278 9.125 49.4861 8.52778C48.9444 7.93056 48.2222 7.63889 47.2917 7.63889C46.3333 7.63889 45.5833 7.93056 45.0556 8.51389C44.5278 9.09722 44.2639 9.90278 44.2639 10.9306C44.2639 11.5972 44.3889 12.1806 44.6389 12.6806C44.8472 13.1944 45.2083 13.5694 45.6667 13.8472ZM46.0139 9.31944C46.2639 8.94444 46.6806 8.75 47.25 8.75C48.3333 8.75 48.875 9.47222 48.875 10.9306C48.875 12.4028 48.3333 13.1389 47.2639 13.1389C46.1806 13.1389 45.6389 12.4028 45.6389 10.9306C45.6389 10.2361 45.7639 9.69444 46.0139 9.31944ZM29.125 21.7361C30.1528 22.1667 30.7361 23.1111 30.7361 24.3333V28.4028H29.2639V24.8194C29.2639 23.9722 28.8333 23 27.6389 23C26.3333 23 26.1389 24.1389 26.1389 24.8194V28.4028H24.6528V19.3056H26.1389V22.1389C26.9306 21.5 28.1389 21.3333 29.125 21.7361ZM61.4028 28.4028H55.8194V27.125L59.3056 23.0139H55.9306V21.6806H61.2083V22.9583L57.6944 27.0833H61.4028V28.4028ZM52.1111 8.77778H51.0556V8.13889L52.1111 7.72222V7.30556C52.1111 6.55556 52.2917 6 52.6389 5.625C52.9861 5.26389 53.5278 5.08333 54.2639 5.08333C54.7361 5.08333 55.2083 5.16667 55.6667 5.31944L55.3056 6.34722C54.9722 6.23611 54.6528 6.18056 54.3472 6.18056C54.0417 6.18056 53.8194 6.27778 53.6806 6.47222C53.5417 6.66667 53.4722 6.94444 53.4722 7.33333V7.75H55.0278V8.77778H53.4722V14.125H52.1111V8.77778ZM48.8194 27.125L52.3056 23.0139H48.9306V21.6806H54.2083V22.9583L50.6944 27.0833H54.4028V28.4167H48.8194V27.125ZM14.2778 48.9028H23.2222V50H12.75V49L17.1944 44.3611C18.4444 43.0694 19.3194 42.0694 19.8194 41.3889C20.3194 40.7083 20.6944 40.0417 20.9306 39.4167C21.1667 38.7917 21.2917 38.1389 21.2917 37.4444C21.2917 36.4444 20.9583 35.6389 20.3056 35.0139C19.6528 34.3889 18.8056 34.0694 17.75 34.0694C16.3611 34.0694 15.0139 34.5833 13.75 35.5972L13.1389 34.8056C14.5278 33.625 16.0833 33.0417 17.7778 33.0417C19.2361 33.0417 20.375 33.4306 21.2083 34.2083C22.0417 34.9861 22.4583 36.0556 22.4583 37.4167C22.4583 38.5278 22.1806 39.5972 21.6111 40.625C21.0556 41.6528 20.0278 42.9306 18.5417 44.4444L14.25 48.8472V48.9028H14.2778ZM29.8472 33.0278C28.0417 33.0278 26.7083 33.7361 25.8333 35.1389C24.9583 36.5417 24.5139 38.6944 24.5139 41.6111C24.5139 44.4583 24.9722 46.6111 25.875 48.0694C26.7778 49.5278 28.1111 50.25 29.8611 50.25C31.6806 50.25 33.0278 49.5417 33.9306 48.1389C34.8333 46.7222 35.2778 44.5556 35.2778 41.625C35.2778 38.8056 34.8194 36.6806 33.8889 35.2222C32.9583 33.75 31.6111 33.0278 29.8472 33.0278ZM33 47.2917C32.3472 48.5694 31.2917 49.2083 29.8472 49.2083C28.4722 49.2083 27.4444 48.5833 26.7639 47.3472C26.0833 46.1111 25.75 44.1944 25.75 41.5972C25.75 39.125 26.0694 37.25 26.7222 35.9722C27.375 34.6944 28.4167 34.0556 29.8611 34.0556C31.3056 34.0556 32.3472 34.6944 33.0139 35.9722C33.6667 37.25 34 39.125 34 41.5972C33.9861 44.1111 33.6528 46 33 47.2917ZM41.7361 33.2917H42.7222V50.0139H41.5972V37.8333C41.5972 36.7222 41.6389 35.5833 41.7361 34.3889C41.625 34.5 41.5 34.6111 41.375 34.7222C41.25 34.8333 40.0694 35.75 37.8472 37.5L37.1944 36.6944L41.7361 33.2917ZM54.6111 41.1111C55.8195 40.5556 56.6806 39.9444 57.2222 39.2917C57.7639 38.6389 58.0278 37.875 58.0278 37.0278C58.0278 35.7917 57.5972 34.8194 56.7361 34.0833C55.875 33.3611 54.7222 33 53.3056 33C52.4167 33 51.5972 33.1667 50.875 33.4861C50.1528 33.8194 49.5833 34.2778 49.1806 34.8889C48.7778 35.5 48.5694 36.1944 48.5694 37C48.5694 37.9028 48.8194 38.6667 49.3194 39.3194C49.8194 39.9722 50.6944 40.5694 51.9167 41.1528C50.5833 41.6806 49.6111 42.3333 48.9722 43.0833C48.3333 43.8333 48.0278 44.7083 48.0278 45.7083C48.0278 47.1806 48.4722 48.3056 49.375 49.0694C50.2778 49.8333 51.5694 50.2222 53.25 50.2222C54.875 50.2222 56.1667 49.8056 57.1389 48.9861C58.0972 48.1667 58.5833 47.0556 58.5833 45.6806C58.5833 44.6528 58.2917 43.7917 57.6944 43.0694C57.1111 42.375 56.0833 41.7083 54.6111 41.1111ZM51.125 39.5278C50.6667 39.1944 50.3194 38.8194 50.0833 38.4167C49.8472 38.0139 49.7222 37.5417 49.7222 37C49.7222 36.0833 50.0417 35.3472 50.6944 34.8194C51.3472 34.2917 52.2083 34.0278 53.2917 34.0278C54.4028 34.0278 55.2778 34.2917 55.9306 34.8333C56.5695 35.3611 56.9028 36.0972 56.9028 37C56.9028 37.8194 56.6389 38.5139 56.0972 39.0972C55.5556 39.6806 54.6667 40.2083 53.4167 40.6806C52.3333 40.25 51.5694 39.8611 51.125 39.5278ZM56.2917 48.2917C55.5278 48.9028 54.5278 49.2083 53.2778 49.2083C52 49.2083 51 48.9167 50.2917 48.3333C49.5833 47.75 49.2222 46.9444 49.2222 45.8889C49.2222 44.9028 49.5139 44.0694 50.0972 43.4167C50.6806 42.7639 51.6806 42.1667 53.0833 41.625C54.7917 42.2778 55.9444 42.8889 56.5417 43.4861C57.1389 44.0833 57.4444 44.8472 57.4444 45.7917C57.4306 46.8333 57.0417 47.6667 56.2917 48.2917Z" fill="#212121"/>
</svg>
