<svg width="70" height="70" viewBox="0 0 70 70" fill="none" xmlns="http://www.w3.org/2000/svg">
<path d="M29.9 59.3C29.6 59.1 29.1 59 28.5 59H27.6V61.8H28.6C29.2 61.8 29.7 61.7 30 61.4C30.3 61.2 30.4 60.8 30.4 60.3C30.3 59.9 30.2 59.5 29.9 59.3ZM24.8 13.4C24.3 12.8 24 12 24 11C24 10 24.3 9.1 24.8 8.5C25.3 7.9 26 7.6 26.9 7.6C27.7 7.6 28.4 7.9 28.9 8.4C29.4 8.9 29.6 9.6 29.6 10.5V11.2H25.3C25.3 11.8 25.5 12.3 25.8 12.6C26.1 12.9 26.6 13.1 27.1 13.1C27.5 13.1 27.8 13.1 28.2 13C28.5 12.9 28.9 12.8 29.2 12.6V13.7C28.9 13.9 28.5 14 28.2 14C27.9 14.1 27.5 14.1 27 14.1C26.2 14.3 25.4 14 24.8 13.4ZM25.4 10.3H28.3C28.3 9.8 28.2 9.4 27.9 9.1C27.6 8.8 27.3 8.7 26.9 8.7C26.5 8.7 26.1 8.8 25.9 9.1C25.6 9.3 25.4 9.8 25.4 10.3ZM32.6 11.3C33 11.5 33.3 11.6 33.5 11.7C33.7 11.8 33.9 11.9 34 12C34.1 12.1 34.1 12.2 34.1 12.4C34.1 12.9 33.7 13.2 32.8 13.2C32.2 13.2 31.5 13 30.7 12.7V13.9C31.2 14.2 31.9 14.3 32.7 14.3C33.5 14.3 34.2 14.1 34.6 13.8C35.1 13.5 35.3 13 35.3 12.4C35.3 12.1 35.2 11.8 35.1 11.6C35 11.4 34.8 11.2 34.6 11C34.4 10.8 34 10.6 33.4 10.4C32.8 10.2 32.4 10 32.2 9.8C32 9.7 31.9 9.5 31.9 9.3C31.9 8.9 32.3 8.7 33 8.7C33.5 8.7 34 8.8 34.7 9.1L35.1 8.1C34.4 7.8 33.7 7.6 33 7.6C32.2 7.6 31.6 7.8 31.2 8.1C30.8 8.4 30.5 8.8 30.5 9.4C30.5 9.9 30.6 10.2 30.9 10.5C31.4 10.8 31.9 11 32.6 11.3ZM52.1 14.1H53.5V8.8H55V7.8H53.4V7.3C53.4 6.9 53.5 6.6 53.6 6.4C53.7 6.2 54 6.1 54.3 6.1C54.6 6.1 54.9 6.2 55.3 6.3L55.7 5.3C55.2 5.1 54.8 5.1 54.3 5.1C53.6 5.1 53 5.3 52.7 5.6C52.4 6 52.2 6.5 52.2 7.3V7.7L51.1 8.1V8.7H52.2V14.1H52.1ZM19.8 14.1H16.8V5.7H19.3C20.5 5.7 21.3 5.9 21.8 6.2C22.3 6.5 22.6 7.1 22.6 7.8C22.6 8.3 22.5 8.7 22.2 9C21.9 9.3 21.6 9.5 21.1 9.6V9.7C21.7 9.8 22.1 10 22.4 10.4C22.7 10.7 22.8 11.2 22.8 11.7C22.8 12.5 22.5 13 22 13.5C21.4 13.9 20.7 14.1 19.8 14.1ZM18.1 9.2H19.4C20 9.2 20.4 9.1 20.7 8.9C21 8.7 21.1 8.4 21.1 8C21.1 7.6 21 7.3 20.7 7.1C20.4 6.9 20 6.8 19.3 6.8H18.1V9.2ZM19.6 13C20.2 13 20.6 12.9 20.9 12.7C21.2 12.5 21.3 12.1 21.3 11.7C21.3 11.3 21.1 10.9 20.9 10.7C20.6 10.5 20.1 10.4 19.5 10.4H18.1V13H19.6ZM70 0V70H0V0H70ZM17.7 64C17.7 63.6 17.6 63.3 17.5 63C17.4 62.7 17.2 62.5 16.9 62.2C16.6 62 16.2 61.7 15.5 61.5C14.9 61.3 14.6 61.1 14.4 61C14.2 60.9 14 60.7 13.9 60.6C13.8 60.4 13.8 60.3 13.8 60C13.8 59.7 13.9 59.4 14.1 59.2C14.3 59 14.7 58.9 15.1 58.9C15.7 58.9 16.4 59.1 17.1 59.4L17.5 58.3C16.7 58 15.9 57.8 15.1 57.8C14.3 57.8 13.6 58 13.1 58.4C12.6 58.8 12.3 59.4 12.3 60.1C12.3 60.7 12.5 61.1 12.8 61.5C13.1 61.9 13.7 62.3 14.4 62.6C15.2 62.9 15.6 63.2 15.9 63.4C16.1 63.6 16.3 63.9 16.3 64.2C16.3 64.5 16.2 64.8 15.9 65C15.6 65.2 15.2 65.3 14.7 65.3C14.3 65.3 13.9 65.2 13.5 65.1C13.1 65 12.7 64.8 12.3 64.7V66C12.9 66.3 13.7 66.4 14.6 66.4C15.6 66.4 16.3 66.2 16.8 65.8C17.4 65.3 17.7 64.7 17.7 64ZM24.2 57.8H19.4V66.2H24.2V65H20.8V62.3H24V61.1H20.8V59H24.2V57.8ZM32.5 66.3L30.1 62.6C31.2 62.2 31.7 61.4 31.7 60.4C31.7 59.6 31.4 59 30.9 58.6C30.4 58.2 29.6 58 28.5 58H26.1V66.4H27.5V63H28.9L30.9 66.4H32.5V66.3ZM40.1 57.8H38.7L36.9 63C36.8 63.2 36.7 63.5 36.6 63.8C36.5 64.2 36.4 64.5 36.4 64.8C36.4 64.6 36.3 64.3 36.2 63.9C36.1 63.5 36 63.2 35.9 62.9L34.1 57.7H32.7L35.6 66.1H37.1L40.1 57.8ZM42.7 57.8H41.3V66.2H42.7V57.8ZM46 62.1C46 61.1 46.2 60.3 46.7 59.8C47.2 59.2 47.8 59 48.6 59C48.9 59 49.3 59.1 49.6 59.2C49.9 59.3 50.2 59.4 50.5 59.6L51 58.4C50.3 58 49.5 57.9 48.6 57.9C47.8 57.9 47.1 58.1 46.5 58.4C45.9 58.7 45.4 59.2 45.1 59.9C44.8 60.6 44.6 61.3 44.6 62.2C44.6 63.6 44.9 64.7 45.6 65.4C46.3 66.2 47.2 66.5 48.4 66.5C49.2 66.5 50 66.4 50.7 66.1V64.9C50.3 65 50 65.1 49.7 65.2C49.4 65.3 49 65.3 48.7 65.3C47.9 65.3 47.2 65 46.8 64.5C46.3 63.9 46 63.1 46 62.1ZM57.4 57.8H52.6V66.2H57.4V65H54V62.3H57.2V61.1H54V59H57.4V57.8ZM69.7 0.3H0.3V55.7H69.7V0.3ZM37 12.2C37 13.5 37.6 14.2 38.9 14.2C39.2 14.2 39.4 14.2 39.6 14.1C39.8 14.1 40 14 40.2 13.9V12.9C39.9 13 39.5 13.1 39.2 13.1C38.9 13.1 38.7 13 38.6 12.9C38.4 12.7 38.3 12.5 38.3 12.2V8.8H40.1V7.8H38.3V6.3H37.5L37 7.6L36.1 8.1V8.7H37V12.2ZM44.6 12.7C44.3 12.2 44.2 11.6 44.2 10.9C44.2 9.9 44.5 9.1 45 8.5C45.5 7.9 46.3 7.6 47.2 7.6C48.1 7.6 48.9 7.9 49.4 8.5C49.9 9.1 50.2 9.9 50.2 10.9C50.2 11.9 49.9 12.8 49.4 13.3C48.9 13.9 48.1 14.2 47.2 14.2C46.6 14.2 46.1 14.1 45.6 13.8C45.2 13.6 44.8 13.2 44.6 12.7ZM45.6 10.9C45.6 12.4 46.1 13.1 47.2 13.1C48.3 13.1 48.8 12.4 48.8 10.9C48.8 9.4 48.3 8.7 47.2 8.7C46.6 8.7 46.2 8.9 46 9.3C45.8 9.7 45.6 10.2 45.6 10.9ZM14.3 48.9L18.6 44.5C20.1 43 21.1 41.7 21.7 40.7C22.3 39.7 22.5 38.6 22.5 37.5C22.5 36.1 22.1 35.1 21.2 34.3C20.4 33.5 19.2 33.1 17.8 33.1C16.1 33.1 14.5 33.7 13.2 34.9L13.8 35.7C15.1 34.7 16.4 34.2 17.8 34.2C18.8 34.2 19.7 34.5 20.4 35.1C21.1 35.7 21.4 36.5 21.4 37.5C21.4 38.2 21.3 38.8 21 39.5C20.7 40.2 20.4 40.8 19.9 41.5C19.4 42.2 18.5 43.2 17.3 44.5L12.8 49V50H23.3V48.9H14.3ZM33.9 35.2C34.8 36.7 35.3 38.8 35.3 41.6C35.3 44.5 34.9 46.7 34 48.1C33.1 49.5 31.7 50.2 29.9 50.2C28.1 50.2 26.8 49.5 25.9 48C25 46.5 24.5 44.4 24.5 41.5C24.5 38.6 24.9 36.4 25.8 35C26.7 33.6 28 32.9 29.8 32.9C31.7 33 33 33.8 33.9 35.2ZM34 41.6C34 39.1 33.7 37.3 33 36C32.3 34.7 31.3 34.1 29.8 34.1C28.4 34.1 27.3 34.7 26.7 36C26 37.3 25.7 39.2 25.7 41.6C25.7 44.2 26 46.1 26.7 47.4C27.4 48.6 28.4 49.3 29.8 49.3C31.2 49.3 32.3 48.7 33 47.4C33.7 46 34 44.1 34 41.6ZM37.3 36.7L38 37.5C40.2 35.7 41.4 34.8 41.5 34.7C41.6 34.6 41.7 34.5 41.9 34.4C41.8 35.6 41.8 36.7 41.8 37.8V50H42.9V33.3H41.9L37.3 36.7ZM57.9 36.4C58.3 37.5 58.6 38.8 58.6 40.4C58.6 42.6 58.3 44.4 57.7 45.9C57.1 47.4 56.3 48.5 55.2 49.2C54.1 49.9 52.8 50.3 51.2 50.3C50.4 50.3 49.7 50.2 49 50V49C49.3 49.1 49.7 49.2 50.2 49.3C50.7 49.4 51 49.4 51.3 49.4C53.2 49.4 54.7 48.7 55.7 47.4C56.8 46 57.4 44.1 57.5 41.4H57.4C56.8 42.1 56.2 42.7 55.4 43.1C54.6 43.5 53.8 43.7 53 43.7C51.5 43.7 50.2 43.3 49.4 42.4C48.5 41.6 48.1 40.3 48.1 38.8C48.1 37.1 48.6 35.8 49.5 34.7C50.4 33.7 51.7 33.1 53.2 33.1C54.3 33.1 55.3 33.4 56.1 34C56.8 34.5 57.4 35.3 57.9 36.4ZM57.3 39C57.3 38.1 57.1 37.3 56.8 36.5C56.4 35.7 56 35.1 55.3 34.7C54.7 34.3 53.9 34 53.1 34C51.9 34 50.9 34.4 50.2 35.2C49.5 36 49.1 37.1 49.1 38.5C49.1 39.8 49.4 40.8 50.1 41.5C50.8 42.2 51.7 42.5 52.9 42.5C53.7 42.5 54.4 42.3 55.1 42C55.8 41.7 56.3 41.2 56.7 40.6C57.1 40.2 57.3 39.6 57.3 39Z" fill="#666666"/>
<path d="M50.6996 27.0999H54.3996V28.3999H48.7996V27.0999L52.2996 22.9999H48.8996V21.6999H54.1996V22.9999L50.6996 27.0999ZM57.6996 27.0999L61.1996 22.9999V21.6999H55.8996V22.9999H59.2996L55.7996 27.0999V28.3999H61.3996V27.0999H57.6996ZM29.0996 21.7999C28.0996 21.3999 26.8996 21.4999 26.0996 22.1999V19.3999H24.5996V28.4999H26.0996V24.8999C26.0996 24.1999 26.2996 23.0999 27.5996 23.0999C28.7996 23.0999 29.1996 24.0999 29.1996 24.8999V28.4999H30.6996V24.3999C30.6996 23.0999 30.1996 22.1999 29.0996 21.7999ZM39.0996 23.6999C39.2996 24.0999 39.3996 24.5999 39.3996 25.0999C39.3996 25.5999 39.2996 25.9999 39.0996 26.4999C38.8996 26.8999 38.6996 27.2999 38.2996 27.6999C37.9996 27.9999 37.5996 28.2999 37.1996 28.4999C36.2996 28.8999 35.2996 28.8999 34.3996 28.4999C33.9996 28.2999 33.5996 28.0999 33.2996 27.6999C32.9996 27.3999 32.6996 26.9999 32.4996 26.4999C32.2996 26.0999 32.1996 25.5999 32.1996 25.0999C32.1996 24.5999 32.2996 24.1999 32.4996 23.6999C32.6996 23.1999 33.0996 22.6999 33.4996 22.2999C33.8996 21.8999 34.4996 21.6999 34.9996 21.5999C35.5996 21.4999 36.1996 21.4999 36.6996 21.6999C37.2996 21.8999 37.7996 22.1999 38.1996 22.5999C38.5996 22.8999 38.8996 23.2999 39.0996 23.6999ZM37.5996 24.1999C37.4996 23.8999 37.3996 23.6999 37.1996 23.4999C36.9996 23.2999 36.7996 23.1999 36.5996 23.0999C36.0996 22.8999 35.4996 22.8999 34.8996 23.0999C34.6996 23.1999 34.4996 23.3999 34.2996 23.4999C34.0996 23.6999 33.9996 23.8999 33.8996 24.1999C33.6996 24.7999 33.6996 25.3999 33.8996 25.8999C33.9996 26.1999 34.0996 26.3999 34.2996 26.5999C34.4996 26.7999 34.6996 26.8999 34.8996 26.9999C35.3996 27.1999 35.9996 27.1999 36.5996 26.9999C36.7996 26.8999 36.9996 26.6999 37.1996 26.5999C37.3996 26.3999 37.4996 26.1999 37.5996 25.8999C37.7996 25.2999 37.7996 24.6999 37.5996 24.1999ZM45.6996 25.3999C45.6996 25.5999 45.6996 25.7999 45.5996 25.9999C45.4996 26.1999 45.3996 26.3999 45.2996 26.5999C45.1996 26.7999 44.9996 26.8999 44.7996 26.9999C44.5996 27.0999 44.2996 27.1999 43.9996 27.1999C43.6996 27.1999 43.4996 27.0999 43.1996 26.9999C42.9996 26.8999 42.7996 26.6999 42.6996 26.5999C42.5996 26.3999 42.4996 26.1999 42.3996 25.9999C42.2996 25.7999 42.2996 25.5999 42.2996 25.3999V21.6999H40.7996V25.4999C40.7996 26.8999 41.3996 27.8999 42.6996 28.2999C43.4996 28.5999 44.3996 28.5999 45.0996 28.2999C46.5996 27.6999 46.9996 26.3999 46.9996 25.4999V21.6999H45.4996V25.3999H45.6996Z" fill="#212121"/>
<path d="M11.3992 16.3999H8.69922V28.3999H12.6992V24.5999H15.3992V28.3999H19.3992V21.5999L11.3992 19.2999V16.3999Z" fill="#4DBC15"/>
</svg>
