<svg width="170" height="39" viewBox="0 0 170 39" fill="none" xmlns="http://www.w3.org/2000/svg">
<g clip-path="url(#clip0)">
<path d="M21.4322 38.4621H34.3074V16.6147L8.53568 9.20901V0H0V38.4621H12.8752V26.3525H21.4322V38.4621Z" fill="black"/>
<path d="M95.4294 19.6346C94.1027 18.3046 92.4712 17.3205 90.6773 16.7684C88.8835 16.2164 86.9821 16.1131 85.1392 16.4678C83.2964 16.8224 81.5683 17.6241 80.106 18.8027C78.6438 19.9813 77.4918 21.501 76.751 23.229C76.1553 24.6254 75.8532 26.1299 75.8635 27.6486C75.8547 29.1416 76.1433 30.6214 76.7125 32.0012C77.2817 33.381 78.1201 34.6331 79.1784 35.6839C80.2252 36.7103 81.4565 37.5286 82.8074 38.0954C85.6865 39.2797 88.9152 39.2797 91.7944 38.0954C93.1452 37.5286 94.3766 36.7103 95.4233 35.6839C96.4826 34.6335 97.322 33.3817 97.8922 32.0019C98.4625 30.6221 98.7522 29.142 98.7443 27.6486C98.7549 26.1299 98.4529 24.6253 97.8569 23.229C97.2809 21.8883 96.4573 20.6687 95.4294 19.6346ZM93.246 30.4177C92.973 31.2094 92.5425 31.9373 91.9804 32.5572C91.4173 33.1551 90.7359 33.6287 89.9799 33.9478C88.2609 34.6305 86.3469 34.6305 84.6279 33.9478C83.8717 33.6291 83.1903 33.1554 82.6274 32.5572C82.0635 31.9381 81.6318 31.21 81.3588 30.4177C80.7489 28.6201 80.7489 26.6709 81.3588 24.8733C81.6319 24.081 82.0636 23.353 82.6274 22.7338C83.1904 22.1357 83.8718 21.6621 84.6279 21.3431C86.3465 20.6583 88.2613 20.6583 89.9799 21.3431C90.736 21.6622 91.4173 22.1359 91.9804 22.7338C92.5422 23.3539 92.9727 24.0817 93.246 24.8733C93.8554 26.671 93.8554 28.62 93.246 30.4177Z" fill="black"/>
<path d="M146.811 20.9306V16.8472H129.789V21.1109H140.667L129.396 34.3391V38.4653H147.424V34.2016H135.458L146.811 20.9306Z" fill="black"/>
<path d="M158.033 34.2016L169.387 20.9306V16.8472H152.364V21.1109H163.242L151.971 34.3391V38.4653H170V34.2016H158.033Z" fill="black"/>
<path d="M65.8118 17.0426C62.6281 15.7222 58.7216 16.2663 56.1936 18.308V9.20898H51.418V38.462H56.1966V26.9607C56.1966 24.7723 56.8248 21.1015 61.0241 21.1015C64.8787 21.1015 66.2479 24.2588 66.2479 26.9607V38.459H71.0205V25.3866C71.0174 21.4561 69.1206 18.4149 65.8118 17.0426Z" fill="black"/>
<path d="M119.164 28.6511C119.159 29.3277 119.066 30.0008 118.887 30.6531C118.705 31.3153 118.401 31.9374 117.99 32.487C117.563 33.0522 117.013 33.513 116.383 33.8348C115.601 34.176 114.758 34.3521 113.905 34.3521C113.053 34.3521 112.209 34.176 111.428 33.8348C110.797 33.5129 110.248 33.0521 109.82 32.487C109.409 31.9378 109.105 31.3156 108.924 30.6531C108.744 30.0008 108.65 29.3278 108.643 28.6511V16.8105H103.904V29.1279C103.904 33.7126 105.923 36.769 109.988 38.2972C112.537 39.2205 115.329 39.2141 117.874 38.2789C122.863 36.39 123.909 32.2516 123.909 29.1096V16.8625H119.164V28.6511Z" fill="black"/>
</g>
<defs>
<clipPath id="clip0">
<rect width="170" height="39" fill="white"/>
</clipPath>
</defs>
</svg>
