<svg width="70" height="70" viewBox="0 0 70 70" fill="none" xmlns="http://www.w3.org/2000/svg">
<path d="M0 0V70H70V0H0ZM16.9 65.7C16.4 66.1 15.6 66.3 14.7 66.3C13.7 66.3 13 66.1 12.4 65.9V64.6C12.8 64.8 13.2 64.9 13.6 65C14 65.1 14.4 65.2 14.8 65.2C15.3 65.2 15.7 65.1 16 64.9C16.3 64.7 16.4 64.4 16.4 64.1C16.4 63.8 16.3 63.5 16 63.3C15.8 63.1 15.3 62.8 14.5 62.5C13.7 62.2 13.2 61.8 12.9 61.4C12.6 61 12.4 60.5 12.4 60C12.4 59.3 12.7 58.7 13.2 58.3C13.7 57.9 14.4 57.7 15.2 57.7C16 57.7 16.8 57.9 17.6 58.2L17.2 59.3C16.4 59 15.8 58.8 15.2 58.8C14.8 58.8 14.4 58.9 14.2 59.1C14 59.3 13.9 59.5 13.9 59.9C13.9 60.1 13.9 60.3 14 60.5C14.1 60.7 14.3 60.8 14.5 60.9C14.7 61 15.1 61.2 15.6 61.4C16.2 61.7 16.7 61.9 17 62.1C17.3 62.3 17.5 62.6 17.6 62.9C17.7 63.2 17.8 63.5 17.8 63.9C17.7 64.7 17.4 65.3 16.9 65.7ZM24.2 59H20.8V61.3H24V62.5H20.8V65.2H24.2V66.4H19.4V58H24.2V59ZM30.9 66.3L28.9 62.9H27.5V66.3H26.1V57.9H28.5C29.6 57.9 30.4 58.1 30.9 58.5C31.4 58.9 31.7 59.5 31.7 60.3C31.7 61.4 31.2 62.1 30.1 62.5L32.5 66.2H30.9V66.3ZM37.1 66.3H35.6L32.7 57.9H34.1L35.9 63.1C36 63.4 36.1 63.7 36.2 64.1C36.3 64.5 36.4 64.8 36.4 65C36.5 64.7 36.5 64.4 36.6 64C36.7 63.6 36.8 63.3 36.9 63.2L38.7 58H40.1L37.1 66.3ZM42.7 66.3H41.3V57.9H42.7V66.3ZM46.7 64.4C47.1 64.9 47.8 65.2 48.6 65.2C49 65.2 49.3 65.2 49.6 65.1C49.9 65 50.3 64.9 50.6 64.8V66C49.9 66.3 49.2 66.4 48.3 66.4C47.1 66.4 46.1 66 45.5 65.3C44.8 64.5 44.5 63.5 44.5 62.1C44.5 61.2 44.7 60.5 45 59.8C45.3 59.1 45.8 58.6 46.4 58.3C47 58 47.7 57.8 48.5 57.8C49.4 57.8 50.2 58 50.9 58.3L50.4 59.5C50.1 59.4 49.8 59.2 49.5 59.1C49.2 59 48.8 58.9 48.5 58.9C47.7 58.9 47.1 59.2 46.6 59.7C46.3 60.3 46 61.1 46 62C46 63.1 46.3 63.9 46.7 64.4ZM57.4 59H54V61.3H57.2V62.5H54V65.2H57.4V66.4H52.6V58H57.4V59ZM69.7 55.7H0.3V0.3H69.7V55.7ZM22 13.5C22.5 13.1 22.8 12.5 22.8 11.7C22.8 11.1 22.7 10.7 22.4 10.4C22.1 10 21.6 9.8 21 9.7C21.5 9.6 21.8 9.4 22.1 9.1C22.4 8.8 22.5 8.4 22.5 7.9C22.5 7.2 22.2 6.6 21.7 6.3C21.2 6 20.3 5.8 19.2 5.8H16.7V14.2H19.7C20.7 14.1 21.4 13.9 22 13.5ZM18.1 6.9H19.3C19.9 6.9 20.4 7 20.7 7.2C21 7.4 21.1 7.7 21.1 8.1C21.1 8.5 21 8.8 20.7 9C20.4 9.2 20 9.3 19.4 9.3H18.1V6.9ZM18.1 13V10.3H19.5C20.1 10.3 20.6 10.4 20.9 10.6C21.2 10.8 21.3 11.1 21.3 11.6C21.3 12.1 21.1 12.4 20.9 12.6C20.6 12.8 20.2 12.9 19.6 12.9H18.1V13ZM27.2 14.3C27.6 14.3 28 14.3 28.4 14.2C28.7 14.1 29.1 14 29.4 13.9V12.8C29 13 28.7 13.1 28.4 13.2C28.1 13.3 27.7 13.3 27.3 13.3C26.7 13.3 26.3 13.1 26 12.8C25.7 12.5 25.5 12 25.5 11.4H29.8V10.7C29.8 9.8 29.5 9.1 29.1 8.6C28.6 8.1 27.9 7.8 27.1 7.8C26.2 7.8 25.5 8.1 25 8.7C24.2 9.1 24 10 24 11C24 12 24.3 12.8 24.8 13.4C25.4 14 26.2 14.3 27.2 14.3ZM25.9 9.1C26.2 8.8 26.5 8.7 26.9 8.7C27.3 8.7 27.7 8.8 27.9 9.1C28.2 9.4 28.3 9.8 28.3 10.3H25.4C25.4 9.8 25.6 9.3 25.9 9.1ZM30.3 60.3C30.3 60.8 30.2 61.1 29.9 61.4C29.6 61.6 29.1 61.8 28.5 61.8H27.5V59H28.4C29 59 29.5 59.1 29.8 59.3C30.2 59.5 30.3 59.9 30.3 60.3ZM31.2 10.5C30.9 10.2 30.8 9.8 30.8 9.4C30.8 8.9 31 8.4 31.5 8.1C31.9 7.8 32.5 7.6 33.3 7.6C34.1 7.6 34.8 7.8 35.4 8.1L35 9.1C34.3 8.8 33.7 8.7 33.3 8.7C32.6 8.7 32.2 8.9 32.2 9.3C32.2 9.5 32.3 9.7 32.5 9.8C32.7 9.9 33.1 10.1 33.7 10.4C34.2 10.6 34.6 10.8 34.9 11C35.1 11.2 35.3 11.4 35.4 11.6C35.5 11.8 35.6 12.1 35.6 12.4C35.6 13 35.4 13.5 34.9 13.8C34.4 14.1 33.8 14.3 33 14.3C32.2 14.3 31.5 14.2 31 13.9V12.7C31.8 13 32.4 13.2 33.1 13.2C33.9 13.2 34.4 12.9 34.4 12.4C34.4 12.2 34.4 12.1 34.3 12C34.2 11.9 34 11.8 33.8 11.7C33.6 11.6 33.3 11.4 32.9 11.3C31.9 11 31.4 10.8 31.2 10.5ZM37 8.8H36.1V8.2L37 7.7L37.5 6.4H38.3V7.8H40.1V8.8H38.3V12.2C38.3 12.5 38.4 12.8 38.6 12.9C38.8 13.1 39 13.1 39.2 13.1C39.5 13.1 39.9 13 40.2 12.9V13.9C40 14 39.9 14 39.6 14.1C39.4 14.1 39.1 14.2 38.9 14.2C37.6 14.2 37 13.5 37 12.2V8.8ZM45.7 13.8C46.2 14.1 46.7 14.2 47.3 14.2C48.3 14.2 49 13.9 49.5 13.3C50 12.7 50.3 11.9 50.3 10.9C50.3 9.9 50 9.1 49.5 8.5C49 7.9 48.2 7.6 47.3 7.6C46.3 7.6 45.6 7.9 45.1 8.5C44.6 9.1 44.3 9.9 44.3 10.9C44.3 11.6 44.4 12.2 44.7 12.7C44.8 13.2 45.2 13.6 45.7 13.8ZM46 9.3C46.3 8.9 46.7 8.7 47.2 8.7C48.3 8.7 48.8 9.4 48.8 10.9C48.8 12.4 48.3 13.1 47.2 13.1C46.1 13.1 45.6 12.4 45.6 10.9C45.6 10.2 45.8 9.7 46 9.3ZM52.1 8.8H51V8.1L52.1 7.7V7.3C52.1 6.5 52.3 6 52.6 5.6C52.9 5.2 53.5 5.1 54.2 5.1C54.7 5.1 55.1 5.2 55.6 5.3L55.2 6.3C54.9 6.2 54.5 6.1 54.2 6.1C53.9 6.1 53.7 6.2 53.5 6.4C53.4 6.6 53.3 6.9 53.3 7.3V7.7H55V8.7H53.4V14H52V8.8H52.1ZM14.2 48.9H23.1V50H12.7V49L17.1 44.4C18.4 43.1 19.2 42.1 19.7 41.4C20.2 40.7 20.6 40.1 20.8 39.4C21 38.7 21.2 38.1 21.2 37.4C21.2 36.4 20.9 35.6 20.2 35C19.5 34.4 18.7 34.1 17.6 34.1C16.2 34.1 14.9 34.6 13.6 35.6L13 34.8C14.4 33.6 15.9 33 17.6 33C19.1 33 20.2 33.4 21 34.2C21.8 35 22.3 36 22.3 37.4C22.3 38.5 22 39.6 21.5 40.6C20.9 41.6 19.9 42.9 18.4 44.4L14.2 48.9ZM29.8 33C28 33 26.7 33.7 25.8 35.1C24.9 36.5 24.5 38.7 24.5 41.6C24.5 44.4 25 46.6 25.9 48.1C26.8 49.6 28.1 50.3 29.9 50.3C31.7 50.3 33.1 49.6 34 48.2C34.9 46.8 35.3 44.6 35.3 41.7C35.3 38.9 34.8 36.8 33.9 35.3C32.9 33.8 31.5 33 29.8 33ZM32.9 47.3C32.2 48.6 31.2 49.2 29.7 49.2C28.3 49.2 27.3 48.6 26.6 47.3C25.9 46.1 25.6 44.1 25.6 41.5C25.6 39 25.9 37.2 26.6 35.9C27.3 34.6 28.3 34 29.7 34C31.1 34 32.2 34.6 32.9 35.9C33.6 37.2 33.9 39.1 33.9 41.5C33.9 44.1 33.6 46 32.9 47.3ZM37.7 48.9H46.6V50H36.1V49L40.5 44.4C41.8 43.1 42.6 42.1 43.1 41.4C43.6 40.7 44 40.1 44.2 39.4C44.4 38.8 44.6 38.1 44.6 37.4C44.6 36.4 44.3 35.6 43.6 35C42.9 34.4 42.1 34.1 41 34.1C39.6 34.1 38.3 34.6 37 35.6L36.4 34.8C37.8 33.6 39.3 33 41 33C42.5 33 43.6 33.4 44.4 34.2C45.2 35 45.7 36 45.7 37.4C45.7 38.5 45.4 39.6 44.9 40.6C44.4 41.6 43.3 42.9 41.8 44.4L37.7 48.9ZM53.3 33C51.5 33 50.2 33.7 49.3 35.1C48.4 36.5 48 38.7 48 41.6C48 44.4 48.5 46.6 49.4 48.1C50.3 49.6 51.6 50.3 53.4 50.3C55.2 50.3 56.6 49.6 57.5 48.2C58.4 46.8 58.8 44.6 58.8 41.7C58.8 38.9 58.3 36.8 57.4 35.3C56.3 33.8 55 33 53.3 33ZM56.4 47.3C55.7 48.6 54.7 49.2 53.2 49.2C51.8 49.2 50.8 48.6 50.1 47.3C49.4 46.1 49.1 44.1 49.1 41.5C49.1 39 49.4 37.2 50.1 35.9C50.8 34.6 51.8 34 53.2 34C54.6 34 55.7 34.6 56.4 35.9C57.1 37.2 57.4 39.1 57.4 41.5C57.4 44.1 57.1 46 56.4 47.3Z" fill="#666666"/>
<path d="M45.5996 21.7001H47.0996V25.5C47.0996 26.5 46.7996 27.8 45.1996 28.3C44.3996 28.6 43.4996 28.6 42.7996 28.3C41.5996 27.8 40.8996 26.9 40.8996 25.5V21.7001H42.3996V25.4C42.3996 25.6 42.3996 25.8 42.4996 26C42.5996 26.2 42.6996 26.4001 42.7996 26.6C42.8996 26.8 43.0996 26.9 43.2996 27C43.4996 27.1 43.7996 27.2001 44.0996 27.2001C44.3996 27.2001 44.5996 27.1 44.8996 27C45.0996 26.9 45.2996 26.7 45.3996 26.6C45.4996 26.4001 45.5996 26.2 45.6996 26C45.7996 25.8 45.7996 25.6 45.7996 25.4V21.7001H45.5996ZM29.0996 21.7001C28.0996 21.3001 26.8996 21.5001 26.0996 22.1V19.3H24.5996V28.4H26.0996V24.8C26.0996 24.1 26.2996 23 27.5996 23C28.7996 23 29.1996 24 29.1996 24.8V28.4H30.6996V24.3C30.6996 23.1 30.1996 22.2001 29.0996 21.7001ZM38.9996 23.7001C39.1996 24.1001 39.2996 24.6 39.2996 25.1C39.2996 25.6 39.1996 26 38.9996 26.5C38.7996 26.9 38.5996 27.3001 38.1996 27.7001C37.8996 28.0001 37.4996 28.3 37.0996 28.5C36.1996 28.9 35.1996 28.9 34.2996 28.5C33.8996 28.3 33.4996 28.1 33.1996 27.7001C32.8996 27.4001 32.5996 27 32.3996 26.5C32.1996 26 32.0996 25.6 32.0996 25.1C32.0996 24.6 32.1996 24.2001 32.3996 23.7001C32.5996 23.2001 32.9996 22.7 33.3996 22.3C33.7996 21.9 34.3996 21.7 34.8996 21.6C35.4996 21.5001 36.0996 21.5001 36.5996 21.7001C37.1996 21.9001 37.6996 22.2 38.0996 22.6C38.5996 22.9 38.8996 23.3001 38.9996 23.7001ZM37.5996 24.2001C37.4996 23.9001 37.3996 23.7 37.1996 23.5C36.9996 23.3 36.7996 23.2 36.5996 23.1C36.0996 22.9 35.4996 22.9 34.8996 23.1C34.6996 23.2 34.4996 23.4 34.2996 23.5C34.0996 23.7 33.9996 23.9001 33.8996 24.2001C33.6996 24.8001 33.6996 25.4 33.8996 25.9C33.9996 26.2 34.0996 26.4001 34.2996 26.6C34.4996 26.8 34.6996 26.9 34.8996 27C35.3996 27.2 35.9996 27.2 36.5996 27C36.7996 26.9 36.9996 26.7 37.1996 26.6C37.3996 26.4001 37.4996 26.2 37.5996 25.9C37.7996 25.3 37.7996 24.7001 37.5996 24.2001ZM54.1996 23V21.7001H48.8996V23H52.2996L48.7996 27.1V28.4H54.3996V27.1H50.6996L54.1996 23ZM57.6996 27.1L61.1996 23V21.7001H55.8996V23H59.2996L55.7996 27.1V28.4H61.3996V27.1H57.6996Z" fill="#212121"/>
<path d="M11.3992 16.3999H8.69922V28.3999H12.6992V24.6999H15.3992V28.3999H19.3992V21.5999L11.3992 19.2999V16.3999Z" fill="#4DBC15"/>
</svg>
