<svg width="70" height="70" viewBox="0 0 70 70" fill="none" xmlns="http://www.w3.org/2000/svg">
<path d="M48.8194 27.125L52.3056 23.0139H48.9306V21.6806H54.2083V22.9583L50.6944 27.0833H54.4028V28.4167H48.8194V27.125ZM61.4028 27.0833H57.6944L61.2083 22.9583V21.6806H55.9306V23.0139H59.3056L55.8194 27.125V28.4028H61.4028V27.0833ZM29.8611 59.3194C29.5556 59.1111 29.0833 59.0139 28.4583 59.0139H27.5417V61.7639H28.5C29.1389 61.7639 29.6111 61.6389 29.8889 61.4028C30.1806 61.1667 30.3194 60.8056 30.3194 60.3472C30.3194 59.8611 30.1667 59.5278 29.8611 59.3194ZM35.1111 21.5556C35.6806 21.4444 36.2778 21.4722 36.8333 21.6528C37.3889 21.8194 37.8889 22.125 38.3056 22.5417C38.625 22.8611 38.875 23.25 39.0556 23.6667C39.2361 24.0972 39.3333 24.5694 39.3333 25.0417C39.3333 25.5 39.25 25.9722 39.0694 26.4028C38.8889 26.8333 38.6389 27.2222 38.3056 27.5556C37.9861 27.875 37.5972 28.125 37.1806 28.3056C36.2917 28.6806 35.2917 28.6806 34.4028 28.3056C33.9861 28.125 33.5972 27.875 33.2778 27.5556C32.9444 27.2222 32.6944 26.8333 32.5139 26.4028C32.3333 25.9722 32.25 25.5139 32.25 25.0417C32.25 24.5694 32.3472 24.0972 32.5278 23.6667C32.7639 23.125 33.1111 22.6528 33.5694 22.2917C34 21.9167 34.5417 21.6667 35.1111 21.5556ZM34.9583 23.0694C34.7222 23.1667 34.5139 23.3194 34.3333 23.5C34.1528 23.6944 34.0278 23.9167 33.9444 24.1667C33.75 24.7222 33.75 25.3333 33.9444 25.8889C34.0278 26.1389 34.1667 26.3611 34.3333 26.5556C34.5139 26.7361 34.7222 26.8889 34.9583 26.9861C35.4861 27.1944 36.0833 27.1944 36.6111 26.9861C36.8472 26.8889 37.0556 26.7361 37.2361 26.5556C37.4167 26.3611 37.5417 26.1389 37.625 25.8889C37.8194 25.3333 37.8194 24.7222 37.625 24.1667C37.5417 23.9167 37.4028 23.6944 37.2361 23.5C37.0556 23.3194 36.8472 23.1667 36.6111 23.0694C36.0833 22.8611 35.4861 22.8611 34.9583 23.0694ZM19.75 14.1389H16.7083V5.70833H19.2083C20.375 5.70833 21.2083 5.875 21.7222 6.22222C22.2361 6.55556 22.5 7.09722 22.5 7.81944C22.5 8.30556 22.375 8.72222 22.125 9.04167C21.875 9.375 21.5 9.56944 21.0278 9.65278V9.72222C21.625 9.83333 22.0556 10.0556 22.3333 10.3889C22.6111 10.7222 22.75 11.1667 22.75 11.7222C22.75 12.4861 22.4861 13.0694 21.9583 13.5C21.4306 13.9167 20.6944 14.1389 19.75 14.1389ZM18.0833 9.18056H19.4028C19.9861 9.18056 20.4028 9.08333 20.6667 8.90278C20.9306 8.72222 21.0694 8.41667 21.0694 7.97222C21.0694 7.58333 20.9306 7.29167 20.6389 7.11111C20.3472 6.93056 19.9028 6.84722 19.2778 6.84722H18.0833V9.18056ZM19.5556 12.9722C20.1389 12.9722 20.5694 12.8611 20.8611 12.6389C21.1528 12.4167 21.3056 12.0694 21.3056 11.5972C21.3056 11.1528 21.1528 10.8333 20.8611 10.625C20.5556 10.4167 20.1111 10.3056 19.5 10.3056H18.1111V12.9722H19.5556ZM24.8194 13.375C24.2639 12.7917 23.9861 12 23.9861 10.9861C23.9861 9.94444 24.25 9.125 24.7639 8.52778C25.2778 7.93056 26 7.63889 26.9028 7.63889C27.75 7.63889 28.4028 7.88889 28.9028 8.40278C29.3889 8.91667 29.6389 9.61111 29.6389 10.5139V11.25H25.3889C25.4028 11.875 25.5694 12.3472 25.8889 12.6806C26.2083 13.0139 26.6528 13.1806 27.2222 13.1806C27.5972 13.1806 27.9444 13.1389 28.2778 13.0694C28.5972 13 28.9444 12.875 29.3194 12.7083V13.8056C28.9861 13.9583 28.6528 14.0694 28.3194 14.1389C27.9861 14.2083 27.5972 14.2361 27.1667 14.2361C26.1528 14.25 25.375 13.9583 24.8194 13.375ZM25.4028 10.2778H28.2917C28.2778 9.75 28.1528 9.34722 27.9167 9.08333C27.6667 8.80556 27.3333 8.68056 26.9028 8.68056C26.4722 8.68056 26.125 8.81944 25.8611 9.08333C25.6111 9.34722 25.4444 9.75 25.4028 10.2778ZM26.1389 22.125V19.3056H24.6528V28.4167H26.1389V24.8333C26.1389 24.1528 26.3333 23.0139 27.6389 23.0139C28.8333 23.0139 29.2639 24 29.2639 24.8333V28.4167H30.7361V24.3472C30.7361 23.125 30.1528 22.1806 29.125 21.75C28.1389 21.3333 26.9306 21.5 26.1389 22.125ZM52.1111 14.1389H53.4722V8.77778H55.0278V7.75H53.4722V7.33333C53.4722 6.95833 53.5417 6.66667 53.6806 6.47222C53.8194 6.27778 54.0417 6.18056 54.3472 6.18056C54.6528 6.18056 54.9722 6.23611 55.3056 6.34722L55.6667 5.31944C55.2083 5.16667 54.7361 5.08333 54.2639 5.08333C53.5417 5.08333 53 5.26389 52.6389 5.625C52.2917 5.98611 52.1111 6.54167 52.1111 7.30556V7.72222L51.0556 8.13889V8.77778H52.1111V14.1389ZM12.7222 24.6389H15.375V28.4028H19.3611V21.5972L11.375 19.3056V16.4444H8.73611V28.4167H12.7222V24.6389ZM70 0V70H0V0H70ZM17.7083 63.9722C17.7083 63.5972 17.6389 63.2639 17.5 62.9861C17.3611 62.7083 17.1528 62.4583 16.8611 62.2361C16.5694 62.0139 16.125 61.7778 15.5 61.5139C14.9444 61.2917 14.5694 61.1111 14.3611 60.9722C14.1528 60.8333 14 60.6806 13.9028 60.5278C13.8056 60.375 13.7639 60.1806 13.7639 59.9722C13.7639 59.6528 13.875 59.4028 14.1111 59.2083C14.3472 59.0139 14.6806 58.9167 15.125 58.9167C15.7083 58.9167 16.375 59.0694 17.125 59.3889L17.5694 58.2639C16.7639 57.9167 15.9722 57.7361 15.1667 57.7361C14.3194 57.7361 13.6528 57.9444 13.1528 58.3472C12.6528 58.75 12.4028 59.3056 12.4028 60.0139C12.4028 60.5694 12.5556 61.0556 12.875 61.4583C13.1944 61.8611 13.7361 62.2083 14.5 62.5278C15.25 62.8333 15.7361 63.0833 15.9722 63.3056C16.2083 63.5278 16.3333 63.7917 16.3333 64.1111C16.3333 64.4583 16.2083 64.7361 15.9444 64.9445C15.6806 65.1528 15.2778 65.25 14.7361 65.25C14.3611 65.25 13.9583 65.1945 13.5278 65.0972C13.0972 65 12.6806 64.8472 12.3056 64.6667V65.9722C12.9167 66.2639 13.6944 66.4167 14.6528 66.4167C15.6111 66.4167 16.3472 66.2083 16.8889 65.7778C17.4306 65.3195 17.7083 64.7222 17.7083 63.9722ZM24.2222 57.8333H19.4583V66.2639H24.2222V65.0972H20.8333V62.4444H24.0139V61.2917H20.8333V59H24.2222V57.8333ZM32.4861 66.2639L30.1111 62.5278C31.2083 62.0833 31.75 61.3333 31.75 60.2917C31.75 59.4722 31.4861 58.8611 30.9722 58.4444C30.4444 58.0417 29.6389 57.8333 28.5556 57.8333H26.1806V66.2639H27.5556V62.9028H28.9167L30.9306 66.2639H32.4861ZM40.0556 57.8333H38.625L36.875 63.0556C36.8056 63.2361 36.7222 63.5278 36.625 63.9028C36.5278 64.2917 36.4444 64.625 36.3889 64.9167C36.3611 64.7222 36.2917 64.4306 36.1806 64.0417C36.0833 63.6528 35.9722 63.3194 35.8889 63.0694L34.125 57.8333H32.7083L35.6528 66.2639H37.1111L40.0556 57.8333ZM42.6667 57.8333H41.2917V66.2639H42.6667V57.8333ZM46.0417 62.0694C46.0417 61.0833 46.2639 60.3056 46.7222 59.75C47.1806 59.1945 47.7917 58.9028 48.5833 58.9028C48.9306 58.9028 49.2639 58.9583 49.5833 59.0556C49.9028 59.1528 50.1944 59.2778 50.4861 59.4167L50.9861 58.2639C50.25 57.9028 49.4583 57.7222 48.5972 57.7222C47.7778 57.7222 47.0694 57.9028 46.4583 58.25C45.8472 58.5972 45.3889 59.0972 45.0694 59.7639C44.75 60.4167 44.5833 61.1944 44.5833 62.0694C44.5833 63.4583 44.9167 64.5278 45.5694 65.2778C46.2361 66.0278 47.1806 66.4028 48.4167 66.4028C49.25 66.4028 50 66.2778 50.6667 66.0278V64.8472C50.3056 64.9583 49.9583 65.0556 49.625 65.125C49.2917 65.1945 48.9444 65.2361 48.5833 65.2361C47.7639 65.2361 47.125 64.9722 46.6944 64.4445C46.2639 63.875 46.0417 63.0972 46.0417 62.0694ZM57.375 57.8333H52.6111V66.2639H57.375V65.0972H53.9861V62.4444H57.1667V61.2917H53.9861V59H57.375V57.8333ZM69.6667 0.333333H0.305556V55.7361H69.6667V0.333333ZM32.6389 11.3194C33.0139 11.4722 33.3056 11.5972 33.5278 11.7083C33.7361 11.8194 33.8889 11.9306 33.9861 12.0417C34.0833 12.1528 34.125 12.2778 34.125 12.4444C34.125 12.9444 33.7083 13.1944 32.875 13.1944C32.2361 13.1944 31.5278 13.0278 30.7778 12.6806V13.8472C31.2917 14.1111 31.9722 14.2361 32.8194 14.2361C33.6667 14.2361 34.3194 14.0694 34.7639 13.7361C35.2222 13.4028 35.4444 12.9306 35.4444 12.3056C35.4444 12 35.3889 11.7361 35.2778 11.5139C35.1667 11.2917 34.9861 11.0972 34.75 10.9306C34.5139 10.7639 34.125 10.5694 33.5972 10.375C32.9722 10.1389 32.5694 9.94444 32.375 9.80556C32.1944 9.66667 32.0972 9.5 32.0972 9.29167C32.0972 8.88889 32.4583 8.68056 33.1667 8.68056C33.6389 8.68056 34.2083 8.81944 34.9028 9.11111L35.3472 8.09722C34.6806 7.79167 33.9722 7.63889 33.2222 7.63889C32.4583 7.63889 31.8611 7.79167 31.4306 8.09722C30.9861 8.40278 30.7639 8.81944 30.7639 9.375C30.7639 9.83333 30.8889 10.1944 31.1528 10.4861C31.4028 10.7639 31.9028 11.0417 32.6389 11.3194ZM44.6111 12.6806C44.3611 12.1806 44.2361 11.5972 44.2361 10.9306C44.2361 9.90278 44.5 9.08333 45.0278 8.51389C45.5556 7.93056 46.3056 7.63889 47.2639 7.63889C48.1806 7.63889 48.9167 7.93056 49.4583 8.52778C50 9.125 50.2639 9.91667 50.2639 10.9306C50.2639 11.9722 50 12.7917 49.4583 13.375C48.9306 13.9583 48.1806 14.25 47.2222 14.25C46.625 14.25 46.0972 14.1111 45.6389 13.8472C45.2083 13.5694 44.8472 13.1944 44.6111 12.6806ZM45.6389 10.9306C45.6389 12.4028 46.1806 13.1389 47.2639 13.1389C48.3333 13.1389 48.875 12.4028 48.875 10.9306C48.875 9.47222 48.3333 8.75 47.25 8.75C46.6806 8.75 46.2639 8.94444 46.0139 9.31944C45.7639 9.69444 45.6389 10.2361 45.6389 10.9306ZM37.0417 12.2222C37.0417 13.5694 37.6806 14.25 38.9722 14.25C39.2222 14.25 39.4722 14.2222 39.7083 14.1806C39.9444 14.1389 40.1389 14.0833 40.2917 14.0139V13C39.9583 13.0972 39.625 13.1528 39.3056 13.1528C39.0417 13.1528 38.8194 13.0694 38.6667 12.9167C38.5 12.7639 38.4167 12.5139 38.4167 12.1944V8.77778H40.2361V7.75H38.4167V6.33333H37.5833L37.125 7.68056L36.1944 8.18056V8.77778H37.0694V12.2222H37.0417ZM42.8056 28.3472C43.5972 28.6389 44.4583 28.6389 45.25 28.3472C46.7917 27.7639 47.125 26.4722 47.125 25.5V21.6944H45.6528V25.3611C45.6528 25.5694 45.625 25.7778 45.5694 25.9861C45.5139 26.1944 45.4167 26.3889 45.2917 26.5556C45.1528 26.7361 44.9861 26.875 44.7917 26.9722C44.5556 27.0833 44.2917 27.1389 44.0278 27.1389C43.7639 27.1389 43.5 27.0833 43.2639 26.9722C43.0694 26.875 42.9028 26.7222 42.7639 26.5556C42.6389 26.3889 42.5417 26.1944 42.4861 25.9861C42.4306 25.7778 42.4028 25.5694 42.4028 25.3611V21.6667H40.9306V25.5C40.9167 26.9306 41.5556 27.875 42.8056 28.3472ZM14.2778 48.8611L18.5694 44.4583C20.0556 42.9444 21.0833 41.6667 21.6389 40.6389C22.1944 39.6111 22.4861 38.5417 22.4861 37.4306C22.4861 36.0694 22.0694 35 21.2361 34.2222C20.4028 33.4444 19.25 33.0556 17.8056 33.0556C16.1111 33.0556 14.5556 33.6389 13.1667 34.8194L13.7778 35.6111C15.0556 34.5972 16.3889 34.0833 17.7778 34.0833C18.8194 34.0833 19.6667 34.4028 20.3333 35.0278C20.9861 35.6528 21.3194 36.4583 21.3194 37.4583C21.3194 38.1389 21.1944 38.8056 20.9583 39.4306C20.7222 40.0556 20.3472 40.7083 19.8472 41.4028C19.3472 42.0833 18.4722 43.0833 17.2222 44.375L12.7778 49.0139V50.0139H23.25V48.9167H14.3056V48.8611H14.2778ZM33.875 35.1944C34.7917 36.6528 35.2639 38.7778 35.2639 41.5972C35.2639 44.5278 34.8194 46.7083 33.9167 48.1111C33.0139 49.5278 31.6667 50.2222 29.8472 50.2222C28.0972 50.2222 26.7778 49.5 25.8611 48.0417C24.9583 46.5833 24.5 44.4306 24.5 41.5833C24.5 38.6667 24.9444 36.5139 25.8194 35.1111C26.6944 33.7083 28.0417 33 29.8333 33C31.6111 33.0278 32.9583 33.75 33.875 35.1944ZM33.9861 41.5972C33.9861 39.125 33.6528 37.25 33 35.9722C32.3472 34.6944 31.2917 34.0556 29.8472 34.0556C28.4028 34.0556 27.3611 34.6944 26.7083 35.9722C26.0556 37.25 25.7361 39.125 25.7361 41.5972C25.7361 44.1944 26.0694 46.1111 26.75 47.3472C27.4306 48.5833 28.4583 49.2083 29.8333 49.2083C31.2778 49.2083 32.3194 48.5694 32.9861 47.2917C33.6528 46 33.9861 44.1111 33.9861 41.5972ZM37.1944 36.6806L37.8472 37.4861C40.0833 35.7361 41.2639 34.8194 41.375 34.7083C41.5 34.5972 41.6111 34.4861 41.7361 34.375C41.6389 35.5694 41.5972 36.7083 41.5972 37.8194V50H42.7222V33.2917H41.7361L37.1944 36.6806ZM47.9028 34.3889H57.3611L50.4722 50.0139H51.8056L58.7083 34.125V33.2917H47.8889V34.3889H47.9028Z" fill="#212121"/>
</svg>
