<svg width="162" height="30" viewBox="0 0 162 30" fill="none" xmlns="http://www.w3.org/2000/svg">
<g clip-path="url(#clip0)">
<path d="M57.0282 9.10628C53.9948 9.01982 50.9903 9.01982 47.9569 9.10628C45.9346 9.16392 44.4612 10.1726 43.6234 12.0746C43.1034 13.285 43.0456 14.5241 43.1323 15.7633C43.3056 18.4723 44.8657 20.4319 47.4946 20.8354C49.1702 21.0948 50.8458 20.8642 52.2326 20.9507C53.8504 20.9507 55.1793 20.9795 56.5082 20.9507C59.2816 20.9218 61.1595 19.4521 61.7661 16.8008C62.1417 15.2158 62.055 13.6308 61.4195 12.1034C60.6106 10.1726 59.0794 9.16392 57.0282 9.10628ZM57.086 17.2043C56.7105 17.5213 56.2771 17.723 55.786 17.723C53.6193 17.723 51.4236 17.723 49.2569 17.723C48.4769 17.723 47.8991 17.3772 47.5235 16.7432C46.8591 15.6481 46.8591 14.4953 47.4658 13.3426C47.9858 12.3628 48.8813 12.2475 49.8347 12.2475C50.7303 12.2475 51.597 12.2475 52.4926 12.2475C52.4926 12.2763 52.4926 12.2763 52.4926 12.3051C53.6193 12.3051 54.7748 12.3051 55.9015 12.3051C56.4216 12.3051 56.826 12.5069 57.1727 12.8527C58.3283 13.919 58.2705 16.1668 57.086 17.2043ZM28.4563 8.64518C27.8497 7.34835 27.2141 6.05152 26.5785 4.69706C26.463 4.89879 26.4052 4.98524 26.3474 5.12933C24.4985 8.991 22.6495 12.8527 20.8584 16.7432C20.2517 18.04 20.165 19.3656 20.5695 20.7489C21.5228 24.1783 25.1629 26.0803 28.5719 24.9564C32.0098 23.8037 33.7143 20.0285 32.2409 16.7432C30.9986 14.0342 29.7275 11.3253 28.4563 8.64518ZM28.1386 21.2388C27.1852 21.9017 25.8852 21.9017 24.9318 21.2677C23.9496 20.6048 23.4873 19.3945 23.8051 18.2705C23.9496 17.723 24.1807 17.2043 24.3829 16.6855C25.0762 15.0429 25.7696 13.4002 26.5207 11.5847C27.4741 13.919 28.3986 16.0803 29.2075 18.2705C29.6408 19.3368 29.0919 20.6048 28.1386 21.2388ZM15.3982 10.4607C14.5026 8.55873 13.5782 6.65671 12.5959 4.6106C10.6025 8.84691 8.63802 12.8815 6.84686 17.0025C5.83572 19.308 6.38462 21.527 8.118 23.3714C10.1692 25.5616 13.5204 25.9363 16.0049 24.2936C18.5472 22.6509 19.5294 19.5386 18.3161 16.772C17.3916 14.6394 16.3805 12.5645 15.3982 10.4607ZM30.2186 -0.000348985C23.1117 0.114925 15.976 0.0284695 8.86913 0.0284695C8.46468 0.0284695 8.03133 -0.000348983 7.65577 0.0572879C3.26453 0.691294 0 4.43769 0 8.87573C0 12.9103 0 16.9161 0 20.9507C0 26.0803 3.95789 29.9996 9.15803 29.9996C12.6248 29.9996 16.1204 29.9996 19.5872 29.9996C23.1695 29.9996 26.723 29.9996 30.3053 29.9996C35.1299 29.9996 39.1744 25.9939 39.1744 21.2388C39.1744 17.1178 39.1166 12.9968 39.1744 8.90455C39.2611 3.86132 34.7832 -0.0579859 30.2186 -0.000348985ZM29.9586 28.0976C24.9318 28.0976 19.905 28.0976 14.8782 28.0976C13.0004 28.0976 11.1514 28.0976 9.27359 28.0976C4.96903 28.0976 1.87783 25.0429 1.87783 20.8066C1.87783 16.9161 1.87783 13.0256 1.87783 9.1351C1.87783 4.95642 4.94014 1.90167 9.18692 1.90167C12.6537 1.90167 16.0916 1.90167 19.5583 1.90167C23.0829 1.90167 26.6074 1.90167 30.1319 1.90167C34.0898 1.90167 37.2388 5.01406 37.2388 8.90455C37.2388 12.9103 37.2388 16.9161 37.2388 20.893C37.2388 25.0141 34.1476 28.0976 29.9586 28.0976ZM85.1668 9.19273C84.3579 9.22155 83.5201 9.19273 82.7112 9.19273C81.7289 9.19273 80.6022 8.90455 79.8222 9.30801C79.0133 9.71147 78.7244 10.893 78.1466 11.6999C77.0777 13.285 75.9799 14.8411 74.8821 16.4838C73.2931 14.2071 71.7042 11.9881 70.3175 9.68265C70.1153 9.33683 69.8841 9.19273 69.4508 9.19273C67.833 9.22155 66.2152 9.22155 64.5973 9.19273C64.1929 9.19273 64.0484 9.25037 64.0484 9.71147C64.0773 13.2561 64.0773 16.8008 64.0484 20.3743C64.0484 20.7777 64.1929 20.8642 64.5685 20.8642C65.5796 20.8354 66.5618 20.8354 67.573 20.8642C68.0352 20.893 68.1797 20.7489 68.1797 20.259C68.1508 18.2417 68.1797 16.2244 68.1797 14.1783C68.1797 13.9766 68.1219 13.746 68.2952 13.5155C68.4397 13.7172 68.5263 13.8325 68.6419 13.9766C70.0286 16.0803 71.4442 18.1841 72.802 20.2878C73.0331 20.6337 73.2642 20.7777 73.6687 20.7489C74.4776 20.7201 75.2576 20.7201 76.0665 20.7489C76.4999 20.7777 76.731 20.6048 76.9332 20.259C78.1466 18.3858 79.3889 16.5414 80.6311 14.6682C80.92 14.236 81.18 13.8325 81.4689 13.4002C81.4978 13.429 81.5556 13.429 81.5845 13.4579C81.5845 13.6596 81.5845 13.8901 81.5845 14.0919C81.5845 16.138 81.5845 18.1841 81.5845 20.2302C81.5845 20.6913 81.7289 20.8066 82.1623 20.7777C83.1734 20.7489 84.2134 20.7489 85.2246 20.7777C85.5424 20.7777 85.6579 20.6913 85.6579 20.3455C85.6579 16.7432 85.6579 13.1409 85.6579 9.56737C85.6579 9.22155 85.4846 9.19273 85.1668 9.19273ZM153.809 15.2734C154.733 14.7259 155.051 14.236 155.253 13.285C155.773 10.893 154.589 9.36565 152.133 9.22155C151.902 9.22155 151.671 9.19273 151.44 9.19273C150.255 9.19273 149.071 9.19273 147.886 9.19273C145.084 9.19273 142.282 9.19273 139.479 9.19273C139.219 9.19273 138.873 9.04864 138.873 9.56737C138.902 13.1985 138.873 16.8008 138.873 20.4319C138.873 20.7777 139.017 20.8354 139.306 20.8354C140.346 20.8354 141.386 20.8066 142.455 20.8354C142.831 20.8354 142.975 20.7489 142.975 20.3455C142.946 19.5674 143.004 18.7605 142.946 17.9824C142.917 17.406 143.033 17.2043 143.668 17.2331C145.864 17.2619 148.089 17.2331 150.284 17.2043C151.006 17.2043 151.469 17.5789 151.584 18.2994C151.671 18.9046 151.758 19.5097 151.873 20.0861C151.931 20.4031 152.046 20.7489 152.422 20.7777C153.693 20.8066 154.964 20.7777 156.351 20.7777C155.918 20.2878 155.629 19.8556 155.658 19.2792C155.802 17.6365 155.455 16.1668 153.809 15.2734ZM150.226 14.3224C148.002 14.3224 145.777 14.3224 143.553 14.3224C143.12 14.3224 143.033 14.1783 143.033 13.7749C143.033 12.2763 143.004 12.2763 144.506 12.2763C145.315 12.2763 146.095 12.2763 146.904 12.2763C148.031 12.2763 149.129 12.2763 150.255 12.2763C151.093 12.2763 151.44 12.5645 151.44 13.2273C151.411 13.9478 151.006 14.3224 150.226 14.3224ZM136.619 15.0717C136.619 13.285 136.619 11.4694 136.619 9.68265C136.619 9.33683 136.562 9.16392 136.157 9.16392C135.117 9.19273 134.077 9.19273 133.008 9.16392C132.661 9.16392 132.546 9.25037 132.546 9.62501C132.546 13.1985 132.546 16.772 132.546 20.3455C132.546 20.7777 132.719 20.8066 133.066 20.8066C134.077 20.7777 135.059 20.7777 136.07 20.8066C136.504 20.8066 136.648 20.6913 136.648 20.259C136.619 18.5587 136.619 16.8296 136.619 15.0717ZM161.609 9.62501C161.609 9.27919 161.493 9.16392 161.147 9.16392C160.136 9.19273 159.096 9.19273 158.084 9.16392C157.622 9.1351 157.507 9.30801 157.535 9.74028C157.564 11.4982 157.535 13.2561 157.535 15.0141C157.535 16.7432 157.564 18.4723 157.535 20.2014C157.535 20.7201 157.68 20.8354 158.2 20.8354C159.182 20.8066 160.164 20.8066 161.147 20.8354C161.493 20.8354 161.667 20.7777 161.667 20.3743C161.609 16.8008 161.609 13.1985 161.609 9.62501ZM111.456 9.19273C110.474 9.22155 109.492 9.22155 108.539 9.19273C108.047 9.16392 107.961 9.36565 107.961 9.79792C107.99 11.527 107.961 13.2561 107.961 14.9852C107.961 16.772 107.961 18.5299 107.961 20.3167C107.961 20.7201 108.047 20.8642 108.481 20.8642C109.492 20.8354 110.532 20.8354 111.543 20.8642C111.948 20.8642 112.034 20.7201 112.034 20.3743C112.034 16.8296 112.005 13.285 112.034 9.74028C112.005 9.25037 111.832 9.16392 111.456 9.19273ZM100.825 9.07746C99.4961 9.07746 98.1383 9.07746 96.8093 9.07746C95.3649 9.07746 93.8915 9.07746 92.447 9.07746C90.3092 9.10628 88.5469 10.3455 87.7958 12.3051C87.3624 13.4579 87.2757 14.6106 87.3913 15.821C87.6802 18.9334 89.6736 20.893 92.7359 20.9218C95.4515 20.9795 98.196 20.9795 100.912 20.9218C103.136 20.8642 104.87 19.9132 105.765 17.7518C106.256 16.5126 106.314 15.2158 106.198 13.919C105.881 10.9218 103.858 9.10628 100.825 9.07746ZM101.721 16.8296C101.316 17.3772 100.796 17.6942 100.103 17.6942C98.9761 17.6942 97.8783 17.6942 96.7516 17.6942C95.6249 17.6942 94.527 17.6942 93.4004 17.6942C92.707 17.6942 92.187 17.3484 91.8114 16.8008C91.0892 15.7922 91.0603 14.2071 91.7825 13.1697C92.187 12.6221 92.6781 12.2763 93.4292 12.2475C95.6537 12.161 97.8783 12.161 100.103 12.2475C100.796 12.2763 101.316 12.5933 101.692 13.112C102.472 14.1783 102.472 15.7922 101.721 16.8296ZM131.015 9.27919C130.87 9.22155 130.812 9.19273 130.755 9.19273C128.819 9.19273 126.883 9.19273 124.948 9.19273C124.659 9.19273 124.428 9.30801 124.197 9.4521C122.463 10.5184 120.73 11.5847 118.997 12.6509C118.823 12.7662 118.65 12.968 118.39 12.8815C118.39 11.7864 118.39 10.7201 118.39 9.65383C118.39 9.30801 118.303 9.19273 117.928 9.19273C116.888 9.22155 115.848 9.22155 114.779 9.19273C114.432 9.19273 114.316 9.30801 114.316 9.65383C114.316 13.2273 114.316 16.8008 114.316 20.3743C114.316 20.8066 114.49 20.8354 114.837 20.8354C115.848 20.8066 116.83 20.8066 117.841 20.8354C118.332 20.8642 118.39 20.6625 118.39 20.259C118.361 19.0775 118.39 17.9247 118.39 16.7432C118.39 16.5703 118.303 16.3973 118.505 16.2533C120.383 17.4636 122.29 18.6452 124.11 19.9132C124.919 20.4896 125.728 20.7489 126.739 20.6913C128.415 20.6048 130.09 20.6625 131.939 20.6625C128.79 18.5299 125.815 16.4838 122.752 14.4089C125.555 12.6798 128.241 11.0083 131.015 9.27919Z" fill="white"/>
</g>
<defs>
<clipPath id="clip0">
<rect width="161.667" height="30" fill="white"/>
</clipPath>
</defs>
</svg>
