<svg width="158" height="30" viewBox="0 0 158 30" fill="none" xmlns="http://www.w3.org/2000/svg">
<g clip-path="url(#clip0)">
<path d="M32.516 23.5385H31.0538V27.448C31.0538 28.1539 31.0272 28.5068 31.878 28.5068C32.0907 28.5068 32.2768 28.5068 32.516 28.4797V29.7828C32.0375 29.8371 31.8514 29.8371 31.426 29.8371C29.3256 29.8371 29.432 28.7512 29.432 27.0679V23.5385H28.209V22.3439H29.432V20.1177H31.0272V22.3439H32.4895V23.5385H32.516Z" fill="white"/>
<path d="M35.2546 23.3483C35.7863 22.561 36.5574 22.1266 37.5411 22.1266C39.0831 22.1266 40.0402 22.9954 40.0402 24.7058V29.7284H38.4184V25.2488C38.4184 24.2442 38.2057 23.5112 37.0093 23.5112C35.7066 23.5112 35.228 24.5157 35.228 25.7646V29.7556H33.6328V19.5203H35.228V23.3483H35.2546Z" fill="white"/>
<path d="M44.932 30.0001C42.6987 30.0001 41.3428 28.344 41.3428 26.1177C41.3428 23.7829 42.8316 22.0996 44.8522 22.0996C46.9792 22.0996 48.3085 23.7014 48.3085 26.2535V26.4164H42.938C42.9912 27.9096 43.709 28.7512 44.932 28.7512C45.8093 28.7512 46.3411 28.344 46.6601 27.3937H48.2022C47.8831 29.077 46.5804 30.0001 44.932 30.0001ZM44.8788 23.3485C43.8153 23.3485 43.1507 24.0544 43.0177 25.3575H46.7399C46.6335 24.1087 45.9423 23.3485 44.8788 23.3485Z" fill="white"/>
<path d="M56.6032 22.0996C58.3313 22.0996 59.5809 22.7512 59.5809 24.353V28.1268C59.5809 28.5611 59.6607 28.6697 59.9531 28.6697C60.0595 28.6697 60.1127 28.6697 60.3253 28.6426V29.7829C59.8202 29.9186 59.5809 29.9458 59.2885 29.9458C58.677 29.9458 58.225 29.7014 58.0921 29.0498C57.4274 29.7014 56.4969 29.9458 55.5397 29.9458C54.0243 29.9458 53.0938 29.1041 53.0938 27.7195C53.0938 25.7376 54.9016 25.5747 56.3373 25.3847C57.454 25.2489 57.773 25.1675 57.9325 24.9503C58.0123 24.8688 58.0389 24.6788 58.0389 24.4073C58.0389 23.6471 57.5603 23.2942 56.55 23.2942C55.5131 23.2942 55.0612 23.6471 54.9282 24.6245H53.4128C53.5989 22.8055 54.8219 22.0996 56.6032 22.0996ZM56.3373 26.4435C55.5929 26.5521 54.7421 26.715 54.7421 27.6924C54.7421 28.3983 55.2207 28.8055 56.0449 28.8055C56.7095 28.8055 57.321 28.5883 57.6933 28.2082C58.0389 27.8553 58.0123 27.3666 58.0123 26.9322V26.0634C57.5072 26.3349 56.9222 26.3621 56.3373 26.4435Z" fill="white"/>
<path d="M65.4306 23.7556C65.1382 23.7284 65.0318 23.7013 64.8723 23.7013C63.2771 23.7013 62.772 24.923 62.772 26.4705V29.7284H61.1768V22.3438H62.6922V23.837C63.1708 22.8053 63.9684 22.1809 65.1382 22.1809C65.2445 22.1809 65.2977 22.2081 65.4572 22.2081V23.7556H65.4306Z" fill="white"/>
<path d="M69.8168 23.5385H68.3546V27.448C68.3546 28.1539 68.328 28.5068 69.1787 28.5068C69.3914 28.5068 69.5775 28.5068 69.8168 28.4797V29.7828C69.3383 29.8371 69.1522 29.8371 68.7268 29.8371C66.6264 29.8371 66.7328 28.7512 66.7328 27.0679V23.5385H65.5098V22.3439H66.7328V20.1177H68.328V22.3439H69.7902V23.5385H69.8168Z" fill="white"/>
<path d="M81.8878 26.0363C81.8878 28.4525 80.4787 29.9729 78.2454 29.9729C75.9855 29.9729 74.5498 28.4525 74.5498 26.0363C74.5498 23.6471 76.0121 22.0996 78.2454 22.0996C80.4787 22.1268 81.8878 23.6471 81.8878 26.0363ZM76.1716 26.0363C76.1716 27.6924 76.9426 28.6969 78.2454 28.6969C79.5215 28.6969 80.266 27.6924 80.266 26.0091C80.266 24.3802 79.495 23.4028 78.2188 23.4028C76.9426 23.4028 76.1716 24.4345 76.1716 26.0363Z" fill="white"/>
<path d="M86.8332 20.7692C86.5141 20.7421 86.4078 20.7149 86.1419 20.7149C85.4773 20.7149 85.3177 20.905 85.3177 21.6109V22.3167H86.7002V23.5113H85.3443V29.7285H83.7491V23.5385H82.5527V22.3439H83.7491V21.7466C83.7491 20.2262 84.3074 19.4661 85.9026 19.4661C86.2217 19.4661 86.5407 19.4932 86.8598 19.5204V20.7692H86.8332Z" fill="white"/>
<path d="M93.2407 21.095H91.6455V19.4932H93.2407V21.095ZM93.2407 29.7556H91.6455V22.3438H93.2407V29.7556Z" fill="white"/>
<path d="M96.5103 23.4299C97.1218 22.5339 97.8397 22.1267 98.9297 22.1267C100.605 22.1267 101.402 23.1312 101.402 24.8145V29.7557H99.8071V25.4389C99.8071 24.4073 99.6742 23.4842 98.398 23.4842C97.4143 23.4842 96.6167 24.0272 96.6167 25.7376V29.7285H95.0215V22.3439H96.5369V23.4299H96.5103Z" fill="white"/>
<path d="M104.62 23.4299C105.231 22.5339 105.949 22.1267 107.039 22.1267C108.714 22.1267 109.512 23.1312 109.512 24.8145V29.7557H107.916V25.4389C107.916 24.4073 107.784 23.4842 106.507 23.4842C105.524 23.4842 104.726 24.0272 104.726 25.7376V29.7285H103.131V22.3439H104.646V23.4299H104.62Z" fill="white"/>
<path d="M118.152 26.0363C118.152 28.4525 116.743 29.9729 114.51 29.9729C112.25 29.9729 110.814 28.4525 110.814 26.0363C110.814 23.6471 112.277 22.0996 114.51 22.0996C116.743 22.1268 118.152 23.6471 118.152 26.0363ZM112.436 26.0363C112.436 27.6924 113.207 28.6969 114.51 28.6969C115.786 28.6969 116.531 27.6924 116.531 26.0091C116.531 24.3802 115.76 23.4028 114.483 23.4028C113.207 23.4028 112.436 24.4345 112.436 26.0363Z" fill="white"/>
<path d="M120.518 22.344L122.379 28.0454L124.161 22.344H125.836L123.23 29.7829H121.422L118.764 22.344H120.518Z" fill="white"/>
<path d="M129.93 22.0996C131.658 22.0996 132.908 22.7512 132.908 24.353V28.1268C132.908 28.5611 132.988 28.6697 133.28 28.6697C133.387 28.6697 133.44 28.6697 133.652 28.6426V29.7829C133.147 29.9186 132.908 29.9458 132.616 29.9458C132.004 29.9458 131.552 29.7014 131.419 29.0498C130.755 29.7014 129.824 29.9458 128.867 29.9458C127.351 29.9458 126.421 29.1041 126.421 27.7195C126.421 25.7376 128.229 25.5747 129.664 25.3847C130.781 25.2489 131.1 25.1675 131.26 24.9503C131.339 24.8688 131.366 24.6788 131.366 24.4073C131.366 23.6471 130.887 23.2942 129.877 23.2942C128.84 23.2942 128.388 23.6471 128.255 24.6245H126.74C126.926 22.8055 128.176 22.0996 129.93 22.0996ZM129.691 26.4435C128.947 26.5521 128.096 26.715 128.096 27.6924C128.096 28.3983 128.574 28.8055 129.399 28.8055C130.063 28.8055 130.675 28.5883 131.047 28.2082C131.393 27.8553 131.366 27.3666 131.366 26.9322V26.0634C130.861 26.3349 130.276 26.3621 129.691 26.4435Z" fill="white"/>
<path d="M138.199 23.5385H136.736V27.448C136.736 28.1539 136.71 28.5068 137.561 28.5068C137.773 28.5068 137.959 28.5068 138.199 28.4797V29.7828C137.72 29.8371 137.534 29.8371 137.109 29.8371C135.008 29.8371 135.115 28.7512 135.115 27.0679V23.5385H133.892V22.3439H135.115V20.1177H136.71V22.3439H138.172V23.5385H138.199Z" fill="white"/>
<path d="M140.99 21.095H139.395V19.4932H140.99V21.095ZM140.99 29.7556H139.395V22.3438H140.99V29.7556Z" fill="white"/>
<path d="M149.737 26.0363C149.737 28.4525 148.328 29.9729 146.095 29.9729C143.835 29.9729 142.399 28.4525 142.399 26.0363C142.399 23.6471 143.862 22.0996 146.095 22.0996C148.328 22.1268 149.737 23.6471 149.737 26.0363ZM144.021 26.0363C144.021 27.6924 144.792 28.6969 146.095 28.6969C147.371 28.6969 148.116 27.6924 148.116 26.0091C148.116 24.3802 147.345 23.4028 146.068 23.4028C144.792 23.4028 144.021 24.4345 144.021 26.0363Z" fill="white"/>
<path d="M152.635 23.4299C153.247 22.5339 153.965 22.1267 155.055 22.1267C156.73 22.1267 157.527 23.1312 157.527 24.8145V29.7557H155.932V25.4389C155.932 24.4073 155.799 23.4842 154.523 23.4842C153.539 23.4842 152.742 24.0272 152.742 25.7376V29.7285H151.146V22.3439H152.662V23.4299H152.635Z" fill="white"/>
<path d="M5.45029 7.68315C5.45029 8.22613 5.53005 8.71482 5.71615 9.17636C5.90226 9.6379 6.14154 10.0451 6.46058 10.3981C6.77962 10.751 7.15184 11.0225 7.57723 11.2126C8.00262 11.4026 8.45459 11.5112 8.93315 11.5112C9.67758 11.5112 10.3423 11.294 10.9272 10.8596C11.5121 10.4252 11.9375 9.85509 12.2033 9.14921H17.7334C17.6004 10.208 17.2814 11.1311 16.8028 11.8641C16.2977 12.5972 15.6862 13.2216 14.9152 13.6831C14.1442 14.1447 13.2668 14.4705 12.2565 14.6877C11.2462 14.9049 10.1827 14.9863 9.06609 14.9863C7.86968 14.9863 6.69986 14.8777 5.60981 14.6334C4.51975 14.389 3.53604 14.0089 2.71185 13.4388C1.88766 12.8687 1.22299 12.1356 0.717843 11.2126C0.239281 10.2623 0 9.09491 0 7.71029C0 6.48857 0.239281 5.42975 0.691256 4.53382C1.14323 3.6379 1.78131 2.87772 2.57892 2.28043C3.37652 1.68315 4.33364 1.22161 5.45029 0.922964C6.56693 0.624322 7.76333 0.461426 9.06609 0.461426C10.3157 0.461426 11.4589 0.570023 12.4692 0.787218C13.4795 1.00441 14.3569 1.3302 15.0747 1.79174C15.7925 2.25328 16.3774 2.82342 16.8028 3.50215C17.2282 4.18088 17.4941 4.99536 17.6004 5.94559H12.0704C11.7514 5.32115 11.326 4.83247 10.7942 4.47953C10.2625 4.09944 9.651 3.93654 8.95974 3.93654C8.48118 3.93654 8.0292 4.04514 7.60382 4.23518C7.17843 4.42523 6.80621 4.69672 6.48717 5.04966C6.16813 5.4026 5.90226 5.80984 5.74274 6.27138C5.53005 6.65147 5.45029 7.14016 5.45029 7.68315Z" fill="white"/>
<path d="M24.5133 0.515625H30.7878L36.4508 14.8776H31.3196L30.6283 13.1401H24.6729L23.9816 14.8776H18.877L24.5133 0.515625ZM27.6506 5.53825L25.8959 10.0179H29.4053L27.6506 5.53825Z" fill="white"/>
<path d="M46.5002 0.515625L48.9196 7.03146L51.339 0.515625H59.8733V14.8776H54.4496V5.26676L50.887 14.8776H47.0053L43.3895 5.26676V14.8776H37.9658V0.515625H46.5002Z" fill="white"/>
<path d="M67.0253 0.515625H73.2998L78.9627 14.8776H73.8315L73.1402 13.1401H67.1848L66.4935 14.8776H61.3623L67.0253 0.515625ZM70.1359 5.53825L68.3812 10.0179H71.8907L70.1359 5.53825Z" fill="white"/>
<path d="M88.8268 9.4749H85.9022V14.8776H80.4785V0.515625H91.8311C93.0009 0.515625 93.9846 0.624222 94.7556 0.841417C95.5532 1.05861 96.1913 1.3844 96.6698 1.79164C97.1484 2.19888 97.5206 2.66042 97.7333 3.23056C97.946 3.77354 98.0524 4.37083 98.0524 5.02241C98.0524 5.48395 97.9992 5.89119 97.8663 6.32558C97.7333 6.73282 97.5472 7.11291 97.2548 7.4387C96.9623 7.76449 96.5901 8.06314 96.1381 8.28033C95.6861 8.52468 95.1012 8.68757 94.41 8.79617L98.0524 14.8776H92.0969L88.8268 9.4749ZM85.9022 5.89119H91.6715C91.964 5.89119 92.1767 5.80974 92.3362 5.64685C92.4957 5.48395 92.5755 5.26676 92.5755 5.04956C92.5755 4.83237 92.4957 4.66947 92.3096 4.47943C92.1235 4.31653 91.9108 4.23508 91.645 4.23508H85.9022V5.89119Z" fill="white"/>
<path d="M104.113 2.74208C104.113 4.26244 102.917 5.51131 101.428 5.51131C99.9659 5.51131 98.7695 4.28959 98.7695 2.74208C98.7695 1.22172 99.9659 0 101.428 0C102.89 0 104.113 1.22172 104.113 2.74208ZM99.1417 2.76923C99.1417 4.04525 100.179 5.10407 101.428 5.10407C102.678 5.10407 103.715 4.04525 103.715 2.76923C103.715 1.49321 102.678 0.40724 101.428 0.40724C100.179 0.40724 99.1417 1.46606 99.1417 2.76923ZM101.402 1.35747C102.226 1.35747 102.625 1.62896 102.625 2.17195C102.625 2.49774 102.465 2.71493 102.119 2.82353C102.465 2.98643 102.571 3.23077 102.571 3.69231C102.571 3.93665 102.598 3.9638 102.651 4.09955H102.173C102.093 3.8552 102.146 3.74661 102.093 3.58371C102.013 2.98643 101.774 3.01357 101.216 3.01357H100.817V4.09955H100.365V1.35747H101.402ZM101.375 2.63348C101.933 2.63348 102.173 2.49774 102.173 2.17195C102.173 1.71041 101.667 1.76471 101.348 1.76471H100.843V2.66063H101.375V2.63348Z" fill="white"/>
</g>
<defs>
<clipPath id="clip0">
<rect width="157.5" height="30" fill="white"/>
</clipPath>
</defs>
</svg>
