<svg width="93" height="30" viewBox="0 0 93 30" fill="none" xmlns="http://www.w3.org/2000/svg">
<g clip-path="url(#clip0)">
<path d="M21.6393 14.4262V11.4754C21.6393 11.4754 23.9344 11.3115 23.9344 12.9508C23.9344 14.4262 21.6393 14.4262 21.6393 14.4262ZM0 0H30.9836V30H0V0ZM15.082 11.8033H16.5574V19.0164H15.2459V21.6393H22.7869V19.0164H21.4754V16.2295H22.9508L25.2459 21.4754H30.1639V18.8525H28.8525L27.0492 15.082C27.0492 15.082 29.1803 13.9344 29.0164 12.2951C28.6885 9.01639 24.2623 8.68853 24.2623 8.68853H15.082V11.8033ZM2.13115 21.6393H9.83607V19.0164H8.36066V16.3934H10.6557V13.6066H8.36066V11.4754H11.1475V12.7869H13.7705V8.85246H2.13115V11.8033H3.27869V19.0164H2.13115V21.6393ZM31.8033 0H61.6393V30H31.8033V0ZM47.0492 21.6393H52.2951V19.0164H51.1475V14.918L55.9016 21.6393H60V11.4754H60.9836V8.85246H55.9016V11.4754H57.0492V15.082L52.1312 8.85246H47.0492V11.4754H48.0328V18.8525H47.0492V21.6393ZM32.623 21.6393H37.7049V19.0164H36.3934L36.7213 17.541H40L40.3279 19.0164H39.1803V21.6393H46.0656V19.0164H44.7541L42.459 11.4754H43.9344V8.85246H34.2623V11.4754H35.5738L33.1148 18.8525H32.623V21.6393ZM38.5246 11.8033L37.2131 15.4098H39.8361L38.5246 11.8033ZM92.9508 0V30H62.459V0H92.9508ZM78.5246 18.6885H77.0492L73.1148 14.918L76.5574 11.3115H77.3771V8.85246H71.3115V11.3115H72.1312L69.0164 14.4262V11.3115H70.1639V8.85246H62.7869V11.4754H64.2623V18.8525H62.7869V21.4754H70.4918V18.8525H69.5082V15.5738L72.623 19.0164H71.4754V21.6393H78.5246V18.6885ZM90.9836 8.85246H79.1803V11.3115H80.6557V18.6885H79.1803V21.6393H90.9836V17.2131H88.0328V18.6885H85.4098V16.2295H87.7049V13.9344H85.5738V11.3115H88.1967V12.7869H91.1476V8.85246H90.9836Z" fill="white"/>
</g>
<defs>
<clipPath id="clip0">
<rect width="92.9508" height="30" fill="white"/>
</clipPath>
</defs>
</svg>
