<svg width="237" height="30" viewBox="0 0 237 30" fill="none" xmlns="http://www.w3.org/2000/svg">
<g clip-path="url(#clip0)">
<path d="M69.7826 22.5652L67.7609 27.9783H67.4348L65.413 22.5652H63.5217L66.2609 29.8043H68.8696L71.6087 22.5652H69.7826ZM85.3044 29.8043H87.0652V22.5652H85.3044V29.8043ZM91.6304 27.9783H91.3044L89.2826 22.5652H87.3913L90.1304 29.8043H92.7391L95.4783 22.5652H93.6522L91.6304 27.9783ZM78.1304 24.3913H80.6087V29.8043H82.3696V24.3913H84.8478V22.5652H78.0652V24.3913H78.1304ZM73.5 22.5652L70.5652 29.8043H72.5217L72.9783 28.5652H76.6957L77.1522 29.8043H79.1087L76.1739 22.5652H73.5ZM73.5652 27L74.6739 24.2609H75L76.1087 27H73.5652ZM59.6739 22.4348C57.3261 22.4348 56.8043 22.5 56.413 22.9565C56.0217 23.413 55.8913 24.1304 55.8913 26.1522C55.8913 28.3043 56.0217 29.0217 56.413 29.413C56.8696 29.8043 57.3913 29.9348 59.7391 29.9348C62.0217 29.9348 62.6087 29.8696 63 29.413C63.4565 28.9565 63.5217 28.2391 63.5217 26.1522C63.5217 24.0652 63.3913 23.3478 63 22.8913C62.4783 22.5 61.9565 22.4348 59.6739 22.4348ZM61.5 27.7826C61.3044 27.9783 60.9783 28.0435 59.6739 28.0435C58.3044 28.0435 57.9783 27.9783 57.7826 27.7826C57.587 27.587 57.5217 27.2609 57.5217 26.3478C57.5217 25.3696 57.587 24.9783 57.6522 24.7174C57.8478 24.3261 57.9783 24.2609 59.6087 24.2609C61.1739 24.2609 61.3696 24.3261 61.5652 24.587C61.6957 24.8478 61.7609 25.2391 61.7609 26.2826C61.7609 27.2609 61.6957 27.587 61.5 27.7826ZM164.087 17.2174H169.565L171 14.3478H182.152L183.587 17.2174H189.457L180.587 0.326087H172.565L164.022 16.4348V12.913H152.022V0.326087H146.609V17.2174H163.63H164.087ZM176.087 4.23913H177.13L180.391 10.6304H172.826L176.087 4.23913ZM36.2609 29.8043H38.0217V22.5652H36.2609V29.8043ZM63.9783 14.3478H75.1304L76.5652 17.2174H82.4348L73.6304 0.326087H65.6087L56.6739 17.2174H62.5435L63.9783 14.3478ZM69.1304 4.23913H70.1739L73.4348 10.6304H65.8696L69.1304 4.23913ZM54.7826 7.63043C53.7391 6.97826 52.5652 6.84783 47.1522 6.71739C43.4348 6.58696 42.1304 6.52174 41.6739 6.3913C41.2174 6.26087 40.9565 5.93478 40.9565 5.28261C40.9565 4.04348 41.2826 3.91304 45.6522 3.91304C49.5 3.91304 50.087 3.97826 50.5435 4.30435C50.8043 4.56522 50.8696 4.82609 50.8696 5.6087H55.8261C55.8261 5.28261 55.8261 4.95652 55.8261 4.82609C55.8261 2.73913 55.3696 1.63043 54.2609 0.978261C53.0217 0.26087 51.2609 0.0652174 46.5652 0.0652174C40.4348 0.0652174 39 0.195652 37.6957 0.913043C36.5217 1.56522 35.9348 3.06522 35.9348 5.6087C35.9348 7.30435 36.2609 8.41304 36.8478 9.13043C37.6304 9.97826 38.8043 10.3696 41.2826 10.4348C41.8043 10.4348 43.5652 10.5 45.3913 10.6304C47.2174 10.6957 48.8478 10.7609 49.4348 10.7609C51.0652 10.7609 51.4565 11.0217 51.4565 12.0652C51.4565 12.7826 51.2609 13.1739 50.8696 13.3043C50.413 13.5 49.8261 13.5 45.913 13.5C42.2609 13.5 41.7391 13.4348 41.2174 13.1739C40.8261 12.913 40.6957 12.587 40.6957 11.6087H35.6739V12.3913C35.6739 14.8043 36.0652 15.7826 37.3696 16.5C38.6087 17.1522 40.6957 17.413 45.7174 17.413C50.9348 17.413 53.0217 17.2826 54.0652 16.8261C55.6957 16.1739 56.3478 14.7391 56.3478 11.8696C56.4783 9.45652 56.0217 8.34783 54.7826 7.63043ZM53.4783 27.9783H53.2826L50.3478 22.5652H47.3478V29.8043H49.1087L49.0435 24.3913H49.2391L52.1739 29.8043H55.1087V22.5652H53.3478L53.4783 27.9783ZM44.9348 27.9783H44.7391L41.8043 22.5652H38.8043V29.8043H40.5652L40.5 24.3913H40.6957L43.6304 29.8043H46.5652V22.5652H44.8043L44.9348 27.9783ZM0 30H30V0H0V30ZM24.1304 18.2609C26.2826 17.4783 28.0435 15.6522 28.0435 15.6522V28.6957H18.913V25.4348C18.913 25.4348 18.4565 20.413 24.1304 18.2609ZM1.30435 11.087C2.80435 12.587 6.91304 12.3913 12.3913 12.3913C17.8696 12.3913 17.6087 16.0435 17.6087 15.6522C17.6087 15.2609 17.6087 28.6957 17.6087 28.6957H1.30435V11.087ZM174 25.8913C174 26.087 174 26.413 174 26.6739C173.935 27.3261 173.935 27.5217 173.804 27.7174C173.609 27.9783 173.283 28.0435 172.109 28.0435C170.674 28.0435 170.348 27.913 170.217 27.3261C170.152 27 170.152 27 170.152 25.8913V22.5652H168.457V25.8913C168.457 27.1304 168.457 27.1304 168.457 27.3913C168.522 28.3696 168.587 28.8261 168.848 29.1522C169.239 29.7391 169.957 29.8696 172.043 29.8696C173.283 29.8696 173.87 29.8043 174.391 29.6739C175.043 29.4783 175.435 28.8913 175.565 28.1087C175.63 27.587 175.63 27.4565 175.63 25.8261V22.5H173.935V25.8913H174ZM183.261 29.8043H185.022V22.5652H183.261V29.8043ZM176.087 24.3913H178.565V29.8043H180.326V24.3913H182.804V22.5652H176.087V24.3913ZM97.4348 26.9348H101.739V25.3043H97.4348V24.2609H101.935V22.5652H95.7391V29.8043H101.935V28.0435H97.3696V26.9348H97.4348ZM157.761 22.4348C155.413 22.4348 154.891 22.5 154.5 22.9565C154.109 23.413 153.978 24.1304 153.978 26.1522C153.978 28.3043 154.109 29.0217 154.5 29.413C154.957 29.8043 155.478 29.9348 157.826 29.9348C160.109 29.9348 160.696 29.8696 161.087 29.413C161.543 28.9565 161.609 28.2391 161.609 26.1522C161.609 24.0652 161.478 23.3478 161.087 22.8913C160.63 22.5 160.109 22.4348 157.761 22.4348ZM159.652 27.7826C159.457 27.9783 159.13 28.0435 157.761 28.0435C156.391 28.0435 156.065 27.9783 155.87 27.7826C155.674 27.587 155.609 27.2609 155.609 26.3478C155.609 25.3696 155.674 24.9783 155.739 24.7174C155.935 24.3261 156.065 24.2609 157.696 24.2609C159.261 24.2609 159.457 24.3261 159.652 24.587C159.783 24.8478 159.848 25.2391 159.848 26.2826C159.913 27.2609 159.848 27.587 159.652 27.7826ZM189.522 22.4348C187.174 22.4348 186.652 22.5 186.261 22.9565C185.87 23.413 185.739 24.1304 185.739 26.1522C185.739 28.3043 185.87 29.0217 186.261 29.413C186.717 29.8043 187.239 29.9348 189.587 29.9348C191.87 29.9348 192.457 29.8696 192.848 29.413C193.304 28.9565 193.37 28.2391 193.37 26.1522C193.37 24.0652 193.239 23.3478 192.848 22.8913C192.391 22.5 191.804 22.4348 189.522 22.4348ZM191.413 27.7826C191.217 27.9783 190.891 28.0435 189.522 28.0435C188.152 28.0435 187.826 27.9783 187.63 27.7826C187.435 27.587 187.37 27.2609 187.37 26.3478C187.37 25.3696 187.435 24.9783 187.5 24.7174C187.696 24.3261 187.826 24.2609 189.457 24.2609C191.022 24.2609 191.217 24.3261 191.413 24.587C191.543 24.8478 191.609 25.2391 191.609 26.2826C191.674 27.2609 191.609 27.587 191.413 27.7826ZM206.087 10.6957C206.087 13.1739 205.957 13.2391 200.348 13.2391C194.87 13.2391 194.804 13.1739 194.804 8.86957C194.804 6.32609 195 5.34783 195.587 4.82609C196.109 4.36957 197.087 4.30435 200.283 4.30435C201.457 4.30435 202.957 4.36957 203.804 4.43478C204.913 4.5 205.304 4.63043 205.5 4.8913C205.696 5.15217 205.761 5.41304 205.826 6.3913H210.978V5.54348C210.978 2.73913 210.391 1.5 208.891 0.782609C207.783 0.195652 206.152 0.0652174 201.783 0.0652174C193.109 0.0652174 191.152 0.521739 190.239 2.6087C189.848 3.58696 189.717 5.02174 189.717 8.86957C189.717 10.8261 189.783 12.2609 189.848 13.0435C190.043 14.9348 190.63 15.913 191.87 16.5652C193.239 17.2826 195.391 17.4783 201.848 17.4783C205.696 17.4783 207.587 17.2826 208.957 16.8261C210.717 16.1739 211.37 14.9348 211.37 12.2609C211.37 12 211.37 11.6087 211.304 10.6957H206.087ZM208.63 25.6957C208.304 25.4348 207.913 25.3696 206.087 25.3043C204.848 25.2391 204.457 25.2391 204.261 25.1739C204.13 25.1087 204 24.9783 204 24.7174C204 24.1957 204.13 24.1304 205.565 24.1304C206.87 24.1304 207.065 24.1304 207.196 24.3261C207.261 24.4565 207.326 24.5217 207.326 24.913H208.957C208.957 24.7826 208.957 24.587 208.957 24.587C208.957 23.6739 208.826 23.2174 208.435 22.9565C208.043 22.6304 207.457 22.5652 205.891 22.5652C203.87 22.5652 203.413 22.6304 202.957 22.9565C202.565 23.2174 202.37 23.8696 202.37 24.9783C202.37 25.6957 202.5 26.1522 202.696 26.4783C202.957 26.8696 203.348 27 204.13 27.0652C204.326 27.0652 204.848 27.1304 205.5 27.1304C206.087 27.1304 206.674 27.1957 206.804 27.1957C207.326 27.1957 207.457 27.3261 207.457 27.7826C207.457 28.1087 207.391 28.2391 207.261 28.3043C207.13 28.3696 206.935 28.4348 205.63 28.4348C204.457 28.4348 204.261 28.4348 204.065 28.3043C203.935 28.1739 203.87 28.0435 203.87 27.587H202.239V27.913C202.239 28.9565 202.37 29.413 202.761 29.6739C203.152 30 203.87 30.0652 205.5 30.0652C207.196 30.0652 207.913 30 208.239 29.8043C208.761 29.5435 209.022 28.8913 209.022 27.6522C209.217 26.4783 209.022 26.0217 208.63 25.6957ZM200.087 27.9783H199.891L196.957 22.5652H193.957V29.8043H195.717L195.652 24.3913H195.848L198.783 29.8043H201.717V22.5652H199.957L200.087 27.9783ZM164.087 22.5652H162.326V29.8043H168.065V27.9783H164.087V22.5652ZM121.891 22.4348C119.543 22.4348 119.022 22.5 118.63 22.9565C118.239 23.413 118.109 24.1304 118.109 26.1522C118.109 28.3043 118.239 29.0217 118.63 29.413C119.087 29.8043 119.609 29.9348 121.957 29.9348C124.239 29.9348 124.826 29.8696 125.217 29.413C125.674 28.9565 125.739 28.2391 125.739 26.1522C125.739 24.0652 125.609 23.3478 125.217 22.8913C124.761 22.5 124.239 22.4348 121.891 22.4348ZM123.783 27.7826C123.587 27.9783 123.261 28.0435 121.891 28.0435C120.522 28.0435 120.196 27.9783 120 27.7826C119.804 27.587 119.739 27.2609 119.739 26.3478C119.739 25.3696 119.804 24.9783 119.87 24.7174C120.065 24.3261 120.196 24.2609 121.826 24.2609C123.391 24.2609 123.587 24.3261 123.783 24.587C123.913 24.8478 123.978 25.2391 123.978 26.2826C124.043 27.2609 123.978 27.587 123.783 27.7826ZM122.217 13.1739H108.457V10.5H121.435V6.78261H108.457V4.30435H122.087V0.326087H103.37V17.2174H122.217V13.1739ZM114.652 27.9783H114.326L113.022 22.5652H111L109.761 27.9783H109.435L107.935 22.5652H106.174L108.261 29.8043H110.87L111.978 24.4565L113.087 29.8043H115.696L117.848 22.5652H116.022L114.652 27.9783ZM90.7174 7.1087L85.2391 0.326087H78.4565L88.1739 11.2826V17.2826H93.5217V11.2826L102.783 0.326087H96.0652L90.7174 7.1087ZM144.848 5.80435C144.848 2.86956 144.457 1.76087 143.152 0.978261C142.043 0.326087 142.043 0.326087 136.239 0.326087H123.783V17.2174H128.935V12.913H136.239C138.391 12.913 138.717 12.9783 139.109 13.3696C139.5 13.8261 139.63 14.413 139.63 16.3043V17.2174H144.717V15.6522C144.848 11.7391 144.391 10.9565 141.783 10.6957C142.826 10.5652 143.348 10.3696 143.804 9.91304C144.652 9.19565 144.848 8.21739 144.848 5.80435ZM139.109 8.47826C138.783 8.67391 138.783 8.67391 136.239 8.73913H129V4.56522H136.239C138.652 4.56522 138.652 4.56522 139.043 4.76087C139.5 4.95652 139.696 5.47826 139.696 6.58696C139.761 7.63043 139.565 8.15217 139.109 8.47826ZM152.935 25.6957C152.609 25.4348 152.217 25.3696 150.391 25.3043C149.152 25.2391 148.761 25.2391 148.565 25.1739C148.435 25.1087 148.304 24.9783 148.304 24.7174C148.304 24.1957 148.435 24.1304 149.87 24.1304C151.174 24.1304 151.37 24.1304 151.5 24.3261C151.565 24.4565 151.63 24.5217 151.63 24.913H153.261C153.261 24.7826 153.261 24.587 153.261 24.587C153.261 23.6739 153.13 23.2174 152.739 22.9565C152.348 22.6304 151.761 22.5652 150.196 22.5652C148.174 22.5652 147.717 22.6304 147.261 22.9565C146.87 23.2174 146.674 23.8696 146.674 24.9783C146.674 25.6957 146.804 26.1522 147 26.4783C147.261 26.8696 147.652 27 148.435 27.0652C148.63 27.0652 149.152 27.1304 149.804 27.1304C150.391 27.1304 150.978 27.1957 151.109 27.1957C151.63 27.1957 151.761 27.3261 151.761 27.7826C151.761 28.1087 151.696 28.2391 151.565 28.3043C151.435 28.3696 151.239 28.4348 149.935 28.4348C148.761 28.4348 148.565 28.4348 148.37 28.3043C148.239 28.1739 148.174 28.0435 148.174 27.587H146.543V27.913C146.543 28.9565 146.674 29.413 147.065 29.6739C147.457 30 148.174 30.0652 149.804 30.0652C151.5 30.0652 152.217 30 152.543 29.8043C153.065 29.5435 153.326 28.8913 153.326 27.6522C153.457 26.4783 153.326 26.0217 152.935 25.6957ZM140.739 22.6957C140.283 22.5652 140.087 22.5652 138.652 22.5652H134.609V29.8043H138.652C140.543 29.8043 141 29.6739 141.457 29.2174C141.848 28.6957 141.978 27.9783 141.978 26.087C141.978 24.913 141.913 24.4565 141.848 23.9348C141.652 23.2174 141.261 22.8261 140.739 22.6957ZM138.652 27.9783H136.304V24.3913H138.652C139.696 24.3913 139.891 24.4565 140.087 24.7174C140.283 24.9783 140.283 25.3696 140.283 26.2826C140.283 27.8478 140.217 27.9783 138.652 27.9783ZM130.109 22.4348C127.761 22.4348 127.239 22.5 126.848 22.9565C126.457 23.413 126.326 24.1304 126.326 26.1522C126.326 28.3043 126.457 29.0217 126.848 29.413C127.304 29.8043 127.826 29.9348 130.174 29.9348C132.457 29.9348 133.043 29.8696 133.435 29.413C133.891 28.9565 133.957 28.2391 133.957 26.1522C133.957 24.0652 133.826 23.3478 133.435 22.8913C132.978 22.5 132.457 22.4348 130.109 22.4348ZM132 27.7826C131.804 27.9783 131.478 28.0435 130.109 28.0435C128.739 28.0435 128.413 27.9783 128.217 27.7826C128.022 27.587 127.957 27.2609 127.957 26.3478C127.957 25.3696 128.022 24.9783 128.087 24.7174C128.283 24.3261 128.413 24.2609 130.043 24.2609C131.609 24.2609 131.804 24.3261 132 24.587C132.13 24.8478 132.196 25.2391 132.196 26.2826C132.261 27.2609 132.196 27.587 132 27.7826ZM225.848 8.6087L235.63 0.195652H227.739L221.087 6.45652H218.283V0.326087H213.13V17.2174H218.283V10.7609H221.087L228.652 17.2174H236.478L225.848 8.6087Z" fill="white"/>
</g>
<defs>
<clipPath id="clip0">
<rect width="236.478" height="30" fill="white"/>
</clipPath>
</defs>
</svg>
