<svg width="166" height="30" viewBox="0 0 166 30" fill="none" xmlns="http://www.w3.org/2000/svg">
<g clip-path="url(#clip0)">
<path d="M0 0.46332H12.278C17.9537 0.46332 23.6293 1.85328 23.6293 8.4556C23.6293 11.0039 22.3552 13.668 19.8069 14.4788C22.9344 15.6371 25.0193 17.9537 25.0193 21.4286C25.0193 27.4517 19.4595 29.4209 14.3629 29.4209H0V0.46332ZM10.7722 11.583C12.278 11.583 14.0154 11.4672 14.0154 9.38224C14.0154 7.18147 12.0463 7.41313 10.5405 7.41313H9.72973V11.583H10.7722ZM9.72973 22.5869H10.888C12.6255 22.5869 15.1737 22.5869 15.1737 20.1544C15.1737 17.722 12.5097 17.722 10.7722 17.722H9.72973V22.5869ZM26.0618 0.46332H36.6023V20.1544H45.4054V29.5367H26.0618V0.46332ZM79.3436 0.46332H89.4208L98.9189 16.5637H99.2664C98.8031 14.1313 98.3398 11.583 98.3398 9.15058V0.46332H108.417V29.5367H98.3398L89.0734 14.2471H88.7259C89.0734 16.2162 89.4208 18.1853 89.4208 20.0386V29.4209H79.3436V0.46332ZM132.278 12.278C130.656 10.6564 128.571 9.26641 126.139 9.26641C123.012 9.26641 120.347 11.8147 120.347 14.9421C120.347 18.1853 123.127 20.6178 126.255 20.6178C128.687 20.6178 130.656 19.5753 132.278 17.9537L131.93 28.8417C130.193 29.6525 126.255 30 124.402 30C116.178 30 109.691 23.5135 109.691 15.2896C109.691 6.83398 116.409 0 124.865 0C127.297 0 129.73 0.46332 131.93 1.1583L132.278 12.278ZM165.521 15.0579C165.521 24.3243 158.34 30 149.421 30C140.618 30 133.32 24.4402 133.32 15.0579C133.32 5.90734 140.502 0 149.421 0C158.224 0 165.521 5.90734 165.521 15.0579ZM143.977 15.1737C143.977 18.5328 146.178 20.7336 149.421 20.7336C152.664 20.7336 154.865 18.417 154.865 15.1737C154.865 12.0463 152.78 9.49807 149.421 9.49807C146.062 9.49807 143.977 12.1622 143.977 15.1737ZM57.4517 29.5367H46.332L56.4093 0.46332H68.1081L78.417 29.5367H67.1815L66.2548 25.9459H58.2625L57.4517 29.5367ZM62.3166 10.0772C62.3166 11.3514 60.2317 18.9961 60.2317 18.9961H64.5174C64.4015 18.9961 62.3166 11.4672 62.3166 10.0772Z" fill="white"/>
</g>
<defs>
<clipPath id="clip0">
<rect width="165.521" height="30" fill="white"/>
</clipPath>
</defs>
</svg>
