<svg width="113" height="30" viewBox="0 0 113 30" fill="none" xmlns="http://www.w3.org/2000/svg">
<g clip-path="url(#clip0)">
<path d="M33.2119 29.193H41.7623L51.6553 1.40356H43.1049L33.2119 29.193Z" fill="white"/>
<path d="M67.3428 29.1929H75.7872L80.2037 16.9473C81.9703 13.9999 85.5035 14.6666 84.8322 17.228L80.5923 29.1578H89.4254L93.6299 17.5087C94.7252 14.5964 99.3537 14.421 98.3644 17.8596L94.4426 29.1578H102.958L107.727 15.7543C109.317 11.1929 103.7 5.08762 94.0539 11.8245C92.9233 8.77183 88.1534 6.84201 81.7936 11.2981L82.2176 9.47359H74.3032L67.3428 29.1929Z" fill="white"/>
<path d="M107.869 1.75439C108.116 0.877193 108.929 0.245614 109.883 0.245614C111.049 0.245614 112.003 1.19298 112.003 2.35088C112.003 3.50877 111.049 4.45614 109.883 4.45614C108.717 4.45614 107.763 3.54386 107.763 2.35088C107.763 2.14035 107.798 1.96491 107.869 1.75439L107.622 1.64912C107.551 1.85965 107.516 2.10526 107.516 2.35088C107.516 3.64912 108.576 4.70175 109.883 4.70175C111.19 4.70175 112.25 3.64912 112.25 2.35088C112.25 1.05263 111.19 0 109.883 0C108.823 0 107.904 0.701754 107.622 1.68421L107.869 1.75439Z" fill="white"/>
<path d="M109.46 2.31578H109.354V1.61402H110.343C110.767 1.75437 110.59 2.31578 110.237 2.31578H109.46V2.56139H110.06C110.802 2.66665 110.414 3.33332 110.59 3.54385H110.838C110.661 3.26315 110.979 2.73683 110.52 2.5263C111.156 2.2456 110.873 1.36841 110.272 1.36841H109.142V3.50876H109.389V2.56139H109.495V2.31578H109.46Z" fill="white"/>
<path d="M58.6867 9.43848H50.7016L46.0024 22.5613C43.6705 29.9648 51.1609 32.4209 58.298 27.2981L57.8387 29.1929H65.4704L72.4662 9.47356H64.3045L60.1353 20.7367C59.1813 23.4736 53.7401 25.0174 54.5881 20.842L58.6867 9.43848Z" fill="white"/>
<path d="M13.3202 14.3509L8.05566 29.1579H16.0761L16.9947 26.9825C17.4894 30.3158 28.5483 33.1229 34.4841 21.2983C39.1127 12.772 33.8482 4.28076 23.2838 10.5264L26.4637 1.40356H17.878L13.3202 14.3509L21.9059 15.8246C23.3898 14.4211 25.1211 13.965 26.4991 14.8772C28.1243 15.9299 27.8417 18.9825 26.1811 21.0527C24.5911 22.9825 22.0472 23.965 20.5986 23.0176C19.0086 21.965 19.1146 19.579 20.7046 17.2983C21.0932 16.7369 21.4819 16.2457 21.9412 15.8597L13.3202 14.3509Z" fill="white"/>
<path d="M5.37049 17.9298C5.37049 17.9298 5.97114 16.421 7.06644 17.228L8.62106 18.5263C8.62106 18.5263 9.4337 19.1228 9.2217 17.9649L8.30307 9.96488C8.30307 9.96488 8.1264 8.70172 7.2431 9.54382L1.62528 15.1579C1.62528 15.1579 0.847973 15.8947 1.41329 16L3.67455 15.9649C3.67455 15.9649 5.2645 15.9649 4.59319 17.9649L0.741976 29.1929H0L3.99254 17.8245C3.99254 17.8245 4.2752 16.6666 3.49789 16.7368L1.34262 16.7719C0.247325 16.7719 0.211993 15.5789 0.953969 14.9122L6.99577 8.87716C7.73775 8.10523 8.90371 8.52628 9.04504 9.57891C9.25704 11.3684 10.0697 18.3508 10.0697 18.3508C10.211 19.4736 9.08037 19.9298 8.30307 19.1579L7.10177 18.1754C7.10177 18.1754 6.32446 17.3684 6.00647 18.421L2.15526 29.1579H1.44862L5.37049 17.9298Z" fill="white"/>
</g>
<defs>
<clipPath id="clip0">
<rect width="112.286" height="30" fill="white"/>
</clipPath>
</defs>
</svg>
