<svg width="229" height="49" viewBox="0 0 229 49" xmlns="http://www.w3.org/2000/svg">
<path d="M18.76 24.696H5.768L2.92 31H1.16L11.464 8.6H13.096L23.4 31H21.64L18.76 24.696ZM18.152 23.32L12.264 10.392L6.408 23.32H18.152ZM48.9065 8.6V31H47.5625L32.2985 11.544V31H30.6665V8.6H32.0425L47.2745 28.056V8.6H48.9065ZM59.929 8.6H68.793C71.1183 8.6 73.177 9.08 74.969 10.04C76.7823 11 78.1903 12.3333 79.193 14.04C80.1957 15.7253 80.697 17.6453 80.697 19.8C80.697 21.9547 80.1957 23.8853 79.193 25.592C78.1903 27.2773 76.7823 28.6 74.969 29.56C73.177 30.52 71.1183 31 68.793 31H59.929V8.6ZM68.665 29.528C70.7343 29.528 72.5583 29.1227 74.137 28.312C75.7157 27.48 76.9317 26.328 77.785 24.856C78.6383 23.384 79.065 21.6987 79.065 19.8C79.065 17.9013 78.6383 16.216 77.785 14.744C76.9317 13.272 75.7157 12.1307 74.137 11.32C72.5583 10.488 70.7343 10.072 68.665 10.072H61.561V29.528H68.665Z"/>
<path d="M114.456 31L109.112 23.512C108.323 23.6187 107.597 23.672 106.936 23.672H100.536V31H98.904V8.6H106.936C109.752 8.6 111.96 9.272 113.56 10.616C115.16 11.9387 115.96 13.784 115.96 16.152C115.96 17.9227 115.501 19.416 114.584 20.632C113.688 21.8267 112.397 22.6693 110.712 23.16L116.312 31H114.456ZM106.936 22.232C109.325 22.232 111.149 21.7093 112.408 20.664C113.667 19.5973 114.296 18.0933 114.296 16.152C114.296 14.2107 113.667 12.7173 112.408 11.672C111.149 10.6053 109.325 10.072 106.936 10.072H100.536V22.232H106.936ZM133.903 31.16C131.066 31.16 128.858 30.3387 127.279 28.696C125.722 27.0533 124.943 24.6533 124.943 21.496V8.6H126.575V21.432C126.575 24.184 127.205 26.2427 128.463 27.608C129.722 28.9733 131.546 29.656 133.935 29.656C136.303 29.656 138.117 28.9733 139.375 27.608C140.634 26.2427 141.263 24.184 141.263 21.432V8.6H142.895V21.496C142.895 24.6533 142.106 27.0533 140.527 28.696C138.949 30.3387 136.741 31.16 133.903 31.16ZM167.022 19.448C168.622 19.7467 169.838 20.376 170.67 21.336C171.524 22.296 171.95 23.544 171.95 25.08C171.95 26.9787 171.257 28.44 169.87 29.464C168.484 30.488 166.425 31 163.694 31H153.71V8.6H163.054C165.486 8.6 167.374 9.10133 168.718 10.104C170.084 11.0853 170.766 12.4933 170.766 14.328C170.766 15.608 170.425 16.6853 169.742 17.56C169.081 18.4347 168.174 19.064 167.022 19.448ZM155.342 10.008V18.936H162.99C164.953 18.936 166.457 18.5627 167.502 17.816C168.569 17.048 169.102 15.928 169.102 14.456C169.102 13.0053 168.569 11.9067 167.502 11.16C166.457 10.392 164.953 10.008 162.99 10.008H155.342ZM163.694 29.592C165.87 29.592 167.513 29.2187 168.622 28.472C169.753 27.704 170.318 26.5307 170.318 24.952C170.318 23.3733 169.753 22.2107 168.622 21.464C167.513 20.7173 165.87 20.344 163.694 20.344H155.342V29.592H163.694ZM194.829 24.696H181.837L178.989 31H177.229L187.533 8.6H189.165L199.469 31H197.709L194.829 24.696ZM194.221 23.32L188.333 10.392L182.477 23.32H194.221ZM224.975 8.6V31H223.631L208.367 11.544V31H206.735V8.6H208.111L223.343 28.056V8.6H224.975Z"/>
<path d="M7.84 40L4.83 45.19L1.79 40H1.18V47H1.89V41.43L4.64 46.11H4.99L7.74 41.4V47H8.45V40H7.84ZM19.5289 47H20.3089L17.1089 40H16.3789L13.1789 47H13.9489L14.7889 45.13H18.6889L19.5289 47ZM15.0589 44.53L16.7389 40.77L18.4189 44.53H15.0589ZM28.0127 47.06C29.0427 47.06 29.9627 46.71 30.5827 46.03L30.1127 45.56C29.5427 46.15 28.8427 46.4 28.0427 46.4C26.3527 46.4 25.0827 45.16 25.0827 43.5C25.0827 41.84 26.3527 40.6 28.0427 40.6C28.8427 40.6 29.5427 40.85 30.1127 41.43L30.5827 40.96C29.9627 40.28 29.0427 39.94 28.0227 39.94C25.9127 39.94 24.3527 41.45 24.3527 43.5C24.3527 45.55 25.9127 47.06 28.0127 47.06ZM40.003 40H34.353V40.64H36.813V47H37.543V40.64H40.003V40ZM45.4419 46.36V43.76H49.0619V43.13H45.4419V40.64H49.5019V40H44.7019V47H49.6519V46.36H45.4419ZM57.3137 40H54.6937V47H55.4337V44.79H57.3137C59.0937 44.79 60.1737 43.89 60.1737 42.4C60.1737 40.9 59.0937 40 57.3137 40ZM57.2937 44.14H55.4337V40.64H57.2937C58.6937 40.64 59.4337 41.28 59.4337 42.4C59.4337 43.5 58.6937 44.14 57.2937 44.14ZM68.2533 47.06C69.2833 47.06 70.2033 46.71 70.8233 46.03L70.3533 45.56C69.7833 46.15 69.0833 46.4 68.2833 46.4C66.5933 46.4 65.3233 45.16 65.3233 43.5C65.3233 41.84 66.5933 40.6 68.2833 40.6C69.0833 40.6 69.7833 40.85 70.3533 41.43L70.8233 40.96C70.2033 40.28 69.2833 39.94 68.2633 39.94C66.1533 39.94 64.5933 41.45 64.5933 43.5C64.5933 45.55 66.1533 47.06 68.2533 47.06ZM80.5415 47H81.3915L78.6415 43.4L81.2415 40H80.4415L78.0715 43.14H76.4715V40H75.7515V47H76.4715V43.79H78.0715L80.5415 47ZM91.1707 47H91.9507L88.7507 40H88.0207L84.8207 47H85.5907L86.4307 45.13H90.3307L91.1707 47ZM86.7007 44.53L88.3807 40.77L90.0607 44.53H86.7007ZM98.6098 40C96.9398 40 95.8498 40.89 95.8498 42.48C95.8498 43.62 96.4198 44.42 97.4398 44.73L95.8498 47H96.6398L98.1098 44.86C98.2398 44.87 98.3698 44.88 98.5098 44.88H100.6V47H101.33V40H98.6098ZM96.5898 42.46C96.5898 41.27 97.3398 40.64 98.6398 40.64H100.6V44.25H98.5698C97.2698 44.25 96.5898 43.6 96.5898 42.46ZM115.731 40H113.111V47H113.851V44.79H115.731C117.511 44.79 118.591 43.89 118.591 42.4C118.591 40.9 117.511 40 115.731 40ZM115.711 44.14H113.851V40.64H115.711C117.111 40.64 117.851 41.28 117.851 42.4C117.851 43.5 117.111 44.14 115.711 44.14ZM124.253 46.36V43.76H127.873V43.13H124.253V40.64H128.313V40H123.513V47H128.463V46.36H124.253ZM138.825 47H139.605L136.405 40H135.675L132.475 47H133.245L134.085 45.13H137.985L138.825 47ZM134.355 44.53L136.035 40.77L137.715 44.53H134.355ZM145.106 40L145.006 43C144.916 45.36 144.576 46.38 143.686 46.38C143.576 46.38 143.486 46.37 143.356 46.34L143.296 47C143.506 47.05 143.676 47.07 143.856 47.07C145.126 47.07 145.566 45.78 145.666 42.98L145.746 40.64H149.126V47H149.856V40H145.106ZM158.548 42.5H156.348V40H155.618V47H158.398C160.128 47 161.098 46.21 161.098 44.7C161.098 43.25 160.198 42.5 158.548 42.5ZM158.378 46.41H156.348V43.1H158.378C159.688 43.1 160.358 43.62 160.358 44.71C160.358 45.83 159.668 46.41 158.378 46.41ZM171.237 40V43.12H166.857V40H166.117V47H166.857V43.77H171.237V47H171.967V40H171.237ZM180.8 47.06C182.9 47.06 184.47 45.55 184.47 43.5C184.47 41.45 182.9 39.94 180.8 39.94C178.68 39.94 177.12 41.46 177.12 43.5C177.12 45.54 178.68 47.06 180.8 47.06ZM180.8 46.4C179.11 46.4 177.85 45.17 177.85 43.5C177.85 41.83 179.11 40.6 180.8 40.6C182.48 40.6 183.73 41.83 183.73 43.5C183.73 45.17 182.48 46.4 180.8 46.4ZM192.696 47.06C193.726 47.06 194.646 46.71 195.266 46.03L194.796 45.56C194.226 46.15 193.526 46.4 192.726 46.4C191.036 46.4 189.766 45.16 189.766 43.5C189.766 41.84 191.036 40.6 192.726 40.6C193.526 40.6 194.226 40.85 194.796 41.43L195.266 40.96C194.646 40.28 193.726 39.94 192.706 39.94C190.596 39.94 189.036 41.45 189.036 43.5C189.036 45.55 190.596 47.06 192.696 47.06ZM204.686 40H199.036V40.64H201.496V47H202.226V40.64H204.686V40ZM210.125 46.36V43.76H213.745V43.13H210.125V40.64H214.185V40H209.385V47H214.335V46.36H210.125ZM222.297 39.49C223.287 39.49 223.907 39.01 223.927 38.2H223.377C223.357 38.74 222.927 39.06 222.297 39.06C221.657 39.06 221.227 38.74 221.217 38.2H220.667C220.677 39.01 221.297 39.49 222.297 39.49ZM219.377 47H220.047L224.527 41.21V47H225.257V40H224.587L220.107 45.8V40H219.377V47Z"/>
<rect x="88" y="29" width="2" height="2"/>
</svg>
