<svg width="188" height="30" viewBox="0 0 188 30" fill="none" xmlns="http://www.w3.org/2000/svg">
<path d="M36.918 7.01528H43.8075V0H36.918V7.01528Z" fill="white"/>
<path d="M81.7694 12.0212V5.99295H101.498V0H74.8799V30H81.7694V18.0141H98.5061V12.0212H81.7694Z" fill="white"/>
<path d="M62.1445 7.01528H69.034V0H62.1445V7.01528Z" fill="white"/>
<path d="M55.6035 0H50.3146L33.3691 30H41.5113L45.0604 23.6898H60.8228L64.372 30H72.3749L55.6035 0ZM52.9938 7.75558L58.4915 17.7321H47.2526L52.9938 7.75558Z" fill="white"/>
<path d="M133.545 30H158.25V23.6898H140.469V0H133.545V30Z" fill="white"/>
<path d="M23.661 0V11.5276H7.23747V0H0V30H7.23747V18.2256H23.661V30H30.8984V0H23.661Z" fill="white"/>
<path d="M127.665 18.0141V12.0212H111.38V5.99295H130.622V0H104.491L104.456 30H130.622V23.6898H111.38V18.0141H127.665Z" fill="white"/>
<path d="M161.033 0V30H187.199V23.6898H167.958V18.0141H184.242V12.0212H167.958V5.99295H187.199V0H161.033Z" fill="white"/>
</svg>
