<svg width="214" height="30" viewBox="0 0 214 30" fill="none" xmlns="http://www.w3.org/2000/svg">
<g clip-path="url(#clip0)">
<path fill-rule="evenodd" clip-rule="evenodd" d="M70.1792 10.0353H62.1078L62.1663 10.1968V13.1872L62.1078 13.3886H69.6578V16.8803H62.1078L62.2087 17.0397V20.2901L62.089 20.4916H70.1792V24.2663H61.1822C59.6717 24.2663 58.3233 23.1001 58.3233 21.3345V9.19239C58.3233 7.28614 59.7327 6.26259 61.1822 6.26259H70.1792V10.0353ZM113.344 10.0353H105.267L105.35 10.1968V13.1872L105.291 13.3886H112.839V16.8803H105.291L105.35 17.0397V20.2901L105.249 20.4916H113.344V24.2663H104.344C102.834 24.2663 101.485 23.1001 101.485 21.3345V9.19239C101.485 7.28614 102.935 6.26259 104.344 6.26259H113.344V10.0353H113.344ZM120.027 20.4913L120.147 20.2711V16.9999L120.067 16.8593H123.569C124.495 16.8593 125.362 17.3816 125.362 18.7257C125.362 20.0091 124.436 20.4916 123.529 20.4916H120.027V20.4913ZM122.987 10.0353C123.91 10.0353 124.697 10.6372 124.697 11.6207C124.697 12.8057 123.91 13.3886 122.987 13.3886H120.067L120.147 13.2059V10.178L120.048 10.0351H122.987V10.0353ZM126.832 14.7938C126.832 14.7938 129.125 15.8572 129.125 19.0488C129.125 22.4376 126.771 24.2663 123.832 24.2663H116.261V6.2628H122.987C125.926 6.2628 128.282 8.26989 128.282 11.4195C128.282 12.6043 127.697 13.7495 126.832 14.7938ZM77.1041 16.7188C73.8837 16.2974 72.1733 14.4918 72.1733 11.4616C72.0724 8.00989 74.5696 6.24176 77.971 6.24176H83.4679V9.85718H77.8299C76.4416 9.85718 75.8567 10.417 75.8567 11.4403C75.8567 12.8455 76.9256 13.1053 78.9154 13.3068C83.367 13.7495 85.1381 15.4143 85.1381 18.948C85.1381 22.4982 82.359 24.2661 79.4815 24.2661H72.4743V20.4913H78.939C80.0031 20.4913 81.213 19.9293 81.213 18.7655C81.213 17.9224 80.7902 17.4609 80.0853 17.2011C79.3994 16.9599 78.5935 16.9203 77.1041 16.7188ZM91.3186 16.7188C88.0982 16.2974 86.3857 14.4918 86.3857 11.4616C86.2848 8.00989 88.7817 6.24176 92.1855 6.24176H97.7014V9.85718H92.0423C90.6563 9.85718 90.0902 10.417 90.0902 11.4403C90.0902 12.8455 91.1355 13.1053 93.1301 13.3068C97.5817 13.7495 99.3714 15.4143 99.3714 18.948C99.3714 22.4982 96.5526 24.2661 93.6937 24.2661H86.6886V20.4913H93.151C94.2176 20.4913 95.4249 19.9293 95.4249 18.7655C95.4249 17.9224 95.0022 17.4609 94.2973 17.2011C93.5738 16.9599 92.8268 16.9203 91.3186 16.7188ZM135.124 17.4822V13.0445C135.124 11.0984 136.656 9.3328 138.406 9.3328C140.26 9.3328 141.789 11.0986 141.789 13.0445V17.4822C141.789 19.407 140.26 20.913 138.406 20.913C136.656 20.913 135.124 19.407 135.124 17.4822ZM141.143 4.39634C140.058 4.39634 139.151 3.47364 139.151 2.28884C139.151 1.12509 140.058 0.122803 141.143 0.122803C142.313 0.122803 143.257 1.1253 143.257 2.28884C143.257 3.47364 142.313 4.39634 141.143 4.39634ZM135.688 4.39634C134.521 4.39634 133.576 3.47364 133.576 2.28884C133.576 1.12509 134.521 0.122803 135.688 0.122803C136.877 0.122803 137.723 1.1253 137.723 2.28884C137.723 3.47364 136.877 4.39634 135.688 4.39634ZM145.613 17.4822C145.613 21.5755 142.451 24.9266 138.406 24.9266C134.439 24.9266 131.279 21.5755 131.279 17.4822V13.0445C131.279 8.93239 134.439 5.58134 138.406 5.58134C142.451 5.58134 145.613 8.93239 145.613 13.0445V17.4822ZM52.8264 24.2663L47.6114 15.897V24.2663H43.7471V6.2628H47.6114V13.6488L52.6665 6.2628H57.0759L51.4168 14.7938L51.5978 14.8313L57.5363 24.2663H52.8264ZM210.641 16.4986L211.144 16.8591L214 24.2663H209.633L206.734 16.8593H203.836L203.915 16.9999V24.2663H200.07V6.2628H207.54C210.559 6.2628 213.014 8.48968 213.014 11.6818C213.013 13.4261 211.968 15.4941 210.641 16.4986ZM203.876 13.3888L203.915 13.2459V10.1572L203.876 10.0353H207.54C208.444 10.0353 209.208 10.7378 209.208 11.7216C209.208 12.6651 208.444 13.3888 207.54 13.3888H203.876ZM157.873 6.2628H161.74V24.2663H157.873V17.0607L158.017 16.8593H152.177L152.276 17.0607V24.2663H148.414V6.2628H152.276V13.1666L152.177 13.3888H157.995L157.873 13.1874V6.2628H157.873ZM197.131 10.0353H189.079L189.158 10.1968V13.1872L189.1 13.3886H196.629V16.8803H189.1L189.158 17.0397V20.2901L189.039 20.4916H197.131V24.2663H188.132C186.621 24.2663 185.294 23.1001 185.294 21.3345V9.19239C185.294 7.28614 186.722 6.26259 188.132 6.26259H197.131V10.0353H197.131ZM168.947 10.9791L171.987 24.2661H174.986L178.087 10.9791V24.2661H181.951V6.2628H176.114L173.558 18.2457L173.476 18.7259L173.415 18.2457L170.859 6.2628H165.061V24.2663H168.947V10.9791H168.947Z" fill="white"/>
<path fill-rule="evenodd" clip-rule="evenodd" d="M3.5659 26.7928C1.27083 24.5236 0.100939 20.2101 0 15.8357V14.8311C0.0823398 10.4593 1.27083 6.14092 3.5659 3.85301C7.85071 -0.418451 26.7561 -0.418451 31.0432 3.85301C35.7742 8.5903 35.7742 22.0768 31.0432 26.793C26.7561 31.069 7.85071 31.0691 3.5659 26.7928ZM19.589 7.34695C25.0836 7.12695 30.019 6.14111 30.019 6.14111L25.3867 14.6722H15.9646L19.589 7.34695ZM15.14 23.3624C11.8794 23.5217 8.41693 23.5217 5.41466 24.3461C7.14588 18.9061 6.96762 11.6817 5.23389 5.98193C8.41693 6.60485 11.7784 7.0661 15.14 7.0661V23.3624ZM19.77 23.4442L15.8633 15.6577H25.4663C25.4663 15.6577 28.5672 21.456 29.8356 24.3458C26.5541 23.9031 24.1792 23.3202 19.77 23.4442Z" fill="white"/>
</g>
<defs>
<clipPath id="clip0">
<rect width="214" height="30" fill="white"/>
</clipPath>
</defs>
</svg>
