<svg width="38" height="30" viewBox="0 0 38 30" fill="none" xmlns="http://www.w3.org/2000/svg">
<g clip-path="url(#clip0)">
<path d="M4.38188 0L2.22656 14.7896H5.21322L6.12667 8.6726L7.04011 14.7896H10.0268C9.01069 7.90284 7.87145 0 7.87145 0H4.38188Z" fill="white"/>
<path d="M0 29.9999H2.98666L4.46459 19.8596H1.47793L0 29.9999Z" fill="white"/>
<path d="M10.7767 19.8596H7.79004L9.27824 29.9999H12.2546L10.7767 19.8596Z" fill="white"/>
<path d="M17.4076 0V27.0441H21.9851V30H14.3799V0H17.4076Z" fill="white"/>
<path d="M26.9316 0H27.5064C30.3391 0 32.1249 2.00137 32.1249 4.15669V4.29011V12.624V12.7574C32.1249 14.8922 30.3391 16.8936 27.6193 16.8936H27.3627H26.2132V29.9897H23.2471V0H26.9316ZM26.2132 13.9377H27.0137H27.2601C28.738 13.9377 29.1588 13.5375 29.1588 12.039V11.8029V5.14198V4.83407C29.1588 3.54088 28.8406 2.95587 27.2498 2.95587H26.2132V13.9377Z" fill="white"/>
<path d="M37.2054 0H34.2393V30H37.2054V0Z" fill="white"/>
<path d="M1.97091 16.4829H10.2946L10.5203 18.1661H1.74512L1.97091 16.4829Z" fill="white"/>
</g>
<defs>
<clipPath id="clip0">
<rect width="37.2049" height="30" fill="white"/>
</clipPath>
</defs>
</svg>
