<svg width="89" height="30" viewBox="0 0 89 30" fill="none" xmlns="http://www.w3.org/2000/svg">
<g clip-path="url(#clip0)">
<path d="M0 17.4208L3.29703 18.3564C4.38119 18.698 5.39109 19.0248 6.50495 19.3366L24.401 24.698C24.9802 24.8614 25.4851 25.1287 26.0941 25.1881V19.4703C23.8515 18.9505 15.802 16.3515 13.1287 15.5792L1.72277 12.1782C1.17327 11.9852 0.608911 11.7475 0 11.703V17.4208ZM0 10.6188C2.46535 11.198 10.2921 13.7376 12.9653 14.5099L26.1089 18.3713V12.6535C23.2426 11.9852 17.9851 10.1733 14.7772 9.28218C10.9307 8.21287 3.50495 5.71782 0 4.90099V10.6188ZM49.604 18.9208C49.604 14.0495 55.5743 13.9455 55.5743 18.9208C55.5743 22.9307 51.9059 23.4208 50.3762 21.5347C49.8564 20.8812 49.604 20.0495 49.604 18.9208ZM46.1881 18.2376V19.4555C46.1881 25.0099 53.2129 27.0297 56.9703 23.703C58.9158 21.9654 58.9753 20.3762 58.9753 18.0891C58.9753 13.7822 52.8416 10.3515 48.1634 14.0644C47.198 14.8366 46.1881 16.8564 46.1881 18.2376ZM71.4653 15.104H71.6139C73.0693 15.104 73.901 16.3069 73.901 17.8366H69.1634C69.1634 16.3515 69.995 15.104 71.4653 15.104ZM65.6436 18.7871C65.6436 26.6436 73.8416 26.5693 76.396 23.1683C76.6782 22.7822 76.9455 22.0842 77.1683 21.6535C76.4554 21.4753 74.5545 21.104 73.7822 21.104C73.4109 21.8614 73.0396 23.1238 71.198 22.7376C69.7129 22.4258 69.1634 21.3861 69.1634 19.8713H77.3168C77.3168 16.9158 76.7079 14.198 73.9604 13.0248C70.1436 11.4208 65.6436 13.5891 65.6436 18.7871ZM29.7475 15.9357C29.7475 17.005 29.8663 17.9555 30.7574 18.7574C31.9901 19.8564 35.2871 20.3317 36.7574 20.7624C38.2426 21.2079 37.5 22.8713 35.7475 22.8713C33.5347 22.8713 33.401 22.5743 32.6139 20.9703C32.1535 21 31.3812 21.1485 30.9505 21.2228C29.896 21.401 28.4554 21.0743 30.0891 23.2277C32.5842 26.5545 40.901 25.9456 40.901 21.3713C40.901 20.2426 40.901 19.5297 39.698 18.6238C37.797 17.198 32.8663 17.005 32.8663 16.0545C32.8663 14.8069 34.4109 14.9555 35.4505 14.9555C37.0545 14.9555 37.1733 16.3218 37.4851 16.3218C38.5545 16.3218 39.3267 15.9208 40.5 15.9208C40.4703 14.8218 39.4604 13.7673 38.7475 13.2921C37.0247 12.1931 33.2376 12.2525 31.4554 13.2772C30.7574 13.7228 29.7475 14.8366 29.7475 15.9357ZM80.4356 18.6535C80.1238 19.2327 79.7822 19.6485 79.396 20.2129C78.995 20.7772 78.6238 21.2822 78.2525 21.7871C77.7921 22.396 76.2178 24.4159 76.0693 25.0545H79.901L82.4852 21.3713C83.2871 22.604 84.1188 23.8218 84.9208 25.0545H88.9901C88.8416 24.5198 88.2178 23.8515 87.9059 23.4208C87.5347 22.8713 87.1634 22.4258 86.7624 21.8465C86.4208 21.3416 84.6386 19.0248 84.5198 18.5198L86.5842 15.698C86.9554 15.2228 88.4554 13.3515 88.5891 12.802H84.6535L82.3366 16.0693C82.2178 15.6089 81.6535 14.896 81.3564 14.4654C80.9851 13.8861 80.6139 13.4109 80.2871 12.802H76.2178C76.3366 13.2475 77.9109 15.2822 78.2822 15.7723L80.4356 18.6535ZM59.9257 10.3515V12.802H58.4406V15.5198H59.9257V21.9208C59.9257 22.9901 60.1337 23.8663 60.698 24.4158C61.6782 25.4109 63.1634 25.4406 64.5446 25.1881C65.0941 25.0842 65.2574 24.9505 65.7475 24.906C65.7475 24.2376 65.7178 23.8218 65.6584 23.3762C65.5693 22.6782 65.8069 22.2327 65.2871 22.2772C65.1683 22.2772 63.3119 23.1683 63.3119 21.6535V15.5198H65.495V12.802H63.3119V8.58416L60.8465 9.9208C60.4753 10.1436 60.3861 10.2475 59.9257 10.3515ZM42 25.0545H45.3861V8.16832H42V25.0545ZM25.8119 26.1386L12.9059 22.3218C12.9059 24.3713 12.9356 26.406 12.9059 28.4555C12.9059 30.1782 12.6238 30.1931 13.9752 29.7921L24.698 26.6287C25.2475 26.4802 25.5297 26.5248 25.8119 26.1386ZM0.282178 3.68317V3.9505C1.35149 4.18812 2.43564 4.57426 3.41584 4.88614L13.0545 7.75248V0C12.505 0.133663 12.0743 0.29703 11.4802 0.460396L2.00495 3.23762C1.41089 3.40099 0.920792 3.65347 0.282178 3.68317Z" fill="white"/>
</g>
<defs>
<clipPath id="clip0">
<rect width="88.9901" height="30" fill="white"/>
</clipPath>
</defs>
</svg>
