<svg width="202" height="54" viewBox="0 0 202 54" fill="none" xmlns="http://www.w3.org/2000/svg">
<path d="M20.392 31H25.832L15.816 8.6H10.696L0.712 31H6.024L8.008 26.2H18.408L20.392 31ZM9.672 22.264L13.224 13.688L16.776 22.264H9.672ZM43.58 8.6V22.2L32.444 8.6H28.156V31H33.276V17.4L44.444 31H48.7V8.6H43.58ZM53.9998 31H64.1758C71.5038 31 76.5278 26.584 76.5278 19.8C76.5278 13.016 71.5038 8.6 64.1758 8.6H53.9998V31ZM59.1838 26.744V12.856H63.9198C68.3678 12.856 71.2798 15.512 71.2798 19.8C71.2798 24.088 68.3678 26.744 63.9198 26.744H59.1838Z" fill="#870AB7"/>
<path d="M100.277 31L95.2533 23.8C98.1653 22.552 99.8613 20.088 99.8613 16.728C99.8613 11.704 96.1173 8.6 90.1333 8.6H80.4373V31H85.6213V24.76H90.1333H90.3893L94.7093 31H100.277ZM94.6133 16.728C94.6133 19.16 93.0133 20.632 89.8453 20.632H85.6213V12.824H89.8453C93.0133 12.824 94.6133 14.264 94.6133 16.728ZM113.921 31.384C120.289 31.384 124.065 27.736 124.065 21.144V8.6H118.944V20.952C118.944 25.208 117.121 26.968 113.953 26.968C110.817 26.968 108.961 25.208 108.961 20.952V8.6H103.777V21.144C103.777 27.736 107.553 31.384 113.921 31.384ZM145.635 19.352C147.459 18.392 148.611 16.664 148.611 14.424C148.611 10.936 145.731 8.6 140.131 8.6H129.187V31H140.771C146.659 31 149.731 28.76 149.731 24.888C149.731 22.072 148.131 20.152 145.635 19.352ZM139.491 12.504C142.019 12.504 143.395 13.368 143.395 15.128C143.395 16.888 142.019 17.784 139.491 17.784H134.339V12.504H139.491ZM140.387 27.096H134.339V21.56H140.387C143.075 21.56 144.515 22.456 144.515 24.344C144.515 26.264 143.075 27.096 140.387 27.096ZM170.392 31H175.832L165.816 8.6H160.696L150.712 31H156.024L158.008 26.2H168.408L170.392 31ZM159.672 22.264L163.224 13.688L166.776 22.264H159.672ZM193.58 8.6V22.2L182.444 8.6H178.156V31H183.276V17.4L194.444 31H198.7V8.6H193.58Z" fill="white"/>
<path d="M12.14 42.6V51H11.288V44.28L7.988 49.932H7.568L4.268 44.316V51H3.416V42.6H4.148L7.796 48.828L11.408 42.6H12.14ZM26.9107 50.232V51H20.9707V42.6H26.7307V43.368H21.8587V46.356H26.2027V47.112H21.8587V50.232H26.9107ZM34.8808 42.6H41.0248V43.356H35.7568V46.104H38.5048C39.4968 46.104 40.2488 46.308 40.7608 46.716C41.2808 47.124 41.5408 47.716 41.5408 48.492C41.5408 49.3 41.2608 49.92 40.7008 50.352C40.1488 50.784 39.3528 51 38.3128 51H34.8808V42.6ZM38.3008 50.292C39.0768 50.292 39.6608 50.144 40.0528 49.848C40.4528 49.552 40.6528 49.112 40.6528 48.528C40.6528 47.952 40.4568 47.524 40.0648 47.244C39.6808 46.956 39.0928 46.812 38.3008 46.812H35.7568V50.292H38.3008ZM55.5396 50.232V51H49.5996V42.6H55.3596V43.368H50.4876V46.356H54.8316V47.112H50.4876V50.232H55.5396ZM70.0978 42.6V51H69.2218V43.368H65.1658L65.0698 46.176C65.0298 47.336 64.9338 48.272 64.7818 48.984C64.6378 49.688 64.4138 50.216 64.1098 50.568C63.8058 50.912 63.4018 51.084 62.8978 51.084C62.6818 51.084 62.4578 51.056 62.2258 51L62.2978 50.208C62.4338 50.24 62.5658 50.256 62.6938 50.256C63.0458 50.256 63.3298 50.116 63.5458 49.836C63.7698 49.556 63.9378 49.124 64.0498 48.54C64.1618 47.948 64.2378 47.168 64.2778 46.2L64.3978 42.6H70.0978ZM82.4476 45.6C83.4396 45.6 84.1956 45.824 84.7156 46.272C85.2436 46.72 85.5076 47.376 85.5076 48.24C85.5076 49.144 85.2276 49.832 84.6676 50.304C84.1156 50.768 83.3156 51 82.2676 51H78.9316V42.6H79.8076V45.6H82.4476ZM82.2436 50.292C83.0196 50.292 83.6076 50.12 84.0076 49.776C84.4156 49.432 84.6196 48.924 84.6196 48.252C84.6196 46.964 83.8276 46.32 82.2436 46.32H79.8076V50.292H82.2436ZM106.264 51.072C105.432 51.072 104.68 50.888 104.008 50.52C103.344 50.152 102.82 49.644 102.436 48.996C102.06 48.34 101.872 47.608 101.872 46.8C101.872 45.992 102.06 45.264 102.436 44.616C102.82 43.96 103.348 43.448 104.02 43.08C104.692 42.712 105.444 42.528 106.276 42.528C106.9 42.528 107.476 42.632 108.004 42.84C108.532 43.048 108.98 43.352 109.348 43.752L108.784 44.316C108.128 43.652 107.3 43.32 106.3 43.32C105.636 43.32 105.032 43.472 104.488 43.776C103.944 44.08 103.516 44.496 103.204 45.024C102.9 45.552 102.748 46.144 102.748 46.8C102.748 47.456 102.9 48.048 103.204 48.576C103.516 49.104 103.944 49.52 104.488 49.824C105.032 50.128 105.636 50.28 106.3 50.28C107.308 50.28 108.136 49.944 108.784 49.272L109.348 49.836C108.98 50.236 108.528 50.544 107.992 50.76C107.464 50.968 106.888 51.072 106.264 51.072ZM134.038 50.232V52.884H133.21V51H125.878L125.866 52.884H125.038L125.05 50.232H125.47C126.022 50.2 126.406 49.764 126.622 48.924C126.838 48.076 126.97 46.876 127.018 45.324L127.114 42.6H132.778V50.232H134.038ZM127.81 45.408C127.77 46.688 127.67 47.744 127.51 48.576C127.358 49.4 127.098 49.952 126.73 50.232H131.902V43.368H127.882L127.81 45.408ZM148.45 42.6L144.634 49.668C144.362 50.172 144.042 50.548 143.674 50.796C143.314 51.036 142.918 51.156 142.486 51.156C142.166 51.156 141.822 51.08 141.454 50.928L141.706 50.208C141.994 50.32 142.258 50.376 142.498 50.376C143.05 50.376 143.502 50.076 143.854 49.476L144.094 49.068L140.686 42.6H141.634L144.562 48.288L147.562 42.6H148.45ZM166.126 42.6V51H155.83V42.6H156.706V50.232H160.546V42.6H161.422V50.232H165.25V42.6H166.126ZM178.639 51.072C177.807 51.072 177.051 50.888 176.371 50.52C175.699 50.144 175.171 49.632 174.787 48.984C174.411 48.336 174.223 47.608 174.223 46.8C174.223 45.992 174.411 45.264 174.787 44.616C175.171 43.968 175.699 43.46 176.371 43.092C177.051 42.716 177.807 42.528 178.639 42.528C179.471 42.528 180.219 42.712 180.883 43.08C181.555 43.448 182.083 43.96 182.467 44.616C182.851 45.264 183.043 45.992 183.043 46.8C183.043 47.608 182.851 48.34 182.467 48.996C182.083 49.644 181.555 50.152 180.883 50.52C180.219 50.888 179.471 51.072 178.639 51.072ZM178.639 50.28C179.303 50.28 179.903 50.132 180.439 49.836C180.975 49.532 181.395 49.116 181.699 48.588C182.003 48.052 182.155 47.456 182.155 46.8C182.155 46.144 182.003 45.552 181.699 45.024C181.395 44.488 180.975 44.072 180.439 43.776C179.903 43.472 179.303 43.32 178.639 43.32C177.975 43.32 177.371 43.472 176.827 43.776C176.291 44.072 175.867 44.488 175.555 45.024C175.251 45.552 175.099 46.144 175.099 46.8C175.099 47.456 175.251 48.052 175.555 48.588C175.867 49.116 176.291 49.532 176.827 49.836C177.371 50.132 177.975 50.28 178.639 50.28ZM191.162 42.6H192.038V49.56L197.414 42.6H198.218V51H197.342V44.052L191.966 51H191.162V42.6ZM194.666 41.988C194.066 41.988 193.59 41.852 193.238 41.58C192.894 41.308 192.718 40.928 192.71 40.44H193.37C193.378 40.76 193.498 41.012 193.73 41.196C193.962 41.38 194.274 41.472 194.666 41.472C195.05 41.472 195.358 41.38 195.59 41.196C195.83 41.012 195.954 40.76 195.962 40.44H196.622C196.614 40.928 196.434 41.308 196.082 41.58C195.73 41.852 195.258 41.988 194.666 41.988Z" fill="white"/>
</svg>
