<svg width="34" height="30" viewBox="0 0 34 30" fill="none" xmlns="http://www.w3.org/2000/svg">
<g clip-path="url(#clip0)">
<path d="M33.0511 30L18.06 15.0088L33.0511 0.0176367V30ZM15.6085 29.9471V29.7002H16.5432L15.6085 28.7478V28.4127L16.3668 29.2063L17.4956 28.3774V28.6949L16.5432 29.3827L16.843 29.7002H17.5132V29.9471H15.6085ZM15.6085 27.7072V26.8254C15.6085 26.4727 15.8025 26.2434 16.1023 26.2434C16.3139 26.2257 16.5256 26.3492 16.5785 26.5608C16.6138 26.3492 16.7901 26.2963 16.9665 26.2787C17.1429 26.261 17.3545 26.2787 17.4956 26.1728V26.455C17.425 26.5256 17.2134 26.4903 17.037 26.5256C16.8607 26.5608 16.7019 26.5961 16.7019 26.843V27.4603H17.5132V27.7072H15.6085ZM16.4727 26.9312C16.4727 26.7019 16.4198 26.4903 16.1376 26.4903C15.9788 26.4727 15.8201 26.5961 15.8201 26.7548C15.8201 26.7725 15.8201 26.7901 15.8201 26.8254V27.4427H16.4727V26.9312ZM15.5556 24.6384C15.5556 24.0388 16.0317 23.739 16.5432 23.739C17.0547 23.739 17.5309 24.0388 17.5309 24.6384C17.5309 25.2381 17.0547 25.5379 16.5432 25.5379C16.0317 25.5379 15.5556 25.2381 15.5556 24.6384ZM17.3192 24.6384C17.3192 24.1799 16.9136 23.9859 16.5432 23.9859C16.1728 23.9859 15.7672 24.1799 15.7672 24.6384C15.7672 25.097 16.1728 25.291 16.5432 25.291C16.9136 25.291 17.3369 25.097 17.3192 24.6384ZM15.6085 22.9453V22.6808L17.1429 21.6931H15.6085V21.4462H17.4956V21.7284L15.9788 22.716H17.4956V22.963L15.6085 22.9453ZM15.6085 20.0529V19.7707L17.4956 19.0476V19.3298L16.9312 19.5238V20.3175L17.4956 20.5291V20.7936L15.6085 20.0529ZM16.7196 20.2469V19.612L15.8377 19.9295L16.7196 20.2469ZM15.6085 14.7619V14.515H16.5432L15.6085 13.5626V13.2275L16.3668 14.0212L17.4956 13.1922V13.5097L16.5432 14.1975L16.843 14.515H17.5132V14.7619H15.6085ZM15.5556 11.7284C15.5556 11.1287 16.0317 10.8289 16.5432 10.8289C17.0547 10.8289 17.5309 11.1287 17.5309 11.7284C17.5309 12.328 17.0547 12.6279 16.5432 12.6279C16.0317 12.6279 15.5556 12.328 15.5556 11.7284ZM17.3192 11.7284C17.3192 11.2698 16.9136 11.0758 16.5432 11.0758C16.1728 11.0758 15.7672 11.2698 15.7672 11.7284C15.7672 12.1869 16.1728 12.381 16.5432 12.381C16.9136 12.381 17.3369 12.1869 17.3192 11.7284ZM15.6085 10.0529V9.36508C15.5908 9.18871 15.6085 9.02998 15.679 8.87125C15.7672 8.73016 15.9083 8.64198 16.067 8.64198C16.261 8.64198 16.4198 8.7478 16.4903 8.92416C16.5256 8.71252 16.7196 8.55379 16.9489 8.57143C17.2487 8.55379 17.478 8.8007 17.4956 9.08289C17.4956 9.10053 17.4956 9.11817 17.4956 9.1358V10.0529H15.6085ZM16.4198 9.806V9.29453C16.4198 9.01235 16.3139 8.88889 16.1199 8.88889C15.8554 8.88889 15.8201 9.06526 15.8201 9.29453V9.78836L16.4198 9.806ZM17.284 9.806V9.17108C17.3016 8.99471 17.1605 8.83598 16.9841 8.81834C16.9665 8.81834 16.9489 8.81834 16.9489 8.81834C16.7019 8.81834 16.6314 9.01235 16.6314 9.22399V9.806H17.284ZM15.6085 7.76014V7.51323H17.284V6.50794H17.4956V7.76014H15.6085ZM15.6085 5.82011V4.51499H15.8201V5.57319H16.4198V4.58554H16.6314V5.57319H17.284V4.51499H17.4956V5.82011H15.6085ZM15.6085 3.73898V3.47443L17.1429 2.46914H15.6085V2.23986H17.4956V2.52205L15.9788 3.5097H17.4956V3.75661L15.6085 3.73898ZM17.284 1.49912L15.8201 0.31746V1.41093H15.6085V0.0352734H15.8201L17.284 1.19929V0H17.4956V1.49912H17.284ZM0 0V14.9912V29.9824H14.9912V29.1358C10.7231 27.619 7.3545 24.2681 5.85538 20C3.08642 12.1869 7.19577 3.61552 14.9912 0.864197V0H0Z" fill="white"/>
</g>
<defs>
<clipPath id="clip0">
<rect width="33.0511" height="30" fill="white"/>
</clipPath>
</defs>
</svg>
