<svg width="143" height="30" viewBox="0 0 143 30" fill="none" xmlns="http://www.w3.org/2000/svg">
<g clip-path="url(#clip0)">
<path fill-rule="evenodd" clip-rule="evenodd" d="M41.4791 29.9035H46.7846L58.8424 7.71704V24.1158H51.1254L48.6174 29.9035H63.6656V0H56.9132L41.4791 29.9035ZM0 29.9035H24.1158V24.0193C19.7749 23.344 16.3987 19.582 16.3987 14.9518C16.3987 9.93569 20.5466 5.78778 25.5627 5.78778C30.5788 5.78778 34.7267 9.93569 34.7267 14.9518C34.7267 19.4855 31.3505 23.2476 27.0096 24.0193V29.9035H38.5852V0H19.2926L0 29.9035ZM137.46 17.3633C136.206 21.3183 132.54 24.1158 128.296 24.1158C122.99 24.1158 118.65 19.7749 118.65 14.4695C118.65 9.16399 122.99 4.82315 128.296 4.82315C131.865 4.82315 134.952 6.75241 136.688 9.6463H141.801C139.678 4.05145 134.18 0 127.813 0C119.518 0 112.862 6.75241 112.862 14.9518C112.862 23.2476 119.518 29.9035 127.813 29.9035C135.241 29.9035 141.415 24.5016 142.572 17.3633H137.46ZM104.18 30H109.003V0H104.18V30ZM94.5338 22.1865L82.9582 0H77.1704L93.5691 30H100.322V0H94.5338V22.1865ZM72.3473 0H67.5241V30H85.8521V24.2122H72.3473V0Z" fill="white"/>
</g>
<defs>
<clipPath id="clip0">
<rect width="142.572" height="30" fill="white"/>
</clipPath>
</defs>
</svg>
