<svg width="136" height="30" viewBox="0 0 136 30" fill="none" xmlns="http://www.w3.org/2000/svg">
<g clip-path="url(#clip0)">
<path d="M43.9128 24.4467H43.1685V23.0154H42.9395C42.367 23.8169 42.0234 24.2177 41.5654 24.5612V24.7902H41.9662V27.481C41.9662 27.6528 42.0234 28.3398 42.8822 28.3398C43.6265 28.3398 43.9128 27.7673 44.0845 27.4238L43.8555 27.3093C43.741 27.481 43.6265 27.7673 43.3975 27.7673C43.054 27.7673 43.054 27.4238 43.054 27.3093V24.7902H43.7983V24.4467H43.9128Z" fill="white"/>
<path d="M47.2332 27.2518C47.0614 27.4235 46.7752 27.8243 46.3172 27.8243C45.5156 27.8243 45.3439 26.9655 45.3439 26.2785H47.405C47.405 25.8205 47.2905 24.3892 45.8592 24.3892C44.9431 24.3892 44.1416 25.1907 44.1416 26.393C44.1416 27.8243 45.0004 28.454 45.8019 28.454C46.4317 28.454 46.9469 28.1678 47.405 27.4235L47.2332 27.2518ZM45.2866 25.935C45.2866 24.7899 45.5729 24.6182 45.8592 24.6182C46.1454 24.6182 46.2599 24.8472 46.3172 25.0189C46.3744 25.2479 46.3744 25.706 46.3744 25.9922H45.2866V25.935Z" fill="white"/>
<path d="M50.725 27.3664C50.5533 27.5954 50.3243 27.8244 49.8662 27.8244C49.2365 27.8244 48.7212 27.1374 48.7212 25.9923C48.7212 25.5916 48.7785 24.561 49.4082 24.561C49.5227 24.561 49.7517 24.6183 49.7517 24.9046C49.7517 25.3626 49.7517 25.7633 50.2098 25.7633C50.267 25.7633 50.7823 25.7633 50.7823 25.2481C50.7823 24.6183 50.0953 24.332 49.5227 24.332C48.7785 24.332 47.5762 24.8473 47.5762 26.5076C47.5762 27.5381 48.2632 28.4542 49.351 28.4542C49.9807 28.4542 50.5533 28.1107 50.8968 27.5954L50.725 27.3664Z" fill="white"/>
<path d="M55.1907 28.1107C54.79 28.1107 54.79 27.7672 54.79 27.5954V25.5343C54.79 24.6183 54.1602 24.3321 53.7022 24.3321C53.3014 24.3321 52.9007 24.5038 52.4999 24.9618V22.6145H50.9541V22.8435C51.2976 22.9008 51.4121 22.958 51.4121 23.3015V27.5954C51.4121 27.9962 51.2976 28.0534 50.9541 28.1107V28.3397H52.9579V28.1107C52.5572 28.0534 52.5572 27.8244 52.5572 27.6527V25.4198C52.5572 25.3626 52.9007 24.9618 53.2442 24.9618C53.7022 24.9618 53.7022 25.4198 53.7022 25.6489V27.6527C53.7022 27.9389 53.5877 28.1107 53.3014 28.1107V28.3397H55.248V28.1107H55.1907Z" fill="white"/>
<path d="M59.5993 28.1107C59.1985 28.1107 59.1985 27.8244 59.1985 27.6526V25.5343C59.1985 24.6183 58.5688 24.332 58.1108 24.332C57.4237 24.332 57.0802 24.8473 56.9657 25.0191V24.3893H55.4199V24.6183C55.7634 24.6755 55.8779 24.7328 55.8779 25.1336V27.5954C55.8779 27.9962 55.7634 28.0534 55.4199 28.1107V28.3397H57.4237V28.1107C57.023 28.0534 57.023 27.8244 57.023 27.6526V25.4198C57.023 25.3626 57.3665 24.9618 57.71 24.9618C58.168 24.9618 58.168 25.4198 58.168 25.6488V27.6526C58.168 27.9389 58.0535 28.1107 57.7673 28.1107V28.3397H59.7138V28.1107H59.5993Z" fill="white"/>
<path d="M59.7139 26.3931C59.7139 27.4809 60.4009 28.4542 61.5459 28.4542C62.6337 28.4542 63.378 27.5381 63.378 26.3931C63.378 25.2481 62.6337 24.332 61.5459 24.332C60.4581 24.332 59.7139 25.3053 59.7139 26.3931ZM60.9162 26.3931C60.9162 25.4198 60.9734 24.6183 61.5459 24.6183C62.0612 24.6183 62.1757 25.1336 62.1757 26.3931C62.1757 27.4809 62.1184 28.1679 61.5459 28.1679C60.9162 28.1679 60.9162 27.2519 60.9162 26.3931Z" fill="white"/>
<path d="M65.4964 28.1107C65.1529 28.1107 65.0956 27.8244 65.0956 27.5954V22.6145H63.5498V22.8435C63.9506 22.8435 63.9506 23.2443 63.9506 23.3015V27.5954C63.9506 27.8244 63.8361 28.1107 63.5498 28.1107V28.3397H65.4964V28.1107Z" fill="white"/>
<path d="M65.668 26.3931C65.668 27.4809 66.355 28.4542 67.5 28.4542C68.6451 28.4542 69.3321 27.5381 69.3321 26.3931C69.3321 25.2481 68.5878 24.332 67.5 24.332C66.4122 24.332 65.668 25.3053 65.668 26.3931ZM66.8703 26.3931C66.8703 25.4198 66.9275 24.6183 67.5 24.6183C68.0153 24.6183 68.1298 25.1336 68.1298 26.3931C68.1298 27.4809 68.0726 28.1679 67.5 28.1679C66.8703 28.1679 66.8703 27.2519 66.8703 26.3931Z" fill="white"/>
<path d="M70.8205 25.7061C70.8205 25.1908 70.8777 24.6183 71.3357 24.6183C71.851 24.6183 71.851 25.3626 71.851 25.7061C71.851 26.1641 71.851 26.7939 71.3357 26.7939C70.8777 26.7366 70.8205 26.2786 70.8205 25.7061ZM72.0227 28.7404C72.4235 28.7404 72.6525 28.8549 72.6525 29.1412C72.6525 29.7137 71.622 29.7137 71.2785 29.7137C71.164 29.7137 70.2479 29.7137 70.2479 29.1412C70.2479 28.9694 70.3052 28.8549 70.5342 28.6832H72.0227V28.7404ZM73.3395 24.9618V24.5038H72.2518C71.9082 24.3893 71.622 24.332 71.3357 24.332C70.1907 24.332 69.6754 25.0191 69.6754 25.6488C69.6754 26.2786 70.0762 26.6794 70.706 26.9084C70.3624 27.0229 69.7327 27.3091 69.7327 27.8817C69.7327 28.3397 70.0189 28.4542 70.3624 28.5687C69.9044 28.6259 69.6182 28.8549 69.6182 29.1984C69.6182 29.6565 70.2479 29.9427 71.2212 29.9427C72.2518 29.9427 73.3395 29.7137 73.3395 28.6832C73.3395 27.7671 72.4235 27.6526 71.9655 27.6526H71.4502C70.8205 27.6526 70.6487 27.6526 70.6487 27.3664C70.6487 27.1374 70.935 26.9656 71.1067 26.9656C71.9082 26.9656 71.9082 26.9656 72.1373 26.9084C72.7098 26.7366 72.996 26.2786 72.996 25.7633C72.996 25.2481 72.767 25.0191 72.6525 24.9618H73.3395Z" fill="white"/>
<path d="M77.2324 24.4465H75.9728V24.6183C76.2018 24.6183 76.4308 24.6183 76.4308 24.9045C76.4308 25.0191 76.3736 25.1336 76.3163 25.3053L75.7438 26.9084L75.1713 25.3626C75.114 25.1908 74.9995 24.9618 74.9995 24.9045C74.9995 24.6755 75.2286 24.6755 75.4576 24.6755V24.4465H73.3965V24.6183C73.6255 24.6755 73.6255 24.6755 73.74 24.8473C73.7973 24.9618 74.0263 25.4771 74.198 25.9351L75.1713 28.3969L74.9995 28.8549C74.9423 29.0267 74.7133 29.5419 74.4843 29.5419C74.3698 29.5419 74.3698 29.4274 74.3698 29.4274C74.3698 29.3702 74.3698 29.3702 74.3698 29.2557C74.3698 29.0839 74.2553 28.8549 73.9118 28.8549C73.3965 28.8549 73.3965 29.2557 73.3965 29.4274C73.3965 29.7137 73.6255 30.0572 74.1408 30.0572C74.885 30.0572 75.0568 29.5992 75.5148 28.4542L76.7171 25.1336C76.8889 24.7328 77.0034 24.6755 77.1751 24.6755V24.4465H77.2324Z" fill="white"/>
<path d="M85.4765 24.4465H84.3887V24.6183C84.6178 24.6183 84.7895 24.6755 84.7895 24.9046C84.7895 25.0763 84.3888 26.1068 84.1597 26.7366C83.988 26.1068 83.6445 25.0191 83.6445 24.79C83.6445 24.6183 83.8162 24.6183 84.0452 24.561V24.332H82.0987V24.6183C82.2704 24.6183 82.3849 24.6183 82.4422 24.8473C82.4994 24.9618 82.5567 25.1336 82.6139 25.4198L82.0414 26.8511C81.6407 25.7061 81.3544 25.0763 81.3544 24.9046C81.3544 24.6755 81.5262 24.6755 81.6407 24.6755V24.4465H79.8086V24.6183C80.0376 24.6755 80.0376 24.7328 80.2666 25.2481L81.4689 28.3969H81.6407L82.6712 25.8778H82.7284L83.53 28.3969H83.7017L84.9613 25.0191C85.0758 24.6755 85.1903 24.6183 85.362 24.6183V24.4465H85.4765Z" fill="white"/>
<path d="M85.935 23.1298C85.935 23.4733 86.2212 23.7595 86.5647 23.7595C86.9082 23.7595 87.1945 23.4733 87.1945 23.1298C87.1945 22.7863 86.9082 22.5 86.5647 22.5C86.2212 22.5 85.935 22.7863 85.935 23.1298ZM87.538 28.1107C87.1945 28.0534 87.1372 27.8817 87.1372 27.6527V24.4466H85.5342V24.6183C85.8204 24.6756 85.9922 24.7328 85.9922 25.1336V27.5954C85.9922 27.9962 85.8777 27.9962 85.5342 28.1107V28.3397H87.4808V28.1107H87.538Z" fill="white"/>
<path d="M90.0006 24.4467H89.2564V23.0154H89.0274C88.4548 23.8169 88.1113 24.2177 87.6533 24.5612V24.7902H88.0541V27.481C88.0541 27.6528 88.1113 28.3398 88.9701 28.3398C89.7144 28.3398 90.0006 27.7673 90.1724 27.4238L89.9434 27.3093C89.8289 27.481 89.7144 27.7673 89.4854 27.7673C89.1419 27.7673 89.1419 27.4238 89.1419 27.3093V24.7902H89.8861V24.4467H90.0006Z" fill="white"/>
<path d="M94.4085 28.1107C94.0078 28.1107 94.0078 27.7672 94.0078 27.5954V25.5343C94.0078 24.6183 93.378 24.3321 92.92 24.3321C92.5192 24.3321 92.1184 24.5038 91.7749 24.9618V22.6145H90.1719V22.8435C90.5154 22.9008 90.6299 22.958 90.6299 23.3015V27.5954C90.6299 27.9962 90.5154 28.0534 90.1719 28.1107V28.3397H92.1757V28.1107C91.7749 28.0534 91.7749 27.8244 91.7749 27.6527V25.4198C91.7749 25.3626 92.1184 24.9618 92.462 24.9618C92.92 24.9618 92.92 25.4198 92.92 25.6489V27.6527C92.92 27.9389 92.8055 28.1107 92.5192 28.1107V28.3397H94.4658V28.1107H94.4085Z" fill="white"/>
<path d="M99.6759 25.5343V24.332H99.5042C99.5042 24.3893 99.4469 24.5038 99.2752 24.5038C99.1034 24.5038 98.7599 24.332 98.4164 24.332C97.6721 24.332 97.0996 24.8473 97.0996 25.5916C97.0996 26.9084 99.0462 26.8511 99.0462 27.5954C99.0462 27.8244 98.8744 28.1679 98.4736 28.1679C97.5576 28.1679 97.3859 27.3091 97.3286 27.0801H97.0996V28.4542H97.3286C97.3859 28.2824 97.4431 28.2252 97.5576 28.2252C97.6149 28.2252 98.1874 28.4542 98.5881 28.4542C99.3324 28.4542 99.9049 27.9389 99.9049 27.1374C99.9049 25.7633 97.9584 25.9351 97.9584 25.0763C97.9584 24.79 98.1874 24.6183 98.4736 24.6183C98.9317 24.6183 99.3324 24.9618 99.5042 25.5916H99.6759V25.5343Z" fill="white"/>
<path d="M102.366 24.4467H101.622V23.0154H101.393C100.82 23.8169 100.477 24.2177 100.019 24.5612V24.7902H100.419V27.481C100.419 27.6528 100.477 28.3398 101.335 28.3398C102.08 28.3398 102.366 27.7673 102.538 27.4238L102.309 27.3093C102.194 27.481 102.08 27.7673 101.851 27.7673C101.507 27.7673 101.507 27.4238 101.507 27.3093V24.7902H102.251V24.4467H102.366Z" fill="white"/>
<path d="M106.374 24.4465H105.114V24.6183C105.343 24.6183 105.572 24.6183 105.572 24.9045C105.572 25.0191 105.515 25.1336 105.458 25.3053L104.885 26.9084L104.313 25.3626C104.256 25.1908 104.141 24.9618 104.141 24.9045C104.141 24.6755 104.37 24.6755 104.599 24.6755V24.4465H102.538V24.6183C102.767 24.6755 102.767 24.6755 102.882 24.8473C102.939 24.9618 103.168 25.4771 103.34 25.9351L104.313 28.3969L104.141 28.8549C104.084 29.0267 103.855 29.5419 103.626 29.5419C103.511 29.5419 103.511 29.4274 103.511 29.4274C103.511 29.3702 103.511 29.3702 103.511 29.2557C103.511 29.0839 103.397 28.8549 103.053 28.8549C102.538 28.8549 102.538 29.2557 102.538 29.4274C102.538 29.7137 102.767 30.0572 103.282 30.0572C104.027 30.0572 104.198 29.5992 104.656 28.4542L105.859 25.1336C106.03 24.7328 106.145 24.6755 106.317 24.6755V24.4465H106.374Z" fill="white"/>
<path d="M108.377 28.1107C108.034 28.1107 107.976 27.8244 107.976 27.5954V22.6145H106.431V22.8435C106.831 22.8435 106.831 23.2443 106.831 23.3015V27.5954C106.831 27.8244 106.717 28.1107 106.431 28.1107V28.3397H108.377V28.1107Z" fill="white"/>
<path d="M111.698 27.2518C111.526 27.4235 111.24 27.8243 110.782 27.8243C109.98 27.8243 109.809 26.9655 109.809 26.2785H111.87C111.87 25.8205 111.755 24.3892 110.324 24.3892C109.408 24.3892 108.606 25.1907 108.606 26.393C108.606 27.8243 109.465 28.454 110.267 28.454C110.897 28.454 111.412 28.1678 111.87 27.4235L111.698 27.2518ZM109.694 25.935C109.694 24.7899 109.98 24.6182 110.267 24.6182C110.553 24.6182 110.668 24.8472 110.725 25.0189C110.782 25.2479 110.782 25.706 110.782 25.9922H109.694V25.935Z" fill="white"/>
<path d="M49.2363 13.9695C49.2363 18.4351 53.702 20.7824 58.0531 20.7824C61.5455 20.7824 66.6409 19.1794 66.6409 14.1985C66.6409 10.7061 64.2936 9.38931 60.973 8.58778C58.0531 7.90076 54.5035 7.95801 54.5035 6.0687C54.5035 4.5229 56.1638 3.95038 57.8241 3.95038C59.6562 3.95038 61.5455 4.7519 61.5455 6.75572H66.1829C65.7821 2.11831 62.0035 0.343506 57.9386 0.343506C53.8165 0.45801 49.8088 2.23282 49.8088 6.92748C49.8088 10.2481 52.6714 11.6794 55.7058 12.1947C60.2287 12.9962 61.66 13.1679 61.66 14.8855C61.66 16.7176 59.0837 17.1756 58.2249 17.1756C56.1638 17.1756 54.0455 16.2595 54.0455 14.0267H49.2363V13.9695Z" fill="white"/>
<path d="M125.84 14.3702C123.149 14.3702 121.432 11.7939 121.604 9.16031C121.718 6.75572 123.035 4.23664 126.069 4.23664C128.989 4.23664 130.707 6.69847 130.535 9.61832C130.363 11.9656 129.046 14.3702 125.84 14.3702ZM135.63 0.515267H130.649V2.57634C130.649 2.57634 129.39 0 124.752 0C119.714 0 116.565 4.4084 116.565 9.27481C116.565 14.4275 119.314 18.4924 124.924 18.4924C129.161 18.4924 130.478 16.2595 130.478 16.2595L130.535 18.2634C130.363 20.8969 128.989 22.3282 126.298 22.3282C124.352 22.3282 123.092 21.6985 122.806 20.1527L117.31 20.4389C117.481 24.2176 121.833 26.4504 125.726 26.4504C134.543 26.4504 135.573 21.813 135.573 18.0344V0.515267H135.63Z" fill="white"/>
<path d="M67.4424 19.8663H72.6523V9.04567C72.6523 5.78231 74.8851 5.03804 75.9157 5.03804C78.721 5.03804 78.95 7.32811 78.95 9.38918V19.809H84.1027V9.04567C84.1027 5.78231 85.992 4.98078 87.3088 4.98078C90.2859 4.98078 90.4004 7.32811 90.4004 9.38918V19.809H95.6103V7.38536C95.6103 2.51895 92.805 0.629639 88.9118 0.629639C86.3928 0.629639 84.4462 2.11819 83.4157 3.77849C82.4424 1.48842 80.3813 0.629639 78.0912 0.629639C75.7439 0.629639 73.7973 1.77468 72.4805 3.72124H72.4233V1.14491H67.4996V19.8663H67.4424Z" fill="white"/>
<path d="M101.794 7.95801C101.794 7.27099 102.71 4.17939 105.917 4.17939C109.008 4.17939 110.039 7.09923 110.039 7.95801H101.794ZM115.478 11.6221C115.878 6.01145 112.672 0.114502 105.859 0.114502C99.9051 0.114502 96.3555 4.98091 96.3555 10.2481C96.3555 15.6298 100.02 20.2099 106.088 20.2099C110.439 20.2099 113.76 18.4351 115.249 13.9695L109.924 13.7405C109.81 14.4275 108.378 16.0878 106.203 16.0878C103.283 16.0878 101.68 13.7977 101.68 11.6221H115.478Z" fill="white"/>
<path d="M24.1035 19.8666C24.1035 16.4887 26.8516 13.6833 30.2867 13.6833C33.6646 13.6833 36.4699 16.4314 36.4699 19.8666C36.4699 23.2444 33.7218 26.0498 30.2867 26.0498C26.8516 26.0498 24.1035 23.3017 24.1035 19.8666Z" fill="white"/>
<path d="M12.0801 19.8666C12.0801 16.4887 14.8282 13.6833 18.2633 13.6833C21.6411 13.6833 24.4465 16.4314 24.4465 19.8666C24.4465 23.2444 21.6984 26.0498 18.2633 26.0498C14.8282 26.0498 12.0801 23.3017 12.0801 19.8666Z" fill="white"/>
<path d="M0 19.8664C0 16.4886 2.74809 13.7405 6.18321 13.7405C9.56107 13.7405 12.3664 16.4886 12.3664 19.9237C12.3664 23.3015 9.61832 26.1069 6.18321 26.1069C2.74809 26.0496 0 23.3015 0 19.8664Z" fill="white"/>
<path d="M24.1035 7.84361C24.1035 4.46574 26.8516 1.6604 30.2867 1.6604C33.6646 1.6604 36.4699 4.40849 36.4699 7.84361C36.4699 11.2215 33.7218 14.0268 30.2867 14.0268C26.8516 13.9696 24.1035 11.2215 24.1035 7.84361Z" fill="white"/>
<path d="M12.0801 7.84361C12.0801 4.46574 14.8282 1.6604 18.2633 1.6604C21.6411 1.6604 24.4465 4.40849 24.4465 7.84361C24.4465 11.2215 21.6984 14.0268 18.2633 14.0268C14.8282 13.9696 12.0801 11.2215 12.0801 7.84361Z" fill="white"/>
<path d="M36.126 7.84361C36.126 4.46574 38.8741 1.6604 42.3092 1.6604C45.687 1.6604 48.4924 4.40849 48.4924 7.84361C48.4924 11.2215 45.7443 14.0268 42.3092 14.0268C38.9313 13.9696 36.126 11.2215 36.126 7.84361Z" fill="white"/>
</g>
<defs>
<clipPath id="clip0">
<rect width="135.63" height="30" fill="white"/>
</clipPath>
</defs>
</svg>
