<svg width="94" height="30" viewBox="0 0 94 30" fill="none" xmlns="http://www.w3.org/2000/svg">
<g clip-path="url(#clip0)">
<path fill-rule="evenodd" clip-rule="evenodd" d="M32.8405 19.6346V9.36877H50.1329V11.0631H42.907V13.7043H50.0831V15.299H42.907V18.0897H50.0831V19.6346H32.8405ZM55.1661 19.6346H65.1827V15.299H72.4086V13.7043H65.1827V11.0631H72.4086V9.36877H55.1163V19.6346H55.1661ZM75.9468 19.6346H86.0133V15.299H93.2392V13.7043H86.0133V11.0631H93.2392V9.36877H75.9468V19.6346ZM19.8837 28.4053L19.9834 28.3555C21.7276 27.7076 23.3223 26.7608 24.7176 25.515C27.7575 22.7741 29.5515 18.7375 29.5515 14.6512C29.5515 6.62791 22.9734 0 14.9502 0C6.87708 0 0.299003 6.62791 0.299003 14.6512C0.299003 18.2392 1.64452 21.7774 4.03655 24.4684C5.63123 26.2625 7.62458 27.5581 9.86711 28.4053H9.96678H0V29.9502H14.0532C14.0532 29.1528 14.0532 28.4053 14.0532 27.608C7.27575 27.2093 1.84385 21.5282 1.84385 14.6512C1.84385 7.47508 7.72425 1.59468 14.9003 1.59468C22.0764 1.59468 27.9568 7.47508 27.9568 14.6512C27.9568 21.5781 22.5249 27.2591 15.6977 27.6578C15.6977 28.505 15.6977 30 15.6977 30H29.8505V28.4053H19.8837ZM4.83389 19.6346H6.52824V11.6113L11.3123 19.6346H24.9169V9.31894H23.3721V18.1395L18.0399 9.31894H4.83389V19.6346Z" fill="white"/>
</g>
<defs>
<clipPath id="clip0">
<rect width="93.2392" height="30" fill="white"/>
</clipPath>
</defs>
</svg>
