<svg width="85" height="30" viewBox="0 0 85 30" fill="none" xmlns="http://www.w3.org/2000/svg">
<g clip-path="url(#clip0)">
<path d="M34.0388 16.1084L32.4132 12.3153H30.0487V12.4631H30.2457C30.3935 12.4631 30.5413 12.5124 30.6398 12.5616C30.7383 12.6109 30.7876 12.6601 30.8368 12.7587C30.8861 12.8079 30.8861 13.005 30.8861 13.3005V16.9459C30.8861 17.1922 30.8861 17.34 30.8861 17.3892C30.8368 17.537 30.7876 17.6355 30.7383 17.6848C30.6891 17.7833 30.5905 17.8326 30.492 17.8818C30.3935 17.9311 30.2457 17.9311 30.1472 17.9311H30.0487V18.0789H32.0191V17.9311C31.7728 17.9311 31.5757 17.8818 31.428 17.7833C31.2802 17.6848 31.2309 17.5863 31.1817 17.4385C31.1817 17.3892 31.1817 17.1922 31.1817 16.8966V12.8079L33.4477 18.0296H33.5462L35.7629 12.8079V17.0936C35.7629 17.3892 35.7629 17.5863 35.7137 17.6355C35.6644 17.734 35.6152 17.7833 35.5659 17.8326C35.4674 17.8818 35.3196 17.9311 35.1718 17.9311H34.9748V18.0789H37.9797V17.9311H37.7826C37.6349 17.9311 37.4871 17.8818 37.3886 17.8326C37.29 17.7833 37.2408 17.734 37.1915 17.6355C37.1423 17.5863 37.1423 17.3892 37.1423 17.0936V13.3005C37.1423 13.005 37.1423 12.8572 37.1915 12.7587C37.2408 12.6601 37.29 12.6109 37.3393 12.5616C37.4378 12.5124 37.5856 12.4631 37.7334 12.4631H37.9304V12.3153H35.5659L34.0388 16.1084ZM49.9501 15.468C49.7531 15.271 49.359 15.1232 48.8171 15.0247C49.3097 14.8769 49.7038 14.7291 49.9009 14.4828C50.0979 14.2858 50.1964 14.0395 50.1964 13.7439C50.1964 13.4976 50.0979 13.2513 49.9501 13.005C49.8023 12.7587 49.556 12.6109 49.3097 12.4631C49.0142 12.3646 48.5708 12.2661 47.8812 12.2661H45.1225V12.4138C45.3689 12.4138 45.5659 12.4138 45.6644 12.4631C45.7629 12.5124 45.8122 12.5616 45.8615 12.6601C45.9107 12.7587 45.9107 12.9557 45.9107 13.2513V16.9951C45.9107 17.2907 45.9107 17.4877 45.8615 17.5863C45.8122 17.6848 45.7629 17.734 45.6644 17.7833C45.5659 17.8326 45.3689 17.8818 45.1225 17.8818V18.0296H48.0782C48.9156 18.0296 49.5068 17.8818 49.9501 17.537C50.295 17.2414 50.492 16.8966 50.492 16.4533C50.4427 16.0592 50.295 15.7143 49.9501 15.468ZM47.2408 12.6109C47.6349 12.6109 47.9797 12.6601 48.1275 12.7587C48.3245 12.8572 48.4723 12.9557 48.5708 13.1528C48.6693 13.3005 48.7186 13.5468 48.7186 13.7932C48.7186 14.0395 48.6693 14.2365 48.5708 14.4335C48.4723 14.5813 48.3245 14.7291 48.1275 14.8276C47.9304 14.9262 47.6349 14.9754 47.2408 14.9754V12.6109ZM48.7679 17.1922C48.6693 17.3892 48.5216 17.537 48.3245 17.6355C48.1275 17.734 47.9304 17.7833 47.6841 17.7833C47.5363 17.7833 47.4378 17.734 47.3393 17.6848C47.2408 17.5863 47.2408 17.4877 47.2408 17.34V17.1429V15.271C47.6841 15.271 47.9797 15.3202 48.226 15.4188C48.423 15.5173 48.6201 15.6651 48.7186 15.8621C48.8664 16.0592 48.9156 16.3055 48.9156 16.601C48.9156 16.7488 48.8664 16.9951 48.7679 17.1922ZM41.4772 12.2168C40.6398 12.1675 39.9009 12.4631 39.3097 13.005C38.7186 13.5961 38.423 14.2858 38.423 15.1725C38.423 15.9606 38.6693 16.601 39.1127 17.1429C39.7038 17.8326 40.492 18.1774 41.5265 18.1774C42.561 18.1774 43.3491 17.8326 43.9403 17.0936C44.3836 16.5518 44.5807 15.9114 44.5807 15.1725C44.5807 14.335 44.2851 13.5961 43.694 13.005C43.1521 12.4631 42.4132 12.1675 41.4772 12.2168ZM42.8565 16.7981C42.7088 17.1922 42.5117 17.4877 42.2654 17.6848C42.0684 17.8326 41.8221 17.8818 41.5265 17.8818C41.0831 17.8818 40.7383 17.734 40.492 17.3892C40.1472 16.8966 39.9501 16.2069 39.9501 15.2217C39.9501 14.3843 40.0487 13.7439 40.295 13.3005C40.5905 12.7587 40.9846 12.5124 41.4772 12.5124C41.7728 12.5124 42.0191 12.6109 42.2161 12.7587C42.4132 12.9065 42.6102 13.202 42.758 13.5468C42.9058 13.9409 42.9551 14.4828 42.9551 15.271C43.0536 15.8621 43.0043 16.404 42.8565 16.7981ZM77.3886 16.8966L75.3196 12.1675H75.2211L73.1521 16.7981C72.9551 17.2414 72.8073 17.537 72.6595 17.6848C72.5117 17.8326 72.3639 17.9311 72.1669 17.9311V18.0789H74.0881V17.9311C73.7925 17.9311 73.5955 17.8818 73.4969 17.8326C73.3492 17.734 73.2999 17.6355 73.2999 17.4877C73.2999 17.3892 73.3492 17.1922 73.3984 17.0444L73.6447 16.5025H75.6644L75.96 17.2414C76.0585 17.4385 76.0585 17.537 76.1078 17.537C76.1078 17.5863 76.157 17.6355 76.157 17.6848C76.157 17.7833 76.1078 17.8326 76.0585 17.8818C75.96 17.9311 75.8122 17.9803 75.5659 17.9803H75.4674V18.1281H78.2753V17.9803C78.0782 17.9803 77.9797 17.9311 77.8812 17.8326C77.7334 17.6355 77.5856 17.3892 77.3886 16.8966ZM73.8418 16.1084L74.7285 14.138L75.5659 16.1084H73.8418ZM82.561 12.3153V12.4631C82.9058 12.4631 83.1028 12.5616 83.2506 12.7094C83.3492 12.8079 83.3984 13.0542 83.3984 13.3991V15.8621L80.5413 12.2661H78.4723V12.4138C78.6693 12.4138 78.7679 12.4631 78.8664 12.5124C78.9649 12.5616 79.0634 12.6601 79.2112 12.8079L79.359 12.9557V17.0444C79.359 17.3399 79.3097 17.5863 79.162 17.6848C79.0142 17.8326 78.8171 17.8818 78.5216 17.8818V18.0296H80.5905V17.8818H80.4427C80.2457 17.8818 80.0487 17.8326 79.9009 17.6848C79.7531 17.5863 79.6546 17.34 79.6546 16.9951V13.3005L83.5462 18.1281H83.694V13.3005C83.694 13.005 83.694 12.8572 83.7432 12.7094C83.7925 12.6109 83.8418 12.5124 83.9403 12.4631C84.0388 12.4138 84.1866 12.3646 84.4329 12.3646V12.3153H82.561ZM50.9354 12.4631H51.1324C51.2802 12.4631 51.428 12.5124 51.5265 12.5616C51.625 12.6109 51.6743 12.6601 51.7235 12.7587C51.7235 12.8079 51.7235 13.005 51.7235 13.3005V17.0936C51.7235 17.3892 51.7235 17.5863 51.6743 17.6355C51.625 17.734 51.5757 17.7833 51.5265 17.8326C51.428 17.8818 51.2802 17.9311 51.1324 17.9311H50.9354V18.0789H53.9403V17.9311H53.7432C53.5955 17.9311 53.4477 17.8818 53.3491 17.8326C53.2506 17.7833 53.2014 17.734 53.1521 17.6355C53.1028 17.5863 53.1028 17.3892 53.1028 17.0936V13.3005C53.1028 13.005 53.1028 12.8079 53.1521 12.7587C53.2014 12.6601 53.2506 12.6109 53.3491 12.5616C53.4477 12.5124 53.5955 12.4631 53.7432 12.4631H53.9403V12.3153H50.9354V12.4631ZM71.1817 17.0936C71.0339 17.34 70.8368 17.4877 70.6398 17.5863C70.4427 17.6848 70.1964 17.734 69.8516 17.734H69.359C69.0634 17.734 68.9157 17.734 68.8664 17.6848C68.7679 17.6355 68.7186 17.5863 68.6693 17.4877C68.6201 17.3892 68.6201 17.2414 68.6201 16.9459V13.3005C68.6201 13.005 68.6201 12.8079 68.6693 12.7587C68.7186 12.6601 68.7679 12.6109 68.8664 12.5616C68.9649 12.5124 69.1127 12.4631 69.2605 12.4631H69.5068V12.3153H66.4033V12.4631H66.6004C66.7482 12.4631 66.896 12.5124 66.9945 12.5616C67.093 12.6109 67.1423 12.6601 67.1915 12.7587C67.2408 12.8572 67.2408 13.005 67.2408 13.3005V17.0936C67.2408 17.3892 67.2408 17.5863 67.1915 17.6355C67.1423 17.734 67.093 17.7833 67.0437 17.8326C66.9452 17.8818 66.7974 17.9311 66.6496 17.9311H66.4526V18.0789H71.5758L71.7728 16.0592H71.5758C71.4772 16.5025 71.3294 16.8473 71.1817 17.0936ZM65.4674 12.4631C65.4181 12.5124 65.3196 12.5616 65.2211 12.5616C65.1718 12.5616 64.9748 12.5124 64.7285 12.4138C64.2851 12.2168 63.8418 12.1675 63.4477 12.1675C62.9058 12.1675 62.3639 12.3153 61.8713 12.5616C61.3787 12.8572 60.9846 13.202 60.689 13.6946C60.3935 14.1872 60.2457 14.7291 60.2457 15.271C60.2457 15.8129 60.3935 16.3055 60.6398 16.7488C60.8861 17.1922 61.2802 17.5863 61.7235 17.8326C62.2161 18.0789 62.758 18.2267 63.3492 18.2267C63.8418 18.2267 64.2359 18.1281 64.5807 17.9803C64.9255 17.8326 65.2703 17.5863 65.6152 17.2414V16.7488C65.2703 17.1429 64.9748 17.3892 64.6792 17.5863C64.3836 17.734 64.0388 17.8326 63.694 17.8326C63.2506 17.8326 62.9058 17.734 62.6102 17.4877C62.3147 17.2907 62.1176 16.9459 62.0191 16.5025C61.8713 16.0592 61.8221 15.6158 61.8221 15.0739C61.8221 14.5321 61.9206 14.0887 62.0684 13.6454C62.2161 13.3005 62.4132 13.0542 62.7088 12.8079C63.0043 12.6109 63.3492 12.5124 63.694 12.5124C64.1373 12.5124 64.5314 12.6601 64.8762 12.9065C65.2211 13.202 65.4674 13.5961 65.5659 14.0887H65.7137V12.069H65.5659C65.6152 12.3153 65.5659 12.4138 65.4674 12.4631ZM59.0634 17.0936C58.9156 17.34 58.7186 17.4877 58.5216 17.5863C58.3245 17.6848 58.0782 17.734 57.7334 17.734H57.2408C56.9452 17.734 56.7974 17.734 56.7482 17.6848C56.6496 17.6355 56.6004 17.5863 56.5511 17.4877C56.5019 17.3892 56.5019 17.2414 56.5019 16.9459V13.3005C56.5019 13.005 56.5019 12.8079 56.5511 12.7587C56.6004 12.6601 56.6496 12.6109 56.7482 12.5616C56.8467 12.5124 56.9945 12.4631 57.1423 12.4631H57.3886V12.3153H54.2851V12.4631H54.4822C54.6299 12.4631 54.7777 12.5124 54.8762 12.5616C54.9748 12.6109 55.024 12.6601 55.0733 12.7587C55.1225 12.8572 55.1225 13.005 55.1225 13.3005V17.0936C55.1225 17.3892 55.1225 17.5863 55.0733 17.6355C55.024 17.734 54.9748 17.7833 54.9255 17.8326C54.827 17.8818 54.6792 17.9311 54.5314 17.9311H54.3344V18.0789H59.4575L59.6546 16.0592H59.4575C59.359 16.5025 59.2112 16.8473 59.0634 17.0936ZM24.6299 21.9212C23.4969 21.0838 22.6595 20.1478 23.1521 19.4582C23.6447 18.7685 25.96 17.6848 25.1225 12.5616C24.2851 7.43847 22.3639 5.41877 18.7186 2.70941C17.3886 1.72419 13.7925 0.738963 13.7925 0.738963C13.7925 0.738963 11.3787 -0.541825 11.3294 0.246352C11.2802 1.03453 11.4772 2.66015 10.8368 2.70941C10.1964 2.75867 9.90087 3.49758 8.37378 2.2168C7.68412 1.67492 5.27033 0.0985692 4.9255 1.72419C4.9255 1.72419 6.20629 2.75867 6.40333 3.69463C6.60038 4.63059 6.30481 5.66507 4.9255 7.1429C3.54619 8.62074 2.95506 10.5419 2.95506 11.5764C2.95506 12.6109 2.36393 13.9409 1.47723 15.5173C0.590526 17.0936 -0.14839 18.2759 -0.000606773 19.9508C0.147176 21.6257 0.245699 22.4138 0.984615 22.9065C1.72353 23.3991 2.36393 22.9557 2.46245 23.3991C2.56097 23.8424 3.54619 23.7439 3.94028 23.3991C4.33437 23.0542 4.33437 23.1528 4.9255 22.9065C5.51663 22.6601 5.76294 22.069 5.91072 21.4286C6.05851 20.7882 5.17181 19.9508 6.40333 19.4582C7.63486 18.9656 8.86639 17.4877 8.86639 17.4877C9.01417 17.1429 9.95013 16.8473 9.85161 17.4877C9.75309 18.1281 9.16195 20.7882 8.86639 21.9212C8.57082 23.0542 7.48708 29.3597 8.86639 29.803C10.2457 30.2464 11.625 29.803 12.8073 29.803C13.9895 29.803 16.8467 30.0493 17.7334 28.8178C18.6201 27.5863 20.7876 25.6651 22.1669 24.8769C23.5462 24.0887 25.5659 24.4828 25.6152 23.8917C25.7137 23.3005 25.7629 22.7587 24.6299 21.9212Z" fill="white"/>
</g>
<defs>
<clipPath id="clip0">
<rect width="84.4828" height="30" fill="white"/>
</clipPath>
</defs>
</svg>
