<svg width="154" height="30" viewBox="0 0 154 30" fill="none" xmlns="http://www.w3.org/2000/svg">
<g clip-path="url(#clip0)">
<path d="M0 0.220459H7.20686L24.5752 21.2164V29.6991L0 0.220459Z" fill="white"/>
<path d="M51.1866 0.220459H27.6895V1.22313V5.77527V11.7913H33.2194V5.77527H51.1866V0.220459Z" fill="white"/>
<path d="M27.6895 29.4988H51.1866V28.4961V23.964V17.948H45.6567V23.964H27.6895V29.4988Z" fill="white"/>
<path d="M67.1178 9.40508H67.1777L71.41 0H73.6659L68.136 11.8316H66.0797L60.5498 0H62.8656L67.1178 9.40508Z" fill="white"/>
<path d="M89.0381 9.16444H82.2105L80.9528 11.8316H78.7568L84.4664 0H86.8421L92.5517 11.8316H90.2958L89.0381 9.16444ZM88.2196 7.41979L85.6443 1.96524H85.5844L83.029 7.41979H88.2196Z" fill="white"/>
<path d="M111.836 0V7.29947C111.836 10.6684 109.42 12.1123 105.927 12.1123C102.453 12.1123 100.018 10.6484 100.018 7.29947V0H102.054V7.2393C102.054 9.44519 103.631 10.3877 105.907 10.3877C108.183 10.3877 109.76 9.44519 109.76 7.2393V0H111.836Z" fill="white"/>
<path d="M132.638 1.80481H127.667V11.8316H125.631V1.80481H120.66V0H132.618V1.80481H132.638Z" fill="white"/>
<path d="M153.34 0V11.8316H151.304V6.6377H143.538V11.8316H141.502V0H143.538V4.85294H151.304V0H153.34Z" fill="white"/>
<path d="M67.1579 19.2714C65.3213 19.2714 64.0236 19.7527 64.0236 20.9759C64.0236 21.9786 64.7423 22.2593 65.8004 22.3997L70.0127 22.9211C71.7695 23.1417 73.3067 23.8636 73.3067 26.27C73.3067 28.9973 70.8512 30.02 67.3176 30.02C63.9837 30.02 61.3884 29.0374 61.3086 25.7286H63.5046C63.5844 27.8142 65.2614 28.3355 67.3376 28.3355C69.5536 28.3355 71.0109 27.6938 70.9909 26.4104C70.971 25.2072 70.1924 24.8863 69.0345 24.746L64.9819 24.2246C63.1852 23.9839 61.7278 23.262 61.7278 21.1363C61.7278 18.6497 64.0236 17.6069 67.138 17.6069C70.2124 17.6069 72.8276 18.5695 72.8875 21.4973H70.6915C70.6516 19.7125 69.0545 19.2714 67.1579 19.2714Z" fill="white"/>
<path d="M90.8144 27.0321H83.9869L82.7292 29.6992H80.5332L86.2428 17.8677H88.6185L94.328 29.6992H92.0722L90.8144 27.0321ZM89.9959 25.3075L87.4406 19.853H87.3807L84.8254 25.3075H89.9959Z" fill="white"/>
<path d="M114.033 29.6993H112.316V27.9145C111.298 29.3784 109.68 30.0001 107.784 30.0001C103.871 30.0001 100.896 27.9546 100.896 23.7835C100.896 19.6123 103.791 17.5669 107.664 17.5669C111.717 17.5669 113.633 19.4319 113.953 21.7581H111.637C111.377 20.5749 110.399 19.3316 107.684 19.3316C105.129 19.3316 103.152 20.7353 103.152 23.7634C103.152 26.7915 105.129 28.1952 107.824 28.1952C110.239 28.1952 111.437 26.9519 111.697 25.0468H107.984V23.3824H114.072V29.6993H114.033Z" fill="white"/>
<path d="M125.372 22.6605H133.397V24.3851H125.372V27.9345H133.856V29.6992H123.315V17.8677H133.637V19.6524H125.372V22.6605Z" fill="white"/>
<path d="M142.84 29.6992V17.8677H144.876V27.8944H153.381V29.6792H142.84V29.6992Z" fill="white"/>
</g>
<defs>
<clipPath id="clip0">
<rect width="153.38" height="30" fill="white"/>
</clipPath>
</defs>
</svg>
