<svg width="57" height="30" viewBox="0 0 57 30" fill="none" xmlns="http://www.w3.org/2000/svg">
<g clip-path="url(#clip0)">
<path d="M17.6945 19.5191C17.6521 19.5191 17.6096 19.5191 17.5672 19.5191C17.1429 19.4767 16.8458 19.0948 16.8458 18.6704V0.848656C16.8458 0.381895 17.2277 0 17.6945 0C18.1612 0 18.5431 0.381895 18.5431 0.848656V15.0637C20.1556 12.645 23.0835 9.75955 27.8784 9.75955C32.6733 9.75955 35.6011 12.645 37.2136 15.0637V0.848656C37.2136 0.381895 37.5955 0 38.0622 0C38.529 0 38.9109 0.381895 38.9109 0.848656V18.6704C38.9109 19.0948 38.6139 19.4342 38.1895 19.5191C37.7652 19.604 37.3833 19.3069 37.256 18.925C37.1287 18.628 34.8798 11.4569 27.8784 11.4569C20.8345 11.4569 18.5431 18.8402 18.5007 18.925C18.3734 19.2645 18.0339 19.5191 17.6945 19.5191ZM32.1641 18.925C32.546 18.628 32.6308 18.1188 32.3338 17.7369C32.2489 17.6521 30.4668 15.2758 27.8359 15.2758C25.2051 15.2758 23.4229 17.6521 23.338 17.7369C23.041 18.1188 23.1259 18.628 23.5078 18.925C23.8897 19.2221 24.3989 19.1372 24.6959 18.7553C24.6959 18.7553 26.0537 16.9731 27.8359 16.9731C29.6181 16.9731 30.9335 18.7129 30.976 18.7553C31.1457 18.9675 31.4003 19.0948 31.6549 19.0948C31.867 19.0948 32.0368 19.0523 32.1641 18.925ZM20.4951 25.7992C20.6223 26.181 20.7072 26.5629 20.7072 27.0721C20.7072 27.5389 20.6223 27.9632 20.4951 28.3451C20.3678 28.727 20.1556 29.024 19.901 29.2362C19.6464 29.4908 19.3494 29.6605 19.0099 29.7878C18.6704 29.9151 18.2885 29.9576 17.9066 29.9576C17.5248 29.9576 17.1853 29.9151 16.8458 29.7878C16.5064 29.6605 16.2093 29.4908 15.9547 29.2362C15.7001 28.9816 15.488 28.6846 15.3607 28.3451C15.2334 27.9632 15.1485 27.5813 15.1485 27.0721C15.1485 26.6054 15.2334 26.181 15.3607 25.7992C15.5304 25.4173 15.7001 25.1202 15.9547 24.8656C16.2093 24.611 16.5064 24.4413 16.8458 24.314C17.1853 24.1867 17.5248 24.1443 17.9066 24.1443C18.2885 24.1443 18.628 24.1867 18.9675 24.314C19.3069 24.4413 19.604 24.611 19.8586 24.8656C20.1556 25.1627 20.3253 25.4597 20.4951 25.7992ZM19.3918 27.0721C19.3918 26.8175 19.3494 26.5629 19.3069 26.3083C19.2221 26.0962 19.1372 25.884 19.0099 25.7567C18.8826 25.587 18.7129 25.4597 18.5431 25.3748C18.3734 25.29 18.1612 25.2475 17.9066 25.2475C17.6521 25.2475 17.4399 25.29 17.2702 25.3748C17.1004 25.4597 16.9307 25.587 16.8034 25.7567C16.6761 25.9265 16.5912 26.0962 16.5064 26.3083C16.4215 26.5205 16.4215 26.7751 16.4215 27.0297C16.4215 27.2843 16.4639 27.5389 16.5064 27.7511C16.5912 27.9632 16.6761 28.1754 16.8034 28.3027C16.9307 28.4724 17.1004 28.5997 17.2702 28.6846C17.4399 28.7694 17.6521 28.8119 17.9066 28.8119C18.1188 28.8119 18.331 28.7694 18.5431 28.6846C18.7129 28.5997 18.8826 28.4724 19.0099 28.3027C19.1372 28.133 19.2221 27.9632 19.3069 27.7511C19.3918 27.5813 19.3918 27.3692 19.3918 27.0721ZM5.85573 25.29C5.8133 25.6294 5.72843 25.9689 5.686 26.3083C5.60113 26.6478 5.5587 26.9873 5.47383 27.3267C5.38897 27.6662 5.34653 27.9632 5.26167 28.2178C5.1768 27.9632 5.09194 27.7086 5.00707 27.4116C4.92221 27.1146 4.83734 26.8175 4.75248 26.5205C4.66761 26.2235 4.58274 25.9265 4.49788 25.6719C4.41301 25.3748 4.32815 25.1627 4.28571 24.9081H3.18246C3.14003 25.1202 3.05516 25.3748 2.9703 25.6294C2.88543 25.884 2.80057 26.181 2.7157 26.4781C2.63083 26.7751 2.54597 27.0721 2.4611 27.3692C2.37624 27.6662 2.29137 27.9632 2.16407 28.2178C2.07921 27.9632 1.99434 27.6662 1.95191 27.3267C1.86704 26.9873 1.82461 26.6902 1.73975 26.3083C1.65488 25.9689 1.61245 25.6294 1.52758 25.29C1.44272 24.9505 1.40028 24.611 1.35785 24.314H0C0.169731 25.2475 0.424328 26.181 0.636492 27.157C0.891089 28.133 1.14569 29.024 1.44272 29.9151H2.5884C2.75813 29.4059 2.9703 28.8543 3.14003 28.3027C3.30976 27.7511 3.47949 27.157 3.64922 26.6054C3.81895 27.157 3.98868 27.7511 4.15842 28.3027C4.32815 28.8543 4.49788 29.4059 4.71004 29.9151H5.85573C6.15276 29.0665 6.40736 28.133 6.66195 27.157C6.91655 26.181 7.12871 25.2475 7.29845 24.314H5.98303C5.98303 24.611 5.89816 24.9505 5.85573 25.29ZM26.9024 25.7567C27.0721 26.0962 27.1146 26.5629 27.1146 27.0721C27.1146 27.5389 27.0297 27.9632 26.9024 28.3451C26.7327 28.6846 26.5205 29.024 26.2659 29.2362C25.9689 29.4908 25.6719 29.6605 25.2475 29.7878C24.8656 29.9151 24.3989 29.9576 23.8897 29.9576C23.6775 29.9576 23.3805 29.9576 23.0835 29.9151C22.7864 29.9151 22.4894 29.8727 22.1924 29.7878V24.3564C22.4894 24.314 22.7864 24.2716 23.0835 24.2291C23.3805 24.2291 23.6775 24.1867 23.8897 24.1867C24.3564 24.1867 24.8232 24.2291 25.2051 24.3564C25.587 24.4837 25.9265 24.6535 26.2235 24.8656C26.5205 25.1202 26.7327 25.4173 26.9024 25.7567ZM25.8416 27.0721C25.8416 26.4781 25.7143 26.0538 25.4173 25.7567C25.1202 25.4597 24.6535 25.29 24.0594 25.29C23.9745 25.29 23.8897 25.29 23.8048 25.29C23.7199 25.29 23.6351 25.29 23.5502 25.29V28.8543C23.5926 28.8543 23.6775 28.8543 23.7624 28.8543C23.8472 28.8543 23.9321 28.8543 24.0594 28.8543C24.6959 28.8543 25.1627 28.6846 25.4597 28.3876C25.6719 28.0905 25.8416 27.6238 25.8416 27.0721ZM13.6209 25.7992C13.7482 26.181 13.8331 26.5629 13.8331 27.0721C13.8331 27.5389 13.7482 27.9632 13.6209 28.3451C13.4936 28.727 13.2815 29.024 13.0269 29.2362C12.7723 29.4908 12.4752 29.6605 12.1358 29.7878C11.7963 29.9151 11.4144 29.9576 11.0325 29.9576C10.6506 29.9576 10.3112 29.9151 9.97171 29.7878C9.63225 29.6605 9.33522 29.4908 9.08062 29.2362C8.82603 28.9816 8.61386 28.6846 8.48656 28.3451C8.35927 27.9632 8.2744 27.5813 8.2744 27.0721C8.2744 26.6054 8.35927 26.181 8.48656 25.7992C8.65629 25.4173 8.82603 25.1202 9.08062 24.8656C9.33522 24.611 9.63225 24.4413 9.97171 24.314C10.3112 24.1867 10.6506 24.1443 11.0325 24.1443C11.4144 24.1443 11.7539 24.1867 12.0934 24.314C12.4328 24.4413 12.7298 24.611 12.9844 24.8656C13.2815 25.1627 13.4936 25.4597 13.6209 25.7992ZM12.5601 27.0721C12.5601 26.8175 12.5177 26.5629 12.4752 26.3083C12.3904 26.0962 12.3055 25.884 12.1782 25.7567C12.0509 25.587 11.8812 25.4597 11.7115 25.3748C11.5417 25.29 11.3296 25.2475 11.075 25.2475C10.8204 25.2475 10.6082 25.29 10.4385 25.3748C10.2687 25.4597 10.099 25.587 9.97171 25.7567C9.84441 25.9265 9.75955 26.0962 9.67468 26.3083C9.58982 26.5205 9.58982 26.7751 9.58982 27.0297C9.58982 27.2843 9.63225 27.5389 9.67468 27.7511C9.75955 27.9632 9.84441 28.1754 9.97171 28.3027C10.099 28.4724 10.2687 28.5997 10.4385 28.6846C10.6082 28.7694 10.8204 28.8119 11.075 28.8119C11.2871 28.8119 11.4993 28.7694 11.7115 28.6846C11.8812 28.5997 12.0509 28.4724 12.1782 28.3027C12.3055 28.133 12.3904 27.9632 12.4752 27.7511C12.5177 27.5813 12.5601 27.3692 12.5601 27.0721ZM49.604 28.6846C49.5191 28.727 49.4342 28.7695 49.3069 28.7695C49.1796 28.8119 49.0523 28.8119 48.925 28.8543C48.7977 28.8967 48.628 28.8967 48.4158 28.8967C48.1188 28.8967 47.8642 28.8543 47.6945 28.7695C47.4823 28.6846 47.3126 28.5573 47.1853 28.3876C47.058 28.2178 46.9731 28.0481 46.9307 27.7935C46.8883 27.5813 46.8458 27.3267 46.8458 27.0721C46.8458 26.7327 46.8883 26.4781 46.9731 26.2659C47.058 26.0538 47.1853 25.8416 47.3126 25.7143C47.4399 25.587 47.6096 25.4597 47.8218 25.4173C47.9915 25.3324 48.2037 25.3324 48.3734 25.3324C48.6704 25.3324 48.925 25.3748 49.1372 25.4173C49.3494 25.5021 49.5615 25.5446 49.7313 25.6719L50.1132 24.6535C50.0707 24.611 49.9859 24.5686 49.901 24.5262C49.8161 24.4837 49.6888 24.4413 49.5191 24.3989C49.3918 24.3564 49.2221 24.314 49.0099 24.2716C48.7977 24.2291 48.5856 24.2291 48.3734 24.2291C47.9491 24.2291 47.5672 24.314 47.2277 24.4413C46.8883 24.5686 46.5912 24.7808 46.3366 24.9929C46.082 25.2475 45.8699 25.5446 45.7426 25.9265C45.6153 26.3083 45.5304 26.6902 45.5304 27.157C45.5304 28.0905 45.785 28.8119 46.2518 29.3211C46.7185 29.8303 47.4399 30.0849 48.331 30.0849C48.7553 30.0849 49.1372 30.0424 49.4342 29.9576C49.7737 29.8727 49.9859 29.7878 50.198 29.6605L49.8586 28.6422C49.7737 28.5997 49.6888 28.6422 49.604 28.6846ZM44.0453 25.7992C44.1726 26.181 44.2574 26.5629 44.2574 27.0721C44.2574 27.5389 44.1726 27.9632 44.0453 28.3451C43.918 28.727 43.7058 29.024 43.4512 29.2362C43.1966 29.4908 42.8996 29.6605 42.5601 29.7878C42.2207 29.9151 41.8388 29.9576 41.4569 29.9576C41.075 29.9576 40.7355 29.9151 40.396 29.7878C40.0566 29.6605 39.7595 29.4908 39.505 29.2362C39.2504 28.9816 39.0382 28.6846 38.9109 28.3451C38.7836 27.9632 38.6987 27.5813 38.6987 27.0721C38.6987 26.6054 38.7836 26.181 38.9109 25.7992C39.0806 25.4173 39.2504 25.1202 39.505 24.8656C39.7595 24.611 40.0566 24.4413 40.396 24.314C40.7355 24.1867 41.075 24.1443 41.4569 24.1443C41.8388 24.1443 42.1782 24.1867 42.5177 24.314C42.8571 24.4413 43.1542 24.611 43.4088 24.8656C43.6634 25.1627 43.8755 25.4597 44.0453 25.7992ZM42.942 27.0721C42.942 26.8175 42.8996 26.5629 42.8571 26.3083C42.7723 26.0962 42.6874 25.884 42.5601 25.7567C42.4328 25.587 42.2631 25.4597 42.0934 25.3748C41.9236 25.29 41.7115 25.2475 41.4569 25.2475C41.2023 25.2475 40.9901 25.29 40.8204 25.3748C40.6506 25.4597 40.4809 25.587 40.3536 25.7567C40.2263 25.9265 40.1414 26.0962 40.0566 26.3083C39.9717 26.5205 39.9717 26.7751 39.9717 27.0297C39.9717 27.2843 40.0141 27.5389 40.0566 27.7511C40.1414 27.9632 40.2263 28.1754 40.3536 28.3027C40.4809 28.4724 40.6506 28.5997 40.8204 28.6846C40.9901 28.7694 41.2023 28.8119 41.4569 28.8119C41.669 28.8119 41.8812 28.7694 42.0934 28.6846C42.2631 28.5997 42.4328 28.4724 42.5601 28.3027C42.6874 28.133 42.7723 27.9632 42.8571 27.7511C42.8996 27.5813 42.942 27.3692 42.942 27.0721ZM33.1825 25.3748H34.8798V29.8727H36.1528V25.3748H37.8501V24.314H33.1825V25.3748ZM31.9519 27.157C31.8246 27.0297 31.6124 26.9024 31.4003 26.7751C31.1881 26.6902 30.9335 26.5629 30.6365 26.4356C30.5092 26.3932 30.3819 26.3508 30.2546 26.3083C30.1273 26.2659 30.0424 26.2235 29.9576 26.1386C29.8727 26.0537 29.7878 26.0113 29.7454 25.9689C29.703 25.884 29.6605 25.7992 29.6605 25.7143C29.6605 25.5446 29.7454 25.4173 29.8727 25.3324C30 25.2475 30.2122 25.2051 30.5092 25.2051C30.7638 25.2051 31.0184 25.2475 31.1881 25.29C31.3579 25.3324 31.57 25.4173 31.6973 25.5021L32.0792 24.5262C31.9095 24.4413 31.6549 24.3564 31.4003 24.2716C31.1457 24.1867 30.8062 24.1443 30.4243 24.1443C30.1273 24.1443 29.8303 24.1867 29.5757 24.2716C29.3211 24.3564 29.1089 24.4413 28.9392 24.611C28.7694 24.7383 28.6422 24.9505 28.5149 25.1202C28.43 25.3324 28.3876 25.5446 28.3876 25.7992C28.3876 26.0537 28.43 26.2659 28.5149 26.4356C28.5997 26.6054 28.727 26.7751 28.8543 26.9024C28.9816 27.0297 29.1513 27.1146 29.3635 27.1994C29.5332 27.2843 29.7454 27.3692 29.9151 27.4116C30.3395 27.5389 30.6365 27.6662 30.8062 27.7935C30.976 27.9208 31.0608 28.0481 31.0608 28.2603C31.0608 28.3451 31.0608 28.43 31.0184 28.5149C30.976 28.5997 30.9335 28.6422 30.8911 28.6846C30.8062 28.727 30.7214 28.7695 30.5941 28.8119C30.4668 28.8543 30.3395 28.8543 30.1697 28.8543C29.8303 28.8543 29.5332 28.8119 29.2786 28.727C29.024 28.6422 28.8119 28.5573 28.6422 28.4724L28.3027 29.4908C28.3876 29.5332 28.4724 29.5757 28.5997 29.6181C28.727 29.6605 28.8543 29.703 28.9816 29.7454C29.1513 29.7878 29.3211 29.8303 29.4908 29.8727C29.703 29.9151 29.9151 29.9151 30.1697 29.9151C30.8911 29.9151 31.4427 29.7878 31.8246 29.4908C32.2065 29.1938 32.3762 28.8119 32.3762 28.2603C32.3762 28.0057 32.3338 27.7511 32.2914 27.5813C32.2065 27.454 32.1216 27.2843 31.9519 27.157ZM55.0778 28.1754C54.6535 27.6662 54.2291 27.2419 53.8048 26.86C54.2291 26.4356 54.6535 26.0113 55.0354 25.587C55.4173 25.1627 55.7992 24.7383 56.181 24.2716H54.6959C54.3989 24.611 54.1018 24.9505 53.7624 25.29C53.4229 25.6719 53.0835 26.0113 52.7864 26.3508V24.2716H51.5134V29.8727H52.7864V27.4965C52.9986 27.6662 53.1683 27.8359 53.3805 28.0057C53.5927 28.1754 53.7624 28.3876 53.9321 28.6422C54.1018 28.8543 54.2716 29.0665 54.4413 29.2786C54.611 29.4908 54.7383 29.703 54.8232 29.8727H56.3083C55.884 29.2362 55.5021 28.6846 55.0778 28.1754Z" fill="white"/>
</g>
<defs>
<clipPath id="clip0">
<rect width="56.2659" height="30" fill="white"/>
</clipPath>
</defs>
</svg>
