<svg width="122" height="30" viewBox="0 0 122 30" fill="none" xmlns="http://www.w3.org/2000/svg">
<g clip-path="url(#clip0)">
<path d="M108.42 13.6117V15.6433H105.237V13.6117C105.237 12.7314 105.982 12.0542 106.862 12.0542C107.675 12.0542 108.42 12.7991 108.42 13.6117ZM67.8555 12.0542C66.9752 12.0542 66.298 12.7991 66.298 13.6117V15.6433H69.4808V13.6117C69.4808 12.7991 68.8036 12.0542 67.8555 12.0542ZM121.896 0V30H0V0H121.896ZM45.7788 6.56885L47.2686 9.41309L51.9413 6.97517L50.4515 4.19865L45.7788 6.56885ZM39.2099 5.01129H27.833L22.3476 12.5282L16.8623 5.01129H3.92777V8.19413H6.16253V21.1964H3.92777V24.3792H12.1219V21.1964H9.81941V12.7314L18.2844 24.3115L26.6817 12.7314V21.1287H24.3792V24.3115H39.2099V21.1287H36.9075V8.19413H39.2099V5.01129ZM56.0722 21.1287H53.7698V9.81941H41.2415V13.0023H43.544V21.1964H41.2415V24.3792H56.0722V21.1287ZM74.763 10.7675C70.4289 8.60045 65.8239 8.46501 61.3544 10.3612C57.6298 11.9187 55.9368 16.1851 57.4944 19.9097C58.307 21.8059 59.6614 23.1603 61.6253 23.8375C66.0271 25.5305 70.4289 25.395 74.6953 23.4312C76.5237 22.6185 77.8781 21.1964 78.5553 19.3002H72.8668C72.2573 21.3318 70.0903 22.4831 68.0587 21.8736C67.8555 21.8059 67.7201 21.7381 67.5169 21.6704C66.7043 21.2641 66.2303 20.5192 66.2303 19.6388V18.2167H78.6907C79.0971 15.0339 77.6072 12.1896 74.763 10.7675ZM94.9436 21.1287H92.6411V5.01129H79.7065V8.19413H81.9413V21.1964H79.7065V24.3792H94.9436V21.1287ZM113.702 10.7675C109.368 8.60045 104.763 8.46501 100.293 10.3612C96.5689 11.9187 94.8758 16.1851 96.4334 19.9097C97.246 21.8059 98.6005 23.1603 100.564 23.8375C104.966 25.5305 109.368 25.395 113.634 23.4312C115.53 22.6185 116.817 21.1964 117.494 19.3002H111.806C111.196 21.3318 109.029 22.4831 106.93 21.8736C106.727 21.8059 106.591 21.7381 106.388 21.6704C105.576 21.2641 105.102 20.5192 105.102 19.6388V18.2167H117.562C118.036 15.0339 116.546 12.1896 113.702 10.7675Z" fill="white"/>
</g>
<defs>
<clipPath id="clip0">
<rect width="121.896" height="30" fill="white"/>
</clipPath>
</defs>
</svg>
