<svg width="130" height="30" viewBox="0 0 130 30" fill="none" xmlns="http://www.w3.org/2000/svg">
<path fill-rule="evenodd" clip-rule="evenodd" d="M37.8571 22.1429C37.8571 24.7857 35.2143 25 34.5 25C33.5 24.9286 31.4286 24.5 31.4286 22.1429C31.4286 19.0714 31.4286 11.4286 31.4286 11.4286H25V23.5714C25 23.5714 25.6429 30 34.2857 30H35C43.6429 30 44.2857 23.5714 44.2857 23.5714V11.4286H37.8571C37.8571 11.4286 37.8571 19.0714 37.8571 22.1429ZM119.643 10.7143C113.929 10.7143 109.286 15 109.286 20.3571C109.286 25.7143 113.929 30 119.643 30C125.357 30 130 25.7143 130 20.3571C130 15 125.357 10.7143 119.643 10.7143ZM119.643 24.2857C117.071 24.2857 115 22.3571 115 20C115 17.6429 117.071 15.7143 119.643 15.7143C122.214 15.7143 124.286 17.6429 124.286 20C124.286 22.3571 122.214 24.2857 119.643 24.2857ZM11.4286 10.7143C7.64286 10.7143 5.71429 12.8571 5.71429 12.8571V0H0V29.2857H5.71429V27.8571C5.71429 27.8571 7.71429 30 11.4286 30C15.1429 30 20.7143 27.2857 20.7143 20C20.7143 12.6429 14.1429 10.7143 11.4286 10.7143ZM10 24.2857C7.64286 24.2857 5.71429 22.3571 5.71429 20C5.71429 17.6429 7.64286 15.7143 10 15.7143C12.3571 15.7143 14.2857 17.6429 14.2857 20C14.2857 22.3571 12.3571 24.2857 10 24.2857ZM105 5.71429H98.5714V11.4286H92.8571V5.71429H86.4286V11.4286H84.2857V16.4286H86.4286V29.2857H92.8571V16.4286H98.5714V29.2857H105V16.4286H108.571V11.4286H105V5.71429ZM73.5714 25C70.7857 24.6429 70 21.4286 70 21.4286H83.5C83.5714 21.0714 83.5714 20.7143 83.5714 20.3571C83.5714 15 79.0714 10.7143 73.5714 10.7143C68.0714 10.7143 63.5714 15 63.5714 20.3571C63.5714 25.7143 68.0714 30 73.5714 30C77.9286 30 81.6429 27.2857 83 23.5714H77.1429C77.1429 23.5714 76.3571 25.3571 73.5714 25ZM73.5714 15C76.7857 15 77.1429 17.8571 77.1429 17.8571H70C70.6429 16.1429 71.4286 15 73.5714 15ZM55 17.1429C53.7143 16.5 54.2857 15.7143 54.2857 15.7143C55.7857 14.2143 59.2857 15.7143 59.2857 15.7143L61.4286 11.4286C61.4286 11.4286 55 9.5 51.4286 11.4286C47.8571 13.3571 47.8571 16.1429 47.8571 17.1429C47.8571 18.1429 48.3571 20.6429 51.4286 21.4286C56.1429 22.6429 56.7857 24.9286 54.2857 25C51.7857 25.0714 48.5714 22.8571 48.5714 22.8571L46.4286 27.1429C46.4286 27.1429 51 30 54.2857 30C57.5714 30 62.1429 28.0714 62.1429 22.8571C62.1429 17.6429 56.2857 17.7857 55 17.1429Z" fill="white"/>
</svg>
