<svg width="141" height="30" viewBox="0 0 141 30" fill="none" xmlns="http://www.w3.org/2000/svg">
<g clip-path="url(#clip0)">
<path d="M62.0301 10.5085L53.9775 30H64.861L72.905 10.5085H62.0301Z" fill="white"/>
<path d="M61.9521 0.179932H54.8316L45.1392 23.6571V0.179932H34.6182V29.9828H49.6445L59.6217 5.8285L61.9521 0.179932Z" fill="white"/>
<path d="M66.3622 0.179932L64.0146 5.8285H74.8377L77.1681 0.179932H66.3622Z" fill="white"/>
<path d="M129.368 8.1685L122.696 24.3256H118.157C117.878 24.3212 117.604 24.2498 117.359 24.1176C117.115 23.9853 116.906 23.7961 116.75 23.5661C116.595 23.3361 116.498 23.0722 116.468 22.797C116.438 22.5218 116.475 22.2434 116.577 21.9856L123.249 5.81993H127.78C128.061 5.82244 128.336 5.89283 128.583 6.025C128.83 6.15717 129.041 6.34713 129.197 6.57844C129.354 6.80976 129.451 7.07545 129.481 7.35251C129.511 7.62957 129.472 7.90965 129.368 8.1685ZM135.634 0.179932H118.044C117.028 0.186249 116.036 0.489523 115.192 1.05195C114.348 1.61438 113.689 2.4111 113.297 3.34279L105.297 22.6371C104.959 23.4503 104.83 24.3337 104.919 25.2087C105.009 26.0838 105.315 26.9231 105.811 27.6521C106.306 28.381 106.976 28.9769 107.76 29.3865C108.543 29.7962 109.417 30.0069 110.303 29.9999H127.564C128.582 30.0004 129.577 29.6998 130.423 29.1365C131.268 28.5733 131.926 27.7728 132.311 26.8371L140.407 7.21707C140.728 6.44326 140.851 5.6029 140.767 4.77035C140.682 3.93781 140.393 3.13873 139.923 2.44382C139.454 1.74891 138.82 1.17959 138.076 0.786218C137.332 0.392847 136.503 0.187555 135.66 0.188503" fill="white"/>
<path d="M92.9627 18.0944L91.625 21.3687C91.3266 22.1568 90.7933 22.8358 90.0963 23.3151C89.3992 23.7945 88.5716 24.0514 87.7238 24.0515H81.4492L83.2271 19.7658L84.7116 16.1658H91.6163C92.0056 16.1769 92.3753 16.3378 92.6474 16.6144C92.9196 16.8911 93.0729 17.2619 93.0749 17.6487C93.0758 17.8062 93.0496 17.9628 92.9973 18.1115L92.9627 18.0944ZM99.9019 10.5258H98.2534L99.5653 7.38867L100.221 5.71724C100.392 5.26784 100.479 4.79171 100.48 4.31152C100.481 3.24597 100.064 2.22192 99.3186 1.45578C98.5729 0.689631 97.5565 0.241403 96.4841 0.205811H81.501L79.1706 5.84581H89.9678C90.3884 5.86129 90.7867 6.03761 91.0794 6.33791C91.3722 6.63822 91.5367 7.03927 91.5386 7.45724C91.5396 7.626 91.5133 7.79383 91.461 7.95438L91.0381 8.98295L90.9604 9.15438C90.7675 9.54812 90.4668 9.87995 90.0929 10.1119C89.7189 10.3438 89.2867 10.4665 88.8458 10.4658H77.2459L69.1934 30.0001H92.9886C94.972 29.9996 96.9088 29.4023 98.5435 28.2868C100.178 27.1713 101.434 25.5901 102.146 23.7515L104.735 17.5887C105.026 16.8073 105.125 15.9686 105.025 15.1416C104.925 14.3147 104.628 13.5232 104.159 12.8325C103.691 12.1418 103.063 11.5717 102.329 11.1691C101.595 10.7666 100.775 10.5431 99.9365 10.5172" fill="white"/>
<path fill-rule="evenodd" clip-rule="evenodd" d="M0 0H30.0699V29.8629H0V0ZM22.5178 11.2456L23.191 10.8428L15.7253 6.61704V5.4536L25.3316 10.9286L25.2107 10.9972L15.7253 16.4116V13.1742L17.5205 14.1942L18.2024 13.7913L15.7253 12.3856V11.2542L19.1777 13.217L19.8595 12.8142L15.7253 10.4656V9.31704L20.8521 12.2313L21.5339 11.8285L15.7253 8.52847V7.39704L22.5178 11.2456ZM26.0825 10.7744L15.7253 4.8621V2.00562L2.77905 9.43704L5.36841 10.9251V22.1315V22.7144L15.7254 28.6029L25.5473 22.9801L26.0825 22.6715V10.7744ZM5.85174 22.3886V11.2029L15.432 16.7085V27.8572L5.85174 22.3886ZM25.5042 22.4144L16.0103 27.8572V16.8601H16.0534L25.5473 11.3915V22.3886L25.5042 22.4144ZM6.90479 21.857V12.9771L7.48305 13.3113V22.1913L6.90479 21.857ZM8.47559 13.8857V22.7572L9.16605 23.1515V14.2715L8.47559 13.8857ZM10.1672 14.8457V23.7086L10.8318 24.0943V15.2314L10.1672 14.8457ZM13.5159 16.7656V25.6371L14.2063 26.0399V17.1599L13.5159 16.7656ZM11.833 24.6771V15.8057L12.5235 16.1999V25.0714L11.833 24.6771ZM17.0374 18.0772V17.3229L24.4771 13.0801V13.8258L17.0374 18.0772ZM17.0374 19.32V20.1086L24.4771 15.8572V15.0686L17.0374 19.32ZM17.0374 22.0971V21.3256L24.4771 17.0742V17.8456L17.0374 22.0971ZM17.0374 23.3142V24.0942L24.4771 19.8513V19.0627L17.0374 23.3142ZM17.0374 26.0915V25.3029L24.4771 21.0515V21.8401L17.0374 26.0915Z" fill="white"/>
</g>
<defs>
<clipPath id="clip0">
<rect width="140.769" height="30" fill="white"/>
</clipPath>
</defs>
</svg>
