<svg width="70" height="58" viewBox="0 0 70 58" fill="none" xmlns="http://www.w3.org/2000/svg">
<path d="M28.5998 54.9001C26.2998 57.2001 22.3998 57.2001 20.0998 54.9001L19.3998 54.2001C17.0998 51.9001 17.0998 48.0001 19.3998 45.7001L38.1998 26.9C40.4998 24.6 44.3998 24.6 46.6998 26.9L47.3998 27.6C49.6998 29.9 49.6998 33.8 47.3998 36.1L28.5998 54.9001Z" stroke="#870AB7" stroke-width="1.5" stroke-miterlimit="10" stroke-linejoin="round"/>
<path d="M33.4002 25.1L24.7002 16.5" stroke="#870AB7" stroke-width="1.5" stroke-miterlimit="10"/>
<path d="M42.4004 47.6L50.4004 55.6C52.0004 57.2 54.5004 57.2 56.1004 55.6L57.2004 54.5C58.8004 52.9 58.8004 50.4 57.2004 48.8L49.2004 40.8" stroke="#870AB7" stroke-width="1.5" stroke-miterlimit="10"/>
<path d="M18 23.2002L26.6 31.9002" stroke="#870AB7" stroke-width="1.5" stroke-miterlimit="10"/>
<path d="M1.79993 19.4001L10.2999 27.9001C11.0999 28.7001 12.5999 28.6001 13.4999 27.6001L37.2999 3.9001C38.2999 2.9001 39.1999 2.0001 38.3999 1.4001C38.3999 1.4001 37.9999 1.1001 37.6999 1.2001C37.3999 1.3001 25.0999 4.5001 25.0999 4.5001C22.9999 5.0001 21.1999 4.7001 20.2999 4.0001L17.7999 2.5001C17.7999 2.5001 17.3999 2.2001 16.5999 2.3001C15.6999 2.5001 14.9999 3.3001 14.9999 3.3001L2.09993 16.2001C1.09993 17.2001 0.999935 18.6001 1.79993 19.4001Z" stroke="#870AB7" stroke-width="1.5" stroke-miterlimit="10"/>
<path d="M47 27.2002L56.6 17.7002" stroke="#870AB7" stroke-width="1.5" stroke-miterlimit="10" stroke-linejoin="round"/>
<path d="M68.6996 9.5001L63.0996 18.7001L56.9996 18.0001L56.2996 17.3001L55.5996 11.2001L64.7996 5.6001L68.6996 9.5001Z" stroke="#870AB7" stroke-width="1.5" stroke-miterlimit="10"/>
<path d="M41.5 32.8L25.5 48.8" stroke="#870AB7" stroke-width="1.5" stroke-miterlimit="10" stroke-linecap="round" stroke-linejoin="round"/>
</svg>
