<svg width="70" height="64" viewBox="0 0 70 64" fill="none" xmlns="http://www.w3.org/2000/svg">
<path d="M49.8027 42.6998L62.0025 36.4997C64.3025 35.1997 67.1025 35.6997 68.2024 37.8997C69.3024 39.9997 68.3024 42.7998 66.0025 43.9998L40.7028 57.4999L39.4028 57.7999L15.903 58.3999C15.903 58.3999 12.9031 59.1999 9.20312 63.3999" stroke="#870AB7" stroke-width="1.5" stroke-miterlimit="10" stroke-linejoin="round"/>
<path d="M0.800781 51.1003L11.501 41.3002C16.7011 37.8001 22.9013 39.7002 22.9013 39.7002C25.9013 40.5002 31.5015 40.7002 31.5015 40.7002H40.7017C43.5017 40.7002 45.7018 42.7002 45.7018 45.1002C45.7018 47.5003 43.4017 49.5003 40.7017 49.5003H27.9014" stroke="#870AB7" stroke-width="1.5" stroke-miterlimit="10"/>
<path d="M55.5012 34.1V27.7001L35.4012 9.6001L15.2012 27.7001V34.8" stroke="#870AB7" stroke-width="1.5" stroke-miterlimit="10" stroke-linejoin="round"/>
<path d="M62.5999 25.3992L35.3997 1.69971L22.5997 12.7995V5.69962H16.5996V17.9993L8.09961 25.3992" stroke="#870AB7" stroke-width="1.5" stroke-miterlimit="10"/>
</svg>
