<svg width="69" height="53" viewBox="0 0 69 53" fill="none" xmlns="http://www.w3.org/2000/svg">
<path d="M26.7991 42.7007C35.7464 42.7007 42.9996 35.4476 42.9996 26.5004C42.9996 17.5532 35.7464 10.3 26.7991 10.3C17.8518 10.3 10.5986 17.5532 10.5986 26.5004C10.5986 35.4476 17.8518 42.7007 26.7991 42.7007Z" stroke="#870AB7" stroke-width="1.5" stroke-miterlimit="10"/>
<path d="M20.8989 51.2013C10.0988 51.2013 1.29883 42.4011 1.29883 31.6009V20.9007C1.29883 10.1005 10.0988 1.30029 20.8989 1.30029H31.6989C42.4989 1.30029 51.2989 10.1005 51.2989 20.9007V46.4012C51.2989 49.1012 49.0989 51.3013 46.3989 51.3013H20.8989V51.2013Z" stroke="#870AB7" stroke-width="1.5" stroke-miterlimit="10"/>
<path d="M56.0996 45.3003H68.0996V51.0002" stroke="#870AB7" stroke-width="1.5" stroke-miterlimit="10"/>
<path d="M53.0977 6.50024C53.0977 6.50024 56.1975 10.1001 57.2975 17.6997" stroke="#870AB7" stroke-width="1.5" stroke-miterlimit="10" stroke-linecap="round"/>
<path d="M23.0977 19.3H30.5977L23.0977 25.8997H27.9977C29.6977 25.8997 30.9977 27.2996 30.9977 28.8995V30.8993C30.9977 32.4993 29.6977 33.8992 27.9977 33.8992H23.0977" stroke="#870AB7" stroke-width="1.5" stroke-miterlimit="10" stroke-linecap="round" stroke-linejoin="round"/>
</svg>
