<svg width="72" height="48" viewBox="0 0 72 48" fill="none" xmlns="http://www.w3.org/2000/svg">
<path d="M53.9988 34.3997L41.7988 38.0996L45.9988 25.8L61.7988 9.90048C62.6988 9.00051 64.3988 9.3005 65.5988 10.5005L69.4988 14.4003C70.6988 15.6003 70.9988 17.3003 70.0988 18.2002L53.9988 34.3997Z" stroke="#870AB7" stroke-width="1.5" stroke-miterlimit="10" stroke-linejoin="round"/>
<path d="M53.9019 32.9004L47.001 26.0002" stroke="#870AB7" stroke-width="1.5" stroke-miterlimit="10" stroke-linejoin="round"/>
<path d="M45.5002 36.6992L43.2002 34.5005" stroke="#870AB7" stroke-width="1.5" stroke-miterlimit="10" stroke-linejoin="round"/>
<path d="M50.7002 29.6003L59.7002 20.6003" stroke="#870AB7" stroke-width="1.5" stroke-miterlimit="10" stroke-linejoin="round"/>
<path d="M49.998 1.30054H56.9982V7.6001" stroke="#870AB7" stroke-width="1.5" stroke-miterlimit="10"/>
<path d="M56.9989 38.2001V46.8H1.29883V1.30005H40.9989" stroke="#870AB7" stroke-width="1.5" stroke-miterlimit="10"/>
<path d="M25.8005 24.2002H1.40039" stroke="#870AB7" stroke-width="1.5" stroke-miterlimit="10"/>
<path d="M25.8984 31.3003V17.1003" stroke="#870AB7" stroke-width="1.5" stroke-miterlimit="10"/>
<path d="M25.8984 9.80029V1.30054" stroke="#870AB7" stroke-width="1.5" stroke-miterlimit="10"/>
<path d="M25.8984 46.8008V39.4004" stroke="#870AB7" stroke-width="1.5" stroke-miterlimit="10"/>
<path d="M58.5977 13.499L66.4982 21.3994" stroke="#870AB7" stroke-width="1.5" stroke-miterlimit="10" stroke-linejoin="round"/>
</svg>
