<?xml version="1.0" encoding="utf-8"?>
<!-- Generator: Adobe Illustrator 21.0.0, SVG Export Plug-In . SVG Version: 6.00 Build 0)  -->
<svg version="1.1" id="Layer_1" xmlns="http://www.w3.org/2000/svg" xmlns:xlink="http://www.w3.org/1999/xlink" x="0px" y="0px"
	 viewBox="0 0 70 70" style="enable-background:new 0 0 70 70;" stoke="red" stroke-width="1" xml:space="preserve">
<g>
	<path class="st0" d="M35,1c18.7,0,34,15.3,34,34S53.7,69,35,69S1,53.7,1,35S16.3,1,35,1 M35,0C15.7,0,0,15.7,0,35s15.7,35,35,35
		s35-15.7,35-35S54.3,0,35,0L35,0z" />
</g>
<g>
	<path class="st0" d="M28.3,21.6L51.5,35L28.3,48.4V21.6 M27.3,19.8v30.3L53.5,35L27.3,19.8L27.3,19.8z"/>
</g>
</svg>
