<svg width="70" height="70" viewBox="0 0 70 70" fill="none" xmlns="http://www.w3.org/2000/svg">
<mask id="path-1-inside-1" fill="white">
<path fill-rule="evenodd" clip-rule="evenodd" d="M35 70C54.33 70 70 54.33 70 35C70 15.67 54.33 0 35 0C15.67 0 0 15.67 0 35C0 54.33 15.67 70 35 70ZM28.5 47.9904L51 35L28.5 22.0096L28.5 47.9904Z"/>
</mask>
<path d="M51 35L51.5 35.866L53 35L51.5 34.134L51 35ZM28.5 47.9904H27.5V49.7224L29 48.8564L28.5 47.9904ZM28.5 22.0096L29 21.1436L27.5 20.2776V22.0096H28.5ZM69 35C69 53.7777 53.7777 69 35 69V71C54.8823 71 71 54.8823 71 35H69ZM35 1C53.7777 1 69 16.2223 69 35H71C71 15.1177 54.8823 -1 35 -1V1ZM1 35C1 16.2223 16.2223 1 35 1V-1C15.1177 -1 -1 15.1177 -1 35H1ZM35 69C16.2223 69 1 53.7777 1 35H-1C-1 54.8823 15.1177 71 35 71V69ZM50.5 34.134L28 47.1244L29 48.8564L51.5 35.866L50.5 34.134ZM28 22.8756L50.5 35.866L51.5 34.134L29 21.1436L28 22.8756ZM29.5 47.9904L29.5 22.0096H27.5L27.5 47.9904H29.5Z" fill="#212112" mask="url(#path-1-inside-1)"/>
</svg>
