<?xml version="1.0" encoding="utf-8"?>
<!-- Generator: Adobe Illustrator 24.2.0, SVG Export Plug-In . SVG Version: 6.00 Build 0)  -->
<svg version="1.1" xmlns="http://www.w3.org/2000/svg" xmlns:xlink="http://www.w3.org/1999/xlink" x="0px" y="0px"
	 viewBox="0 0 74 74" style="enable-background:new 0 0 74 74;" xml:space="preserve">
<style type="text/css">
	.st0{fill:none;stroke-width:2;stroke-miterlimit:10;}
</style>
<g id="Layer_1" fill="transparent">
	<path class="st0" d="M37,1C17.1,1,1,17.1,1,37s16.1,36,36,36c19.9,0,36-16.1,36-36S56.9,1,37,1z" stroke="#fff" stroke-dasharray="1227" stroke-dashoffset="1000"/>
</g>
<g id="Layer_2" fill="transparent">
	<path class="st0" d="M37,1C17.1,1,1,17.1,1,37s16.1,36,36,36c19.9,0,36-16.1,36-36S56.9,1,37,1z" stroke="#870AB7"/>
</g>
<g id="Layer_3" fill="transparent">
	<path class="st0" stroke="#fff" d="M29.5,22.3v29.4L55,37L29.5,22.3z" stroke-dasharray="1227" stroke-dashoffset="1000"/>
</g>
<g id="Layer_3" fill="transparent">
	<path class="st0" stroke="#870AB7" d="M29.5,22.3v29.4L55,37L29.5,22.3z"/>
</g>
</svg>
