<svg width="51" height="60" viewBox="0 0 51 60" fill="none" xmlns="http://www.w3.org/2000/svg">
<path d="M30.2344 13.4176C32.0235 13.3152 33.8327 11.9222 34.4358 11.0619C35.0389 10.2015 37.6321 6.49374 37.6321 6.49374C36.6672 4.9369 36.4259 3.23666 37.1697 2.19193C38.4965 0.286847 42.3562 0.757997 45.7736 3.23666C49.191 5.71532 50.8796 9.27968 49.5529 11.1848C48.2261 13.0899 44.3664 12.6187 40.949 10.14" stroke="#870AB7" stroke-width="1.5" stroke-miterlimit="10" stroke-linecap="round" stroke-linejoin="round"/>
<path d="M44.5475 12.209C44.5475 12.209 42.2759 15.4456 41.6729 16.3059C41.0698 17.1663 40.3662 19.3582 40.8688 21.1199" stroke="#870AB7" stroke-width="1.5" stroke-miterlimit="10" stroke-linecap="round" stroke-linejoin="round"/>
<path d="M47.0405 27.7365L42.9999 33.5337C40.5675 36.9956 33.1497 35.8484 26.3953 30.9526C19.661 26.0567 16.1631 19.2967 18.5754 15.8143L22.616 10.0171" stroke="#870AB7" stroke-width="1.5" stroke-miterlimit="10" stroke-linecap="round" stroke-linejoin="round"/>
<path d="M23.8223 17.7194C21.9528 14.6262 21.4704 11.6764 22.8172 9.73036C24.144 7.84576 26.9382 7.33364 30.2953 8.03012" stroke="#870AB7" stroke-width="1.5" stroke-miterlimit="10" stroke-linecap="round" stroke-linejoin="round"/>
<path d="M45.8951 19.2148C47.845 22.3081 48.5687 25.5242 47.2218 27.4497C44.7894 30.9117 37.3716 29.7645 30.6172 24.8687" stroke="#870AB7" stroke-width="1.5" stroke-miterlimit="10" stroke-linecap="round" stroke-linejoin="round"/>
<path d="M31.1385 38.7985C31.5607 40.2324 31.7818 41.7278 31.7818 43.3051C31.7818 51.9702 24.8866 58.9965 16.3833 58.9965C7.87993 58.9965 1.00488 51.9497 1.00488 43.2846C1.00488 34.6196 7.90003 27.5933 16.4034 27.5933" stroke="#870AB7" stroke-width="1.5" stroke-miterlimit="10" stroke-linecap="round"/>
<path d="M7.41699 36.4629H11.0555V49.5117" stroke="#870AB7" stroke-width="1.5" stroke-miterlimit="10" stroke-linecap="round"/>
<path d="M17.6493 48.7537C16.9055 48.2211 16.3426 47.4427 15.9205 46.4594C15.5184 45.4557 15.3174 44.3085 15.3174 42.9975C15.3174 41.6865 15.5184 40.5188 15.9205 39.5356C16.3225 38.5318 16.9055 37.7739 17.6493 37.2413C18.3931 36.7087 19.2374 36.4219 20.2023 36.4219C21.1672 36.4219 22.0115 36.6882 22.7553 37.2413C23.4991 37.7739 24.062 38.5523 24.4841 39.5356C24.8862 40.5393 25.0872 41.6865 25.0872 42.9975C25.0872 44.3085 24.8862 45.4762 24.4841 46.4594C24.0821 47.4632 23.4991 48.2211 22.7553 48.7537C22.0115 49.2863 21.1672 49.5731 20.2023 49.5731C19.2374 49.5731 18.3931 49.2863 17.6493 48.7537Z" stroke="#870AB7" stroke-width="1.5" stroke-miterlimit="10" stroke-linecap="round"/>
</svg>
