<svg width="98" height="56" viewBox="0 0 98 56" fill="none" xmlns="http://www.w3.org/2000/svg">
<path d="M24.6004 51.4002C24.6004 51.4002 19.5004 53.9002 15.3004 52.1002C11.2004 50.3002 9.40039 45.0002 9.40039 45.0002C9.40039 45.0002 12.1004 43.7002 15.3004 43.7002C16.4004 43.7002 17.6004 43.9002 18.7004 44.4002C22.9004 46.1002 24.6004 51.4002 24.6004 51.4002Z" stroke="#870AB7" stroke-width="1.5" stroke-miterlimit="10"/>
<path d="M7.9002 40.5001C5.4002 37.9001 4.7002 34.1001 4.7002 34.1001C4.7002 34.1001 10.0002 32.2001 14.0002 34.5001C16.1002 35.7001 17.4002 37.9001 18.2002 39.6001" stroke="#870AB7" stroke-width="1.5" stroke-miterlimit="10"/>
<path d="M3.1002 29.8002C1.4002 26.7002 1.2002 22.3002 1.2002 22.3002C1.2002 22.3002 6.8002 21.9002 10.1002 25.1002C11.4002 26.4002 12.1002 28.0002 12.5002 29.6002" stroke="#870AB7" stroke-width="1.5" stroke-miterlimit="10"/>
<path d="M4.8005 18.2001C4.1005 15.5001 4.5005 12.6001 4.5005 12.6001C4.5005 12.6001 10.1005 12.6001 13.1005 16.1001C15.3005 18.6001 15.4005 22.3001 15.4005 24.1001" stroke="#870AB7" stroke-width="1.5" stroke-miterlimit="10"/>
<path d="M8.09992 9.2C7.29992 5.4 9.19992 1.5 9.19992 1.5C9.19992 1.5 14.5999 3.2 16.3999 7.4C17.2999 9.4 17.0999 11.7 16.7999 13.4" stroke="#870AB7" stroke-width="1.5" stroke-miterlimit="10"/>
<path d="M24.7002 51.5L30.1002 54" stroke="#870AB7" stroke-width="1.5" stroke-miterlimit="10" stroke-linecap="round"/>
<path d="M73.4004 51.4002C73.4004 51.4002 78.5004 53.9002 82.7004 52.1002C86.9004 50.3002 88.6004 45.0002 88.6004 45.0002C88.6004 45.0002 85.9004 43.7002 82.7004 43.7002C81.6004 43.7002 80.4004 43.9002 79.3004 44.4002C75.1004 46.1002 73.4004 51.4002 73.4004 51.4002Z" stroke="#870AB7" stroke-width="1.5" stroke-miterlimit="10"/>
<path d="M90.1008 40.5001C92.6008 37.9001 93.3008 34.1001 93.3008 34.1001C93.3008 34.1001 88.0008 32.2001 84.0008 34.5001C81.9008 35.7001 80.6008 37.9001 79.8008 39.6001" stroke="#870AB7" stroke-width="1.5" stroke-miterlimit="10"/>
<path d="M94.9 29.8002C96.6 26.7002 96.8 22.3002 96.8 22.3002C96.8 22.3002 91.2 21.9002 87.9 25.1002C86.6 26.4002 85.9 28.0002 85.5 29.6002" stroke="#870AB7" stroke-width="1.5" stroke-miterlimit="10"/>
<path d="M93.3002 18.2001C94.0002 15.5001 93.6002 12.6001 93.6002 12.6001C93.6002 12.6001 88.0002 12.6001 85.0002 16.1001C82.8002 18.6001 82.7002 22.3001 82.7002 24.1001" stroke="#870AB7" stroke-width="1.5" stroke-miterlimit="10"/>
<path d="M89.9005 9.2C90.6005 5.4 88.8005 1.5 88.8005 1.5C88.8005 1.5 83.4005 3.2 81.6005 7.4C80.7005 9.4 80.9005 11.7 81.2005 13.4" stroke="#870AB7" stroke-width="1.5" stroke-miterlimit="10"/>
<path d="M73.3004 51.5L67.9004 54" stroke="#870AB7" stroke-width="1.5" stroke-miterlimit="10" stroke-linecap="round"/>
<path d="M41.7996 13.2002V42.7002H34.9996V18.7002H29.0996V13.2002H41.7996V13.2002Z" stroke="#870AB7" stroke-width="1.5" stroke-miterlimit="10"/>
<path d="M52.9994 41.3002C51.0994 40.1002 49.5994 38.3002 48.4994 36.1002C47.3994 33.8002 46.8994 31.1002 46.8994 27.9002C46.8994 24.7002 47.3994 22.0002 48.4994 19.7002C49.5994 17.4002 51.0994 15.7002 52.9994 14.5002C54.8994 13.3002 57.0994 12.7002 59.4994 12.7002C61.8994 12.7002 64.0994 13.3002 65.9994 14.5002C67.8994 15.7002 69.3994 17.5002 70.4994 19.7002C71.5994 22.0002 72.0994 24.7002 72.0994 27.9002C72.0994 31.1002 71.5994 33.8002 70.4994 36.1002C69.3994 38.4002 67.8994 40.1002 65.9994 41.3002C64.0994 42.5002 61.8994 43.1002 59.4994 43.1002C57.0994 43.1002 54.8994 42.5002 52.9994 41.3002ZM63.7994 35.0002C64.7994 33.5002 65.2994 31.1002 65.2994 27.8002C65.2994 24.6002 64.7994 22.2002 63.7994 20.6002C62.7994 19.1002 61.3994 18.3002 59.5994 18.3002C57.7994 18.3002 56.3994 19.1002 55.3994 20.6002C54.3994 22.1002 53.8994 24.5002 53.8994 27.8002C53.8994 31.0002 54.3994 33.4002 55.3994 35.0002C56.3994 36.5002 57.7994 37.3002 59.5994 37.3002C61.3994 37.4002 62.7994 36.6002 63.7994 35.0002Z" stroke="#870AB7" stroke-width="1.5" stroke-miterlimit="10"/>
</svg>
