<svg width="70" height="62" viewBox="0 0 70 62" fill="none" xmlns="http://www.w3.org/2000/svg">
<path d="M10.2065 6.96313C10.2065 7.37427 9.89727 7.7854 9.3818 7.7854C8.96943 7.68262 8.66016 7.37427 8.66016 6.96313C8.66016 6.552 8.96943 6.24365 9.4849 6.24365C9.79417 6.14087 10.2065 6.552 10.2065 6.96313ZM16.9076 6.14087C16.4952 6.14087 16.0828 6.44922 16.0828 6.86035C16.0828 7.27148 16.3921 7.68262 16.9076 7.68262C17.3199 7.68262 17.7323 7.37427 17.7323 6.86035C17.6292 6.552 17.3199 6.14087 16.9076 6.14087ZM24.4333 6.14087C24.0209 6.14087 23.6086 6.44922 23.6086 6.96313C23.6086 7.37427 23.9179 7.7854 24.4333 7.7854C24.8457 7.7854 25.2581 7.47705 25.2581 6.96313C25.155 6.552 24.8457 6.14087 24.4333 6.14087Z" stroke="#870AB7" stroke-width="1.5" stroke-miterlimit="10"/>
<path d="M63.0924 39.5572V4.49585C63.0924 2.54229 61.546 1 59.6904 1H4.74191C2.88624 1 1.33984 2.54229 1.33984 4.39303V42.8474C1.33984 44.6982 2.88624 46.2405 4.74191 46.2405H35.4636M5.87593 12.8242H58.4532H5.87593ZM12.2677 24.1343H51.9584H12.2677ZM12.2677 31.8458H29.0718H12.2677Z" stroke="#870AB7" stroke-width="1.5" stroke-miterlimit="10" stroke-linejoin="round"/>
<path d="M45.6699 40.3798L56.2884 49.0166M40.9276 44.0813L34.9482 31.6401L48.6596 35.3416L67.9379 51.073C68.9689 51.8955 68.8658 53.8491 67.7317 55.2886L64.639 58.99C63.4019 60.4295 61.5462 60.9436 60.5153 60.1211L40.9276 44.0813ZM36.907 35.2388L38.8658 32.874L36.907 35.2388ZM41.9586 44.3897L48.8658 35.9585L41.9586 44.3897ZM56.5977 56.3168L63.5049 47.8856L56.5977 56.3168Z" stroke="#870AB7" stroke-width="1.5" stroke-miterlimit="10" stroke-linejoin="round"/>
</svg>
