<svg width="20" height="20" viewBox="0 0 20 20" xmlns="http://www.w3.org/2000/svg">
<path fill-rule="evenodd" clip-rule="evenodd" d="M10.1807 19.5181C8.43373 19.5181 6.86747 19.0964 5.42169 18.3132L0 20.0602L1.74699 14.8193C0.843373 13.3735 0.361446 11.6265 0.361446 9.75904C0.361446 4.33735 4.75904 0 10.1807 0C15.6024 0 20 4.33735 20 9.75904C20 15.1807 15.6024 19.5181 10.1807 19.5181ZM10.1807 1.56626C5.60241 1.56626 1.92771 5.24096 1.92771 9.75904C1.92771 11.5663 2.53012 13.1928 3.49398 14.5783L2.46988 17.6506L5.66265 16.6265C6.98795 17.4699 8.55422 18.012 10.1807 18.012C14.759 18.012 18.4337 14.3373 18.4337 9.81927C18.4337 5.3012 14.759 1.56626 10.1807 1.56626ZM15.1807 11.9879C15.1205 11.8675 14.9398 11.8072 14.6988 11.6867C14.4578 11.6265 13.253 11.0241 13.0723 10.9639C12.8313 10.8434 12.6506 10.8434 12.5301 11.0843C12.3494 11.3253 11.9277 11.8675 11.747 12.0482C11.6265 12.1687 11.4458 12.1687 11.2048 12.0482C10.9639 11.9277 10.1807 11.6867 9.27711 10.8434C8.55422 10.241 8.07229 9.45783 7.95181 9.21687C7.83132 8.9759 7.95181 8.85542 8.07229 8.73494C8.13253 8.61446 8.31325 8.43373 8.43373 8.31325C8.55422 8.19277 8.61446 8.07229 8.6747 7.89157C8.73494 7.71084 8.73494 7.59036 8.6747 7.46988C8.55422 7.3494 8.07229 6.20482 7.89157 5.72289C7.71084 5.24096 7.46988 5.3012 7.3494 5.3012C7.22892 5.3012 7.04819 5.3012 6.86747 5.3012C6.68675 5.3012 6.44578 5.36144 6.20482 5.60241C6.0241 5.84337 5.42169 6.44578 5.42169 7.59036C5.42169 8.79518 6.26506 9.87952 6.38554 10.0602C6.50602 10.241 8.07229 12.7108 10.4819 13.6747C12.9518 14.6386 12.9518 14.3373 13.3735 14.2771C13.7952 14.2169 14.8193 13.6747 15 13.1325C15.241 12.5904 15.241 12.1084 15.1807 11.9879Z" />
</svg>
