<svg width="21" height="20" viewBox="0 0 21 20" xmlns="http://www.w3.org/2000/svg">
<g clip-path="url(#clip0)">
<path fill-rule="evenodd" clip-rule="evenodd" d="M10.5879 19.5181C8.84096 19.5181 7.2747 19.0964 5.82891 18.3132L0.407227 20.0602L2.15421 14.8193C1.2506 13.3735 0.768673 11.6265 0.768673 9.75904C0.768673 4.33735 5.16626 0 10.5879 0C16.0096 0 20.4072 4.33735 20.4072 9.75904C20.4072 15.1807 16.0096 19.5181 10.5879 19.5181ZM10.5879 1.56626C6.00964 1.56626 2.33494 5.24096 2.33494 9.75904C2.33494 11.5663 2.93735 13.1928 3.9012 14.5783L2.87711 17.6506L6.06988 16.6265C7.39518 17.4699 8.96144 18.012 10.5879 18.012C15.1663 18.012 18.841 14.3373 18.841 9.81927C18.841 5.3012 15.1663 1.56626 10.5879 1.56626ZM15.5879 11.9879C15.5277 11.8675 15.347 11.8072 15.106 11.6867C14.8651 11.6265 13.6602 11.0241 13.4795 10.9639C13.2386 10.8434 13.0578 10.8434 12.9373 11.0843C12.7566 11.3253 12.3349 11.8675 12.1542 12.0482C12.0337 12.1687 11.853 12.1687 11.612 12.0482C11.3711 11.9277 10.5879 11.6867 9.68433 10.8434C8.96144 10.241 8.47952 9.45783 8.35903 9.21687C8.23855 8.9759 8.35903 8.85542 8.47952 8.73494C8.53976 8.61446 8.72048 8.43373 8.84096 8.31325C8.96144 8.19277 9.02168 8.07229 9.08192 7.89157C9.14217 7.71084 9.14217 7.59036 9.08192 7.46988C8.96144 7.3494 8.47952 6.20482 8.29879 5.72289C8.11807 5.24096 7.87711 5.3012 7.75662 5.3012C7.63614 5.3012 7.45542 5.3012 7.2747 5.3012C7.09397 5.3012 6.85301 5.36144 6.61205 5.60241C6.43132 5.84337 5.82891 6.44578 5.82891 7.59036C5.82891 8.79518 6.67229 9.87952 6.79277 10.0602C6.91325 10.241 8.47952 12.7108 10.8892 13.6747C13.359 14.6386 13.359 14.3373 13.7807 14.2771C14.2024 14.2169 15.2265 13.6747 15.4072 13.1325C15.6482 12.5904 15.6482 12.1084 15.5879 11.9879Z" />
</g>
<defs>
<clipPath id="clip0">
<rect x="0.407227" width="20" height="20"/>
</clipPath>
</defs>
</svg>
