<svg width="21" height="20" viewBox="0 0 21 20" xmlns="http://www.w3.org/2000/svg">
<g clip-path="url(#clip0)">
<path d="M10.4072 0C7.69108 0 7.34993 0.0104167 6.28483 0.0598958C5.21973 0.109375 4.49316 0.278646 3.85775 0.523438C3.19889 0.778646 2.6416 1.11979 2.08691 1.67708C1.53223 2.23177 1.18848 2.79167 0.933268 3.44792C0.685872 4.08333 0.516602 4.8099 0.469727 5.875C0.417643 6.94271 0.407227 7.28385 0.407227 10C0.407227 12.7161 0.417643 13.0573 0.467122 14.1224C0.516602 15.1875 0.685872 15.9141 0.930664 16.5495C1.18587 17.2083 1.52702 17.7656 2.08431 18.3203C2.639 18.875 3.19889 19.2188 3.85514 19.474C4.49056 19.7214 5.21712 19.8906 6.28223 19.9375C7.34994 19.987 7.68848 19.9974 10.4046 19.9974C13.1208 19.9974 13.4619 19.987 14.527 19.9375C15.5921 19.888 16.3187 19.7188 16.9541 19.474C17.613 19.2188 18.1702 18.8776 18.7249 18.3203C19.2796 17.7656 19.6234 17.2057 19.8786 16.5495C20.126 15.9141 20.2952 15.1875 20.3421 14.1224C20.3916 13.0547 20.402 12.7161 20.402 10C20.402 7.28385 20.3916 6.94271 20.3421 5.8776C20.2926 4.8125 20.1234 4.08594 19.8786 3.45052C19.6234 2.79167 19.2822 2.23438 18.7249 1.67969C18.1702 1.125 17.6104 0.78125 16.9541 0.526042C16.3187 0.278646 15.5921 0.109375 14.527 0.0625C13.4645 0.0104167 13.1234 0 10.4072 0ZM10.4072 1.80208C13.0765 1.80208 13.3942 1.8125 14.4489 1.85938C15.4229 1.90365 15.9541 2.06771 16.3057 2.20313C16.7718 2.38542 17.1051 2.60156 17.4567 2.95052C17.8057 3.29948 18.0244 3.63281 18.2041 4.10156C18.3421 4.45313 18.5036 4.98438 18.5478 5.95833C18.5947 7.01302 18.6051 7.32813 18.6051 10C18.6051 12.6693 18.5947 12.987 18.5478 14.0417C18.5036 15.0156 18.3395 15.5469 18.2041 15.8984C18.0218 16.3646 17.8057 16.6979 17.4567 17.0495C17.1077 17.3984 16.7744 17.6172 16.3057 17.7969C15.9541 17.9349 15.4229 18.0964 14.4489 18.1406C13.3942 18.1875 13.0791 18.1979 10.4072 18.1979C7.73796 18.1979 7.42025 18.1875 6.36556 18.1406C5.3916 18.0964 4.86035 17.9323 4.50879 17.7969C4.04264 17.6146 3.70931 17.3984 3.35775 17.0495C3.00879 16.7005 2.79004 16.3672 2.61035 15.8984C2.47233 15.5469 2.31087 15.0156 2.2666 14.0417C2.21973 12.987 2.20931 12.6719 2.20931 10C2.20931 7.33073 2.21973 7.01302 2.2666 5.95833C2.31087 4.98438 2.47493 4.45313 2.61035 4.10156C2.79264 3.63542 3.00879 3.30208 3.35775 2.95052C3.70671 2.60156 4.04004 2.38281 4.50879 2.20313C4.86035 2.0651 5.3916 1.90365 6.36556 1.85938C7.42025 1.8125 7.73796 1.80208 10.4072 1.80208Z" />
<path d="M10.1354 13.4688C8.29427 13.4688 6.80208 11.9766 6.80208 10.1354C6.80208 8.29427 8.29427 6.80208 10.1354 6.80208C11.9766 6.80208 13.4688 8.29427 13.4688 10.1354C13.4688 11.9766 11.9766 13.4688 10.1354 13.4688ZM10.1354 5C7.29948 5 5 7.29948 5 10.1354C5 12.9714 7.29948 15.2708 10.1354 15.2708C12.9714 15.2708 15.2708 12.9714 15.2708 10.1354C15.2708 7.29948 12.9714 5 10.1354 5Z" />
<path d="M16.946 4.66146C16.946 5.32552 16.4095 5.86198 15.7454 5.86198C15.084 5.86198 14.5449 5.32552 14.5449 4.66146C14.5449 4 15.0814 3.46094 15.7454 3.46094C16.4069 3.46094 16.946 4 16.946 4.66146Z" />
</g>
<defs>
<clipPath id="clip0">
<rect x="0.407227" width="20" height="20" />
</clipPath>
</defs>
</svg>
