<svg width="27" height="20" viewBox="0 0 27 20" xmlns="http://www.w3.org/2000/svg">
<g clip-path="url(#clip0)">
<path d="M26.6921 4.33333C26.6921 4.33333 26.4421 2.33333 25.6087 1.5C24.6087 0.333333 23.4421 0.333333 22.9421 0.333333C19.1921 0 13.6087 0 13.6087 0C13.6087 0 8.02539 0 4.27539 0.25C3.77539 0.333333 2.60872 0.333333 1.60872 1.41667C0.775391 2.25 0.525391 4.25 0.525391 4.25C0.525391 4.25 0.275391 6.58333 0.275391 8.91667V11.0833C0.275391 13.4167 0.525391 15.6667 0.525391 15.6667C0.525391 15.6667 0.775391 17.6667 1.60872 18.5C2.60872 19.6667 3.94206 19.5833 4.52539 19.75C6.69206 19.9167 13.6087 20 13.6087 20C13.6087 20 19.1921 20 22.9421 19.6667C23.4421 19.5833 24.6087 19.5833 25.6087 18.5C26.4421 17.6667 26.6921 15.6667 26.6921 15.6667C26.6921 15.6667 26.9421 13.3333 26.9421 11.0833V8.91667C26.9421 6.58333 26.6921 4.33333 26.6921 4.33333ZM10.2754 15V5L18.6087 10L10.2754 15Z" />
</g>
<defs>
<clipPath id="clip0">
<rect width="26.6667" height="20" transform="translate(0.275391)"/>
</clipPath>
</defs>
</svg>
