<svg viewBox="0 0 229 264" fill="none" xmlns="http://www.w3.org/2000/svg">
<path d="M139.293 170.444C141.189 176.762 142.182 183.35 142.182 190.3C142.182 228.478 111.224 259.436 73.0456 259.436C34.8675 259.436 4 228.388 4 190.21C4 152.032 34.9577 121.074 73.1359 121.074" stroke="#870AB7" stroke-width="8" stroke-miterlimit="10" stroke-linecap="round"/>
<path d="M38.0273 185.517L62.6671 219.724L108.156 165.39" stroke="#870AB7" stroke-width="8" stroke-miterlimit="10" stroke-linecap="round" stroke-linejoin="round"/>
<path d="M106.439 77.5709C98.045 63.9422 95.8789 50.9453 101.926 42.371C107.883 34.0675 120.429 31.8111 135.501 34.8798" stroke="white" stroke-width="8" stroke-miterlimit="10" stroke-linecap="round" stroke-linejoin="round"/>
<path d="M205.539 84.1595C214.294 97.7882 217.543 111.958 211.496 120.442C200.575 135.696 167.27 130.641 136.944 109.07" stroke="white" stroke-width="8" stroke-miterlimit="10" stroke-linecap="round" stroke-linejoin="round"/>
<path d="M210.684 121.706L192.543 147.248C181.622 162.502 148.318 157.447 117.992 135.876C87.7562 114.305 72.0517 84.5205 82.8824 69.177L101.024 43.6346" stroke="white" stroke-width="8" stroke-miterlimit="10" stroke-linecap="round" stroke-linejoin="round"/>
<path d="M135.234 58.6171C143.267 58.1658 151.39 52.0285 154.098 48.2377C156.805 44.447 168.448 28.1107 168.448 28.1107C164.116 21.2513 163.033 13.7601 166.373 9.15704C172.329 0.763263 189.659 2.83914 205.002 13.7601C220.345 24.681 227.927 40.3855 221.97 48.7793C216.013 57.173 198.684 55.0972 183.341 44.1762" stroke="white" stroke-width="8" stroke-miterlimit="10" stroke-linecap="round" stroke-linejoin="round"/>
<path d="M199.494 53.2922C199.494 53.2922 189.295 67.5526 186.587 71.3433C183.88 75.134 180.721 84.7914 182.977 92.5533" stroke="white" stroke-width="8" stroke-miterlimit="10" stroke-linecap="round" stroke-linejoin="round"/>
</svg>
